<svg width="276" height="257" viewBox="0 0 276 257" fill="none" xmlns="http://www.w3.org/2000/svg">
<path fill-rule="evenodd" clip-rule="evenodd" d="M162.366 144.841L170.648 146.14L165.382 152.663L164.283 149.811C163.026 150.515 161.842 151.268 160.729 152.064L159.884 150.882C161.095 150.017 162.385 149.202 163.755 148.443L162.366 144.841ZM157.187 154.95C156.048 156.006 155.004 157.116 154.05 158.27L152.931 157.345C153.926 156.142 155.014 154.986 156.199 153.886L157.187 154.95ZM151.377 161.976C150.561 163.279 149.838 164.623 149.204 165.998L147.885 165.39C148.545 163.961 149.296 162.563 150.146 161.206L151.377 161.976ZM147.54 170.262C147.068 171.721 146.683 173.203 146.378 174.697L144.955 174.406C145.27 172.862 145.669 171.328 146.159 169.815L147.54 170.262ZM145.697 179.236C145.547 180.769 145.475 182.302 145.475 183.825L144.023 183.825C144.023 182.256 144.097 180.676 144.252 179.094L145.697 179.236ZM145.691 188.418C145.837 189.964 146.054 191.486 146.335 192.97L144.908 193.24C144.619 191.712 144.396 190.145 144.246 188.554L145.691 188.418ZM147.404 197.441C147.621 198.184 147.854 198.913 148.102 199.625L146.731 200.103C146.474 199.367 146.234 198.614 146.01 197.848L147.404 197.441Z" fill="white"/>
<path fill-rule="evenodd" clip-rule="evenodd" d="M249.918 70.157L253.649 62.6499L258.284 69.6346L254.8 69.8521C254.867 71.1165 254.931 72.4017 254.988 73.7062L253.538 73.7703C253.48 72.4753 253.418 71.1989 253.351 69.9426L249.918 70.157ZM255.159 78.1652C255.205 79.6328 255.243 81.1214 255.269 82.6289L253.818 82.6543C253.791 81.1543 253.754 79.6727 253.707 78.2115L255.159 78.1652ZM255.312 87.0968C255.314 88.572 255.303 90.0628 255.277 91.5676L253.826 91.5431C253.851 90.0476 253.862 88.5655 253.86 87.0985L255.312 87.0968ZM255.159 96.0236C255.105 97.4986 255.036 98.9849 254.949 100.481L253.5 100.397C253.586 98.9118 253.654 97.4357 253.708 95.9706L255.159 96.0236ZM254.641 104.937C254.521 106.414 254.384 107.898 254.226 109.389L252.782 109.237C252.938 107.758 253.075 106.285 253.193 104.82L254.641 104.937ZM253.699 113.833C253.504 115.302 253.29 116.777 253.053 118.255L251.619 118.025C251.854 116.561 252.067 115.099 252.259 113.642L253.699 113.833ZM252.281 122.656C252.004 124.115 251.703 125.575 251.378 127.037L249.96 126.721C250.282 125.275 250.58 123.829 250.855 122.385L252.281 122.656ZM250.335 131.39C249.965 132.83 249.57 134.27 249.148 135.709L247.755 135.3C248.172 133.878 248.563 132.454 248.929 131.029L250.335 131.39ZM247.815 139.976C247.347 141.386 246.852 142.794 246.328 144.197L244.968 143.69C245.485 142.303 245.975 140.912 246.437 139.519L247.815 139.976ZM244.683 148.365C244.11 149.737 243.509 151.106 242.877 152.468L241.56 151.857C242.184 150.512 242.778 149.161 243.343 147.806L244.683 148.365ZM240.915 156.487C240.237 157.807 239.529 159.121 238.789 160.428L237.526 159.712C238.256 158.423 238.954 157.127 239.623 155.823L240.915 156.487ZM236.498 164.286C235.715 165.545 234.9 166.796 234.053 168.037L232.854 167.219C233.689 165.994 234.492 164.761 235.265 163.519L236.498 164.286ZM231.456 171.679C230.569 172.868 229.651 174.049 228.7 175.219L227.573 174.303C228.511 173.149 229.417 171.985 230.292 170.811L231.456 171.679ZM225.8 178.637C224.822 179.743 223.813 180.838 222.772 181.921L221.725 180.915C222.752 179.846 223.747 178.766 224.712 177.675L225.8 178.637ZM219.596 185.095C218.53 186.118 217.434 187.13 216.306 188.129L215.342 187.043C216.456 186.056 217.539 185.057 218.591 184.047L219.596 185.095ZM212.907 191.027C211.758 191.969 210.58 192.899 209.37 193.817L208.492 192.66C209.687 191.753 210.852 190.834 211.986 189.904L212.907 191.027ZM205.78 196.441C204.571 197.292 203.334 198.13 202.068 198.957L201.274 197.741C202.526 196.924 203.749 196.094 204.944 195.254L205.78 196.441ZM198.282 201.339C197.025 202.101 195.74 202.851 194.428 203.59L193.716 202.325C195.014 201.594 196.285 200.851 197.529 200.097L198.282 201.339ZM190.48 205.733C189.183 206.412 187.86 207.08 186.512 207.735L185.877 206.43C187.212 205.78 188.522 205.119 189.807 204.447L190.48 205.733ZM182.434 209.648C181.103 210.249 179.749 210.84 178.371 211.419L177.808 210.081C179.175 209.506 180.517 208.921 181.836 208.325L182.434 209.648ZM174.195 213.111C172.836 213.642 171.455 214.163 170.051 214.672L169.555 213.307C170.948 212.802 172.319 212.285 173.667 211.759L174.195 213.111ZM165.806 216.157C164.42 216.624 163.013 217.08 161.585 217.527L161.151 216.141C162.57 215.698 163.967 215.244 165.343 214.781L165.806 216.157ZM157.298 218.817C156.573 219.027 155.843 219.235 155.107 219.439L154.718 218.041C155.448 217.837 156.174 217.631 156.894 217.423L157.298 218.817Z" fill="white"/>
<path fill-rule="evenodd" clip-rule="evenodd" d="M115.555 86.0547L123.695 88.0599L117.888 94.1065L117.105 91.4025C116.072 91.9683 115.08 92.5964 114.129 93.2833L113.279 92.1064C114.364 91.322 115.502 90.61 116.691 89.9755L115.555 86.0547ZM106.79 98.392C107.731 97.1927 108.739 96.0678 109.811 95.0244L110.824 96.0652C109.799 97.0617 108.835 98.1381 107.932 99.2886L106.79 98.392ZM102.097 106.076C102.747 104.695 103.457 103.368 104.226 102.103L105.467 102.857C104.726 104.077 104.04 105.358 103.41 106.695L102.097 106.076ZM99.0332 114.516C99.4279 113.051 99.8751 111.623 100.374 110.239L101.74 110.732C101.255 112.077 100.82 113.465 100.435 114.894L99.0332 114.516ZM97.3469 123.31C97.5287 121.807 97.7576 120.33 98.0332 118.884L99.4595 119.156C99.1902 120.569 98.9664 122.013 98.7884 123.485L97.3469 123.31ZM96.8223 132.241C96.8222 130.732 96.8649 129.24 96.9502 127.769L98.3998 127.853C98.3161 129.296 98.2742 130.759 98.2743 132.241L96.8223 132.241ZM97.3054 141.165C97.1458 139.669 97.026 138.183 96.9456 136.711L98.3954 136.631C98.4744 138.079 98.5923 139.539 98.7492 141.011L97.3054 141.165ZM98.6882 149.987C98.3848 148.517 98.1187 147.052 97.8897 145.593L99.3241 145.368C99.5495 146.803 99.8114 148.246 100.11 149.693L98.6882 149.987ZM100.896 158.634C100.46 157.201 100.058 155.768 99.6927 154.336L101.1 153.977C101.46 155.387 101.855 156.799 102.285 158.211L100.896 158.634ZM103.877 167.044C103.315 165.658 102.787 164.266 102.293 162.873L103.661 162.387C104.148 163.761 104.669 165.132 105.223 166.499L103.877 167.044ZM107.594 175.157C106.912 173.826 106.262 172.487 105.646 171.142L106.966 170.537C107.573 171.863 108.213 173.183 108.886 174.494L107.594 175.157ZM112.016 182.91C111.218 181.645 110.452 180.369 109.719 179.082L110.98 178.363C111.703 179.631 112.458 180.889 113.244 182.135L112.016 182.91ZM117.114 190.24C116.205 189.051 115.328 187.848 114.482 186.632L115.674 185.803C116.508 187.001 117.372 188.187 118.267 189.358L117.114 190.24ZM122.847 197.071C121.835 195.971 120.854 194.854 119.902 193.72L121.015 192.787C121.952 193.904 122.919 195.005 123.916 196.088L122.847 197.071ZM127.552 201.843C127.008 201.328 126.472 200.809 125.943 200.285L126.965 199.253C127.486 199.77 128.014 200.282 128.55 200.789L127.552 201.843Z" fill="white"/>
<path fill-rule="evenodd" clip-rule="evenodd" d="M16.8806 48.918L22.0544 42.3219L25.1799 50.1006L21.8929 49.6322C21.7783 50.8573 21.6807 52.0873 21.5997 53.3217L20.1509 53.2267C20.2342 51.9556 20.3351 50.6889 20.4538 49.4271L16.8806 48.918ZM19.8503 62.0913C19.8549 60.6085 19.8817 59.1301 19.9314 57.6568L21.3826 57.7058C21.3334 59.164 21.3068 60.6276 21.3023 62.0957L19.8503 62.0913ZM20.0837 70.9509C20.0021 69.4704 19.9416 67.9927 19.9025 66.5186L21.354 66.4801C21.3927 67.9403 21.4526 69.4041 21.5335 70.871L20.0837 70.9509ZM20.8138 79.7773C20.6521 78.3061 20.5103 76.8363 20.3887 75.3685L21.8357 75.2486C21.9563 76.7033 22.0968 78.1603 22.2571 79.6187L20.8138 79.7773ZM22.0091 88.5543C21.7726 87.0958 21.5547 85.6372 21.3559 84.1792L22.7946 83.9831C22.9917 85.4288 23.2078 86.8753 23.4424 88.3219L22.0091 88.5543ZM23.6417 97.261C23.3342 95.8148 23.0443 94.3673 22.7726 92.919L24.1997 92.6512C24.4693 94.0879 24.7568 95.5241 25.062 96.9589L23.6417 97.261ZM25.6878 105.879C25.3128 104.448 24.9547 103.015 24.6139 101.58L26.0266 101.244C26.3648 102.668 26.7202 104.091 27.0923 105.51L25.6878 105.879ZM28.1261 114.388C27.6873 112.978 27.2646 111.563 26.8583 110.145L28.2541 109.745C28.6574 111.153 29.077 112.557 29.5125 113.957L28.1261 114.388ZM30.9421 122.782C30.4419 121.393 29.957 119.999 29.4877 118.6L30.8643 118.139C31.3302 119.527 31.8116 120.911 32.3082 122.29L30.9421 122.782ZM34.123 131.044C33.5631 129.679 33.0179 128.307 32.4875 126.93L33.8425 126.408C34.3691 127.776 34.9105 129.137 35.4664 130.493L34.123 131.044ZM37.6591 139.159C37.041 137.821 36.4369 136.474 35.8472 135.121L37.1783 134.541C37.7639 135.885 38.3637 137.222 38.9773 138.55L37.6591 139.159ZM41.5437 147.112C40.8687 145.803 40.207 144.486 39.5591 143.159L40.8638 142.522C41.5071 143.839 42.164 145.147 42.8341 146.446L41.5437 147.112ZM45.7767 154.892C45.0442 153.614 44.3245 152.326 43.6181 151.027L44.8935 150.333C45.5948 151.622 46.3092 152.901 47.0364 154.169L45.7767 154.892ZM50.3551 162.473C49.5646 161.229 48.7865 159.973 48.0212 158.706L49.2642 157.955C50.0238 159.213 50.796 160.46 51.5805 161.694L50.3551 162.473ZM55.2797 169.832C54.4313 168.627 53.5949 167.409 52.7708 166.177L53.9776 165.37C54.7953 166.592 55.6252 167.801 56.4668 168.996L55.2797 169.832ZM60.5535 176.94C59.6489 175.783 58.7558 174.61 57.8744 173.422L59.0406 172.556C59.9147 173.735 60.8005 174.898 61.6975 176.046L60.5535 176.94ZM66.194 183.778C65.2288 182.67 64.2746 181.544 63.3319 180.401L64.4521 179.477C65.3867 180.61 66.3324 181.727 67.2889 182.825L66.194 183.778ZM72.2028 190.298C71.1739 189.244 70.1557 188.171 69.1486 187.077L70.2165 186.094C71.2142 187.177 72.2227 188.24 73.2416 189.284L72.2028 190.298ZM78.5836 196.445C77.493 195.459 76.4127 194.449 75.343 193.418L76.3506 192.373C77.4095 193.393 78.4786 194.392 79.5576 195.368L78.5836 196.445ZM85.3568 202.171C84.2032 201.262 83.0593 200.328 81.9255 199.369L82.8632 198.26C83.9843 199.209 85.1152 200.132 86.2553 201.03L85.3568 202.171ZM92.5317 207.403C91.3088 206.582 90.0952 205.731 88.8912 204.852L89.7472 203.679C90.9363 204.547 92.1346 205.387 93.3415 206.198L92.5317 207.403ZM100.091 212.042C98.8064 211.328 97.5304 210.581 96.2635 209.803L97.0234 208.565C98.2729 209.333 99.5308 210.069 100.797 210.773L100.091 212.042ZM108.057 216.001C106.707 215.409 105.364 214.781 104.03 214.117L104.677 212.817C105.99 213.471 107.312 214.089 108.64 214.672L108.057 216.001ZM116.369 219.147C114.962 218.698 113.561 218.21 112.168 217.682L112.683 216.324C114.052 216.843 115.428 217.323 116.81 217.763L116.369 219.147ZM122.808 220.9C122.087 220.737 121.368 220.563 120.65 220.378L121.012 218.972C121.716 219.153 122.422 219.324 123.129 219.484L122.808 220.9Z" fill="white"/>
<path d="M187.781 146.253C187.67 146.253 187.557 146.223 187.456 146.16C186.417 145.511 185.151 145.113 183.474 144.906C180.865 144.584 178.344 145.041 176.556 146.16C176.269 146.34 175.89 146.253 175.71 145.965C175.53 145.677 175.617 145.299 175.905 145.119C177.927 143.853 180.74 143.331 183.624 143.687C185.486 143.916 186.91 144.371 188.107 145.118C188.395 145.298 188.482 145.677 188.303 145.965C188.186 146.151 187.986 146.253 187.781 146.253Z" fill="white"/>
<path d="M181.858 138.539C179.616 138.539 177.511 138.003 175.905 136.997C175.617 136.817 175.53 136.438 175.71 136.151C175.89 135.863 176.269 135.776 176.556 135.956C178.344 137.075 180.866 137.531 183.473 137.21C185.151 137.003 186.417 136.605 187.456 135.956C187.744 135.776 188.123 135.864 188.303 136.151C188.482 136.439 188.395 136.818 188.107 136.998C186.91 137.745 185.486 138.2 183.624 138.43C183.031 138.503 182.44 138.539 181.858 138.539Z" fill="white"/>
<path d="M182.027 149.04C181.304 149.04 180.591 148.736 179.967 148.162C178.889 147.171 178.392 145.766 178.079 144.652C177.757 143.507 177.61 142.225 177.627 140.734C177.643 139.388 177.865 138.038 178.269 136.83C178.794 135.262 179.508 134.195 180.454 133.567C180.941 133.244 181.477 133.073 182.006 133.072C183.381 133.074 184.314 134.14 184.747 134.775C185.422 135.764 185.877 136.967 186.176 138.561C186.686 141.278 186.369 144.126 185.305 146.375C184.859 147.316 184.06 148.523 182.789 148.922C182.54 149 182.284 149.04 182.027 149.04ZM182.006 134.301C181.72 134.301 181.419 134.401 181.134 134.59C180.424 135.061 179.869 135.92 179.434 137.219C179.07 138.308 178.87 139.528 178.856 140.748C178.839 142.121 178.972 143.289 179.262 144.319C179.531 145.277 179.949 146.476 180.798 147.258C181.313 147.731 181.896 147.915 182.42 147.75C183.269 147.484 183.853 146.569 184.194 145.85C185.15 143.83 185.432 141.256 184.968 138.788C184.701 137.367 184.309 136.312 183.732 135.467C183.493 135.117 182.846 134.301 182.006 134.301Z" fill="white"/>
<path d="M182.006 149.044C181.667 149.044 181.392 148.769 181.392 148.43V133.686C181.392 133.347 181.667 133.072 182.006 133.072C182.345 133.072 182.62 133.347 182.62 133.686V148.43C182.62 148.769 182.345 149.044 182.006 149.044Z" fill="white"/>
<path d="M189.378 141.672H174.634C174.295 141.672 174.02 141.397 174.02 141.058C174.02 140.719 174.295 140.444 174.634 140.444H189.378C189.717 140.444 189.992 140.719 189.992 141.058C189.992 141.397 189.717 141.672 189.378 141.672Z" fill="white"/>
<path d="M181.986 149.041C181.985 149.041 181.985 149.041 181.985 149.041C181.287 149.041 180.594 148.95 179.927 148.77C177.051 147.996 174.798 145.614 174.189 142.7C173.569 139.731 174.715 136.611 177.109 134.75C178.493 133.674 180.238 133.081 182.024 133.081C183.261 133.081 184.488 133.368 185.575 133.912C188.258 135.254 189.992 138.059 189.992 141.058C189.992 143.505 188.837 145.863 186.904 147.366C185.515 148.446 183.768 149.041 181.986 149.041ZM182.024 134.309C180.51 134.309 179.032 134.81 177.862 135.72C175.836 137.294 174.866 139.936 175.392 142.448C175.907 144.913 177.813 146.929 180.246 147.584C180.809 147.735 181.394 147.812 181.985 147.812C183.496 147.812 184.975 147.309 186.15 146.396C187.786 145.124 188.763 143.128 188.763 141.058C188.763 138.52 187.296 136.147 185.025 135.011C184.109 134.552 183.071 134.309 182.024 134.309Z" fill="white"/>
<path d="M142.537 89.6254C142.426 89.6254 142.314 89.5952 142.212 89.532C141.173 88.883 139.908 88.4846 138.23 88.2779C135.621 87.9563 133.1 88.4127 131.312 89.532C131.026 89.712 130.646 89.6247 130.466 89.3372C130.286 89.0494 130.373 88.6707 130.661 88.4907C132.684 87.225 135.497 86.7028 138.38 87.0588C140.242 87.2882 141.667 87.7431 142.863 88.4904C143.151 88.6701 143.239 89.0491 143.059 89.3369C142.942 89.5228 142.742 89.625 142.537 89.6254Z" fill="white"/>
<path d="M136.615 81.9108C134.372 81.9108 132.267 81.3746 130.661 80.3692C130.373 80.1893 130.286 79.8102 130.466 79.5227C130.646 79.2349 131.026 79.1477 131.312 79.328C133.101 80.447 135.622 80.9034 138.23 80.5821C139.908 80.3751 141.173 79.9764 142.212 79.3277C142.501 79.1477 142.88 79.2355 143.059 79.5234C143.239 79.8112 143.151 80.1899 142.863 80.3696C141.667 81.1166 140.242 81.5718 138.38 81.8015C137.787 81.8749 137.196 81.9108 136.615 81.9108Z" fill="white"/>
<path d="M136.784 92.4115C136.06 92.4115 135.347 92.108 134.723 91.5339C133.646 90.5434 133.149 89.1375 132.836 88.0235C132.514 86.8784 132.366 85.597 132.384 84.1055C132.4 82.7598 132.621 81.4096 133.026 80.2015C133.55 78.6338 134.265 77.5665 135.211 76.9387C135.697 76.6159 136.234 76.4448 136.762 76.4442C138.138 76.4457 139.07 77.5118 139.504 78.1467C140.179 79.136 140.633 80.3392 140.933 81.933C141.443 84.65 141.126 87.4983 140.061 89.7466C139.616 90.6883 138.817 91.8948 137.545 92.2941C137.297 92.3719 137.041 92.4115 136.784 92.4115ZM136.762 77.6725C136.477 77.6728 136.175 77.7729 135.89 77.9621C135.181 78.4327 134.625 79.2924 134.191 80.591C133.827 81.6799 133.627 82.9002 133.612 84.1199C133.596 85.4926 133.729 86.6607 134.018 87.6912C134.287 88.6489 134.705 89.8483 135.555 90.6297C136.07 91.103 136.653 91.2867 137.177 91.122C138.025 90.8557 138.61 89.9414 138.951 89.2214C139.906 87.2019 140.188 84.6279 139.725 82.16C139.458 80.7391 139.065 79.6837 138.489 78.8393C138.25 78.4886 137.603 77.6734 136.762 77.6725Z" fill="white"/>
<path d="M136.762 92.4158C136.423 92.4158 136.148 92.1406 136.148 91.8015V77.0582C136.148 76.7191 136.423 76.4438 136.762 76.4438C137.102 76.4438 137.377 76.7191 137.377 77.0582V91.8015C137.377 92.1406 137.102 92.4158 136.762 92.4158Z" fill="white"/>
<path d="M144.134 85.0442H129.391C129.052 85.0442 128.777 84.769 128.777 84.4299C128.777 84.0908 129.052 83.8156 129.391 83.8156H144.134C144.473 83.8156 144.749 84.0908 144.749 84.4299C144.749 84.769 144.473 85.0442 144.134 85.0442Z" fill="white"/>
<path d="M136.742 92.4127C136.742 92.4127 136.742 92.4127 136.742 92.4127C136.043 92.4127 135.351 92.3218 134.683 92.1421C131.807 91.3684 129.555 88.9858 128.946 86.0719C128.325 83.1032 129.471 79.9826 131.865 78.1215C133.249 77.0456 134.995 76.4528 136.781 76.4528C138.017 76.4528 139.245 76.7403 140.331 77.2836C143.014 78.6262 144.749 81.4311 144.749 84.4298C144.749 86.8766 143.594 89.2349 141.66 90.7381C140.271 91.8181 138.524 92.4127 136.742 92.4127ZM136.781 77.6814C135.267 77.6814 133.789 78.182 132.619 79.0915C130.593 80.6663 129.623 83.3078 130.148 85.8203C130.664 88.2852 132.569 90.301 135.002 90.9556C135.566 91.107 136.151 91.1841 136.742 91.1841C138.252 91.1841 139.731 90.6813 140.906 89.7681C142.543 88.4959 143.52 86.5 143.52 84.4298C143.52 81.8924 142.053 79.5188 139.782 78.3826C138.865 77.924 137.827 77.6814 136.781 77.6814Z" fill="white"/>
<path d="M258.697 53.3255C258.586 53.3255 258.474 53.2954 258.372 53.2321C257.333 52.5831 256.068 52.1847 254.39 51.978C251.781 51.6564 249.26 52.1128 247.472 53.2321C247.186 53.4121 246.806 53.3249 246.626 53.0374C246.446 52.7496 246.533 52.3709 246.821 52.1909C248.844 50.9251 251.656 50.4029 254.54 50.7589C256.402 50.9884 257.826 51.4433 259.023 52.1906C259.311 52.3702 259.398 52.7493 259.219 53.0371C259.102 53.2229 258.902 53.3252 258.697 53.3255Z" fill="white"/>
<path d="M252.774 45.6109C250.532 45.6109 248.427 45.0746 246.821 44.0693C246.533 43.8893 246.446 43.5103 246.626 43.2228C246.806 42.935 247.186 42.8478 247.472 43.0281C249.261 44.147 251.782 44.6035 254.389 44.2822C256.068 44.0752 257.333 43.6765 258.372 43.0278C258.661 42.8478 259.039 42.9356 259.219 43.2234C259.398 43.5112 259.311 43.8899 259.023 44.0696C257.826 44.8166 256.402 45.2718 254.54 45.5016C253.947 45.575 253.356 45.6109 252.774 45.6109Z" fill="white"/>
<path d="M252.944 56.1115C252.22 56.1115 251.507 55.8081 250.883 55.234C249.806 54.2434 249.308 52.8376 248.995 51.7236C248.674 50.5785 248.526 49.2971 248.544 47.8055C248.56 46.4599 248.781 45.1097 249.186 43.9016C249.71 42.3339 250.425 41.2666 251.371 40.6387C251.857 40.3159 252.393 40.1448 252.922 40.1442C254.298 40.1458 255.23 41.2119 255.664 41.8468C256.339 42.8361 256.793 44.0392 257.093 45.633C257.603 48.3501 257.285 51.1983 256.221 53.4467C255.776 54.3884 254.977 55.5949 253.705 55.9942C253.457 56.0719 253.201 56.1115 252.944 56.1115ZM252.922 41.3725C252.637 41.3728 252.335 41.473 252.05 41.6622C251.341 42.1327 250.785 42.9925 250.351 44.2911C249.987 45.3799 249.787 46.6003 249.772 47.82C249.756 49.1926 249.889 50.3607 250.178 51.3912C250.447 52.3489 250.865 53.5484 251.715 54.3298C252.23 54.8031 252.812 54.9868 253.337 54.8221C254.185 54.5558 254.77 53.6414 255.111 52.9215C256.066 50.9019 256.348 48.328 255.885 45.86C255.618 44.4391 255.225 43.3838 254.649 42.5394C254.41 42.1886 253.762 41.3735 252.922 41.3725Z" fill="white"/>
<path d="M252.923 56.1158C252.584 56.1158 252.308 55.8406 252.308 55.5015V40.7582C252.308 40.4191 252.584 40.1439 252.923 40.1439C253.262 40.1439 253.537 40.4191 253.537 40.7582V55.5015C253.537 55.8406 253.262 56.1158 252.923 56.1158Z" fill="white"/>
<path d="M260.294 48.7442H245.551C245.211 48.7442 244.936 48.469 244.936 48.1299C244.936 47.7908 245.211 47.5156 245.551 47.5156H260.294C260.633 47.5156 260.908 47.7908 260.908 48.1299C260.908 48.469 260.633 48.7442 260.294 48.7442Z" fill="white"/>
<path d="M252.902 56.1127C252.901 56.1127 252.901 56.1127 252.901 56.1127C252.203 56.1127 251.51 56.0218 250.843 55.8421C247.967 55.0684 245.715 52.6858 245.105 49.7719C244.485 46.8032 245.631 43.6826 248.025 41.8215C249.409 40.7456 251.155 40.1528 252.94 40.1528C254.177 40.1528 255.404 40.4403 256.491 40.9836C259.174 42.3262 260.908 45.1311 260.908 48.1298C260.908 50.5766 259.754 52.9349 257.82 54.4381C256.431 55.5181 254.684 56.1127 252.902 56.1127ZM252.94 41.3814C251.426 41.3814 249.948 41.882 248.779 42.7915C246.752 44.3663 245.783 47.0078 246.308 49.5203C246.823 51.9852 248.729 54.001 251.162 54.6556C251.725 54.807 252.311 54.8841 252.901 54.8841C254.412 54.8841 255.891 54.3813 257.066 53.4681C258.702 52.1959 259.68 50.2 259.68 48.1298C259.68 45.5924 258.212 43.2188 255.941 42.0826C255.025 41.624 253.987 41.3814 252.94 41.3814Z" fill="white"/>
<path d="M27.8296 32.9973C27.7187 32.9973 27.606 32.9672 27.5046 32.9039C26.4655 32.2549 25.2001 31.8565 23.5221 31.6498C20.9131 31.3282 18.3926 31.7847 16.6047 32.9039C16.3178 33.0839 15.9385 32.9967 15.7582 32.7092C15.5782 32.4214 15.6654 32.0427 15.9532 31.8627C17.9758 30.5969 20.7887 30.0747 23.6723 30.4307C25.5346 30.6602 26.9588 31.1151 28.1555 31.8624C28.4433 32.0421 28.5308 32.4211 28.3511 32.7089C28.2347 32.8947 28.0345 32.997 27.8296 32.9973Z" fill="white"/>
<path d="M21.9068 25.2829C19.6643 25.2829 17.5596 24.7466 15.9532 23.7413C15.6654 23.5613 15.5782 23.1822 15.7582 22.8947C15.9385 22.6069 16.3178 22.5197 16.6047 22.7C18.393 23.819 20.9147 24.2754 23.5218 23.9541C25.2001 23.7471 26.4655 23.3484 27.5046 22.6997C27.793 22.5197 28.1718 22.6076 28.3511 22.8954C28.5308 23.1832 28.4433 23.5619 28.1555 23.7416C26.9588 24.4886 25.5346 24.9438 23.6723 25.1735C23.0792 25.2469 22.4882 25.2829 21.9068 25.2829Z" fill="white"/>
<path d="M22.0757 35.7835C21.3523 35.7835 20.6394 35.4801 20.0153 34.906C18.9378 33.9154 18.4405 32.5096 18.1275 31.3956C17.8056 30.2505 17.6582 28.9691 17.6757 27.4775C17.6917 26.1319 17.9134 24.7816 18.318 23.5736C18.8423 22.0059 19.557 20.9386 20.5027 20.3107C20.9893 19.9879 21.5256 19.8168 22.0542 19.8162C23.4299 19.8178 24.3624 20.8839 24.7958 21.5188C25.4709 22.5081 25.9252 23.7112 26.2247 25.305C26.7349 28.0221 26.4176 30.8703 25.3533 33.1187C24.9076 34.0604 24.109 35.2669 22.8371 35.6662C22.5889 35.7439 22.3328 35.7835 22.0757 35.7835ZM22.0542 21.0445C21.7688 21.0448 21.4672 21.145 21.1822 21.3342C20.4729 21.8047 19.9173 22.6644 19.483 23.9631C19.1187 25.0519 18.9188 26.2723 18.9043 27.492C18.8877 28.8646 19.0207 30.0327 19.3104 31.0632C19.5794 32.0209 19.9972 33.2204 20.8468 34.0018C21.3618 34.4751 21.9445 34.6588 22.4688 34.4941C23.3175 34.2278 23.9017 33.3134 24.2426 32.5935C25.1982 30.5739 25.4805 28 25.017 25.532C24.75 24.1111 24.3572 23.0558 23.7807 22.2114C23.5417 21.8606 22.8945 21.0454 22.0542 21.0445Z" fill="white"/>
<path d="M22.0547 35.7878C21.7156 35.7878 21.4404 35.5126 21.4404 35.1735V20.4302C21.4404 20.0911 21.7156 19.8159 22.0547 19.8159C22.3938 19.8159 22.669 20.0911 22.669 20.4302V35.1735C22.669 35.5126 22.3938 35.7878 22.0547 35.7878Z" fill="white"/>
<path d="M29.4262 28.4161H14.6829C14.3438 28.4161 14.0686 28.1409 14.0686 27.8018C14.0686 27.4627 14.3438 27.1875 14.6829 27.1875H29.4262C29.7653 27.1875 30.0405 27.4627 30.0405 27.8018C30.0405 28.1409 29.7653 28.4161 29.4262 28.4161Z" fill="white"/>
<path d="M22.0339 35.7847C22.0336 35.7847 22.0336 35.7847 22.0332 35.7847C21.3351 35.7847 20.6425 35.6937 19.975 35.5141C17.0992 34.7403 14.8468 32.3578 14.2374 29.4438C13.617 26.4752 14.763 23.3545 17.1569 21.4935C18.5412 20.4175 20.2868 19.8247 22.0726 19.8247C23.3089 19.8247 24.5365 20.1122 25.6232 20.6556C28.3062 21.9981 30.0404 24.803 30.0404 27.8018C30.0404 30.2485 28.8858 32.6069 26.952 34.1101C25.563 35.19 23.816 35.7847 22.0339 35.7847ZM22.0723 21.0533C20.5583 21.0533 19.0803 21.554 17.9106 22.4635C15.8844 24.0382 14.9147 26.6797 15.4399 29.1922C15.9553 31.6571 17.8609 33.673 20.2942 34.3275C20.8575 34.4789 21.4426 34.556 22.0336 34.556C23.5441 34.556 25.0231 34.0532 26.1979 33.1401C27.8344 31.8678 28.8118 29.872 28.8118 27.8018C28.8118 25.2644 27.3445 22.8907 25.0734 21.7545C24.1569 21.296 23.119 21.0533 22.0723 21.0533Z" fill="white"/>
<mask id="mask0_4_2514" style="mask-type:luminance" maskUnits="userSpaceOnUse" x="130" y="208" width="19" height="19">
<path d="M130.229 208.576H148.137V226.484H130.229V208.576Z" fill="white"/>
</mask>
<g mask="url(#mask0_4_2514)">
<path d="M145.513 211.724H141.316C141.026 211.724 140.791 211.489 140.791 211.199C140.791 210.909 141.026 210.675 141.316 210.675H145.513C145.803 210.675 146.038 210.909 146.038 211.199C146.038 211.489 145.803 211.724 145.513 211.724ZM137.049 211.724C136.759 211.724 136.524 211.489 136.524 211.199C136.524 210.909 136.759 210.675 137.049 210.675C137.338 210.675 137.573 210.909 137.573 211.199C137.573 211.489 137.338 211.724 137.049 211.724ZM134.95 211.724C134.66 211.724 134.425 211.489 134.425 211.199C134.425 210.909 134.66 210.675 134.95 210.675C135.24 210.675 135.475 210.909 135.475 211.199C135.475 211.489 135.24 211.724 134.95 211.724ZM132.852 211.724C132.562 211.724 132.327 211.489 132.327 211.199C132.327 210.909 132.562 210.675 132.852 210.675C133.141 210.675 133.376 210.909 133.376 211.199C133.376 211.489 133.141 211.724 132.852 211.724ZM146.562 208.576H131.802C130.934 208.576 130.228 209.282 130.228 210.15V212.248C130.228 213.116 130.934 213.822 131.802 213.822H146.562C147.43 213.822 148.136 213.116 148.136 212.248V210.15C148.136 209.282 147.43 208.576 146.562 208.576Z" fill="white"/>
<path d="M145.513 218.055H141.316C141.026 218.055 140.791 217.82 140.791 217.53C140.791 217.24 141.026 217.005 141.316 217.005H145.513C145.803 217.005 146.038 217.24 146.038 217.53C146.038 217.82 145.803 218.055 145.513 218.055ZM137.049 218.055C136.759 218.055 136.524 217.82 136.524 217.53C136.524 217.24 136.759 217.005 137.049 217.005C137.338 217.005 137.573 217.24 137.573 217.53C137.573 217.82 137.338 218.055 137.049 218.055ZM134.95 218.055C134.66 218.055 134.425 217.82 134.425 217.53C134.425 217.24 134.66 217.005 134.95 217.005C135.24 217.005 135.475 217.24 135.475 217.53C135.475 217.82 135.24 218.055 134.95 218.055ZM132.852 218.055C132.562 218.055 132.327 217.82 132.327 217.53C132.327 217.24 132.562 217.005 132.852 217.005C133.141 217.005 133.376 217.24 133.376 217.53C133.376 217.82 133.141 218.055 132.852 218.055ZM146.562 214.907H131.802C130.934 214.907 130.228 215.613 130.228 216.481V218.579C130.228 219.447 130.934 220.153 131.802 220.153H146.562C147.43 220.153 148.136 219.447 148.136 218.579V216.481C148.136 215.613 147.43 214.907 146.562 214.907Z" fill="white"/>
<path d="M145.514 224.385H141.317C141.027 224.385 140.792 224.151 140.792 223.861C140.792 223.571 141.027 223.336 141.317 223.336H145.514C145.804 223.336 146.038 223.571 146.038 223.861C146.038 224.151 145.804 224.385 145.514 224.385ZM137.049 224.385C136.76 224.385 136.525 224.15 136.525 223.861C136.525 223.571 136.76 223.336 137.049 223.336C137.339 223.336 137.574 223.571 137.574 223.861C137.574 224.15 137.339 224.385 137.049 224.385ZM134.951 224.385C134.661 224.385 134.426 224.15 134.426 223.861C134.426 223.571 134.661 223.336 134.951 223.336C135.241 223.336 135.475 223.571 135.475 223.861C135.475 224.15 135.241 224.385 134.951 224.385ZM132.852 224.385C132.562 224.385 132.328 224.15 132.328 223.861C132.328 223.571 132.562 223.336 132.852 223.336C133.142 223.336 133.377 223.571 133.377 223.861C133.377 224.15 133.142 224.385 132.852 224.385ZM146.563 221.237H131.803C130.935 221.237 130.229 221.943 130.229 222.811V224.91C130.229 225.778 130.935 226.484 131.803 226.484H146.563C147.431 226.484 148.137 225.778 148.137 224.91V222.811C148.137 221.943 147.431 221.237 146.563 221.237Z" fill="white"/>
</g>
<path d="M160.331 251.288C161.471 251.288 162.241 252.158 162.241 253.378V256.808H161.131V253.648C161.131 252.778 160.751 252.288 160.081 252.288C159.361 252.288 158.811 252.938 158.811 253.858V256.808H157.731V253.648C157.731 252.778 157.351 252.288 156.681 252.288C155.961 252.288 155.411 252.938 155.411 253.858V256.808H154.301V251.408H155.081L155.271 252.108C155.681 251.608 156.301 251.288 156.951 251.288C157.681 251.288 158.261 251.648 158.571 252.238C158.961 251.658 159.621 251.288 160.331 251.288Z" fill="white"/>
<path d="M153.122 254.128C153.122 254.248 153.112 254.368 153.092 254.488H148.712C148.852 255.368 149.482 255.908 150.362 255.908C151.012 255.908 151.532 255.608 151.822 255.108H152.992C152.562 256.248 151.572 256.948 150.362 256.948C148.782 256.948 147.592 255.728 147.592 254.108C147.592 252.498 148.782 251.278 150.362 251.278C152.022 251.278 153.122 252.558 153.122 254.128ZM150.362 252.288C149.532 252.288 148.922 252.788 148.742 253.588H152.002C151.802 252.768 151.192 252.288 150.362 252.288Z" fill="white"/>
<path d="M146.086 251.408H147.226L145.006 256.808H143.996L141.716 251.408H142.886L144.506 255.418L146.086 251.408Z" fill="white"/>
<path d="M138.448 256.948C136.958 256.948 135.988 255.988 135.988 254.528V251.408H137.098V254.378C137.098 255.318 137.608 255.888 138.448 255.888C139.288 255.888 139.788 255.308 139.788 254.378V251.408H140.898V254.528C140.898 255.988 139.938 256.948 138.448 256.948Z" fill="white"/>
<path d="M132.512 251.288C133.782 251.288 134.572 252.228 134.572 253.558V256.808H133.462V253.788C133.462 252.808 133.032 252.288 132.222 252.288C131.372 252.288 130.772 252.968 130.772 253.918V256.808H129.662V251.408H130.432L130.652 252.168C131.052 251.618 131.722 251.288 132.512 251.288Z" fill="white"/>
<path d="M124.7 251.408H125.55V256.808H124.66L124.55 256.158C124.06 256.648 123.38 256.948 122.59 256.948C120.98 256.948 119.78 255.728 119.78 254.108C119.78 252.488 120.98 251.278 122.59 251.278C123.39 251.278 124.08 251.578 124.57 252.088L124.7 251.408ZM122.68 255.878C123.7 255.878 124.44 255.128 124.44 254.108C124.44 253.088 123.7 252.338 122.68 252.338C121.66 252.338 120.91 253.098 120.91 254.108C120.91 255.118 121.66 255.878 122.68 255.878Z" fill="white"/>
<path d="M116.613 251.288C117.883 251.288 118.673 252.228 118.673 253.558V256.808H117.563V253.788C117.563 252.808 117.133 252.288 116.323 252.288C115.473 252.288 114.873 252.968 114.873 253.918V256.808H113.763V251.408H114.533L114.753 252.168C115.153 251.618 115.823 251.288 116.613 251.288Z" fill="white"/>
<path d="M157.292 239.128C157.292 239.248 157.282 239.368 157.262 239.488H152.882C153.022 240.368 153.652 240.908 154.532 240.908C155.182 240.908 155.702 240.608 155.992 240.108H157.162C156.732 241.248 155.742 241.948 154.532 241.948C152.952 241.948 151.762 240.728 151.762 239.108C151.762 237.498 152.952 236.278 154.532 236.278C156.192 236.278 157.292 237.558 157.292 239.128ZM154.532 237.288C153.702 237.288 153.092 237.788 152.912 238.588H156.172C155.972 237.768 155.362 237.288 154.532 237.288Z" fill="white"/>
<path d="M150.519 240.808H151.139V241.808H150.309C149.129 241.808 148.399 241.078 148.399 239.888V237.368H147.429V237.148L149.309 235.148H149.499V236.408H151.109V237.368H149.509V239.798C149.509 240.448 149.869 240.808 150.519 240.808Z" fill="white"/>
<path d="M145.413 235.578V234.428H146.553V235.578H145.413ZM145.433 241.808V236.408H146.543V241.808H145.433Z" fill="white"/>
<path d="M142.048 241.948C140.738 241.948 139.878 241.218 139.848 240.098H140.928C140.958 240.668 141.438 240.968 142.088 240.968C142.688 240.968 143.148 240.718 143.148 240.268C143.148 239.748 142.568 239.638 141.908 239.528C141.008 239.368 139.948 239.168 139.948 237.918C139.948 236.948 140.778 236.278 142.038 236.278C143.288 236.278 144.108 236.968 144.128 238.008H143.078C143.058 237.498 142.658 237.218 142.008 237.218C141.398 237.218 141.018 237.488 141.018 237.878C141.018 238.358 141.568 238.448 142.218 238.558C143.128 238.708 144.238 238.888 144.238 240.218C144.238 241.268 143.368 241.948 142.048 241.948Z" fill="white"/>
<path d="M133.79 241.948C132.3 241.948 131.33 240.988 131.33 239.528V236.408H132.44V239.378C132.44 240.318 132.95 240.888 133.79 240.888C134.63 240.888 135.13 240.308 135.13 239.378V236.408H136.24V239.528C136.24 240.988 135.28 241.948 133.79 241.948Z" fill="white"/>
<path d="M130.241 239.128C130.241 239.248 130.231 239.368 130.211 239.488H125.831C125.971 240.368 126.601 240.908 127.481 240.908C128.131 240.908 128.651 240.608 128.941 240.108H130.111C129.681 241.248 128.691 241.948 127.481 241.948C125.901 241.948 124.711 240.728 124.711 239.108C124.711 237.498 125.901 236.278 127.481 236.278C129.141 236.278 130.241 237.558 130.241 239.128ZM127.481 237.288C126.651 237.288 126.041 237.788 125.861 238.588H129.121C128.921 237.768 128.311 237.288 127.481 237.288Z" fill="white"/>
<path d="M121.327 241.918C119.757 241.918 118.687 241.038 118.687 239.608H119.857C119.857 240.388 120.497 240.828 121.317 240.828C122.067 240.828 122.697 240.428 122.697 239.788C122.697 239.088 121.947 238.918 121.107 238.718C120.037 238.458 118.807 238.158 118.807 236.718C118.807 235.458 119.767 234.708 121.257 234.708C122.777 234.708 123.677 235.538 123.677 236.858H122.537C122.537 236.158 121.957 235.778 121.227 235.778C120.527 235.778 119.957 236.098 119.957 236.668C119.957 237.318 120.677 237.488 121.507 237.688C122.597 237.958 123.877 238.268 123.877 239.778C123.877 241.178 122.747 241.918 121.327 241.918Z" fill="white"/>
<path d="M205.558 117.85C206.598 118.03 207.288 118.85 207.288 119.92C207.288 121.2 206.308 122.12 204.998 122.12C203.738 122.12 202.818 121.25 202.768 120H203.838C203.878 120.66 204.348 121.11 204.998 121.11C205.698 121.11 206.198 120.6 206.198 119.88C206.198 119.17 205.658 118.68 204.898 118.68H204.058V118.48L205.438 116.34H202.958V115.35H207.028V115.58L205.558 117.85Z" fill="white"/>
<path d="M196.546 122.14C194.886 122.14 193.656 120.93 193.656 119.3C193.656 117.67 194.886 116.47 196.546 116.47C198.196 116.47 199.426 117.68 199.426 119.3C199.426 120.93 198.196 122.14 196.546 122.14ZM196.546 121.08C197.566 121.08 198.296 120.34 198.296 119.3C198.296 118.27 197.566 117.53 196.546 117.53C195.516 117.53 194.786 118.27 194.786 119.3C194.786 120.34 195.516 121.08 196.546 121.08Z" fill="white"/>
<path d="M191.35 115.77V114.62H192.49V115.77H191.35ZM191.37 122V116.6H192.48V122H191.37Z" fill="white"/>
<path d="M190.025 116.57H190.505V117.62H189.915C188.995 117.62 188.545 118.15 188.545 119.13V122H187.435V116.6H188.185L188.365 117.34C188.755 116.83 189.285 116.57 190.025 116.57Z" fill="white"/>
<path d="M184.312 114.47L183.362 115.99H182.512L183.132 114.47H184.312ZM184.992 116.6H185.842V122H184.952L184.842 121.35C184.352 121.84 183.672 122.14 182.882 122.14C181.272 122.14 180.072 120.92 180.072 119.3C180.072 117.68 181.272 116.47 182.882 116.47C183.682 116.47 184.372 116.77 184.862 117.28L184.992 116.6ZM182.972 121.07C183.992 121.07 184.732 120.32 184.732 119.3C184.732 118.28 183.992 117.53 182.972 117.53C181.952 117.53 181.202 118.29 181.202 119.3C181.202 120.31 181.952 121.07 182.972 121.07Z" fill="white"/>
<path d="M176.523 122.14C175.033 122.14 174.063 121.18 174.063 119.72V116.6H175.173V119.57C175.173 120.51 175.683 121.08 176.523 121.08C177.363 121.08 177.863 120.5 177.863 119.57V116.6H178.973V119.72C178.973 121.18 178.013 122.14 176.523 122.14Z" fill="white"/>
<path d="M170.768 122.14C169.458 122.14 168.598 121.41 168.568 120.29H169.648C169.678 120.86 170.158 121.16 170.808 121.16C171.408 121.16 171.868 120.91 171.868 120.46C171.868 119.94 171.288 119.83 170.628 119.72C169.728 119.56 168.668 119.36 168.668 118.11C168.668 117.14 169.498 116.47 170.758 116.47C172.008 116.47 172.828 117.16 172.848 118.2H171.798C171.778 117.69 171.378 117.41 170.728 117.41C170.118 117.41 169.738 117.68 169.738 118.07C169.738 118.55 170.288 118.64 170.938 118.75C171.848 118.9 172.958 119.08 172.958 120.41C172.958 121.46 172.088 122.14 170.768 122.14Z" fill="white"/>
<path d="M164.62 122.14C163.01 122.14 161.81 121 161.81 119.39V115H162.96V119.32C162.96 120.35 163.65 121.03 164.62 121.03C165.59 121.03 166.27 120.35 166.27 119.32V115H167.43V119.39C167.43 121 166.23 122.14 164.62 122.14Z" fill="white"/>
<path d="M157.758 64.98H160.238V66H155.688V65.71C158.598 62.54 158.948 61.99 158.948 61.23C158.948 60.64 158.548 60.25 157.948 60.25C157.328 60.25 156.908 60.65 156.908 61.24V61.39H155.828V61.23C155.828 60.04 156.678 59.23 157.948 59.23C159.178 59.23 160.038 60.05 160.038 61.22C160.038 62.1 159.698 62.81 157.758 64.98Z" fill="white"/>
<path d="M149.546 66.14C147.886 66.14 146.656 64.93 146.656 63.3C146.656 61.67 147.886 60.47 149.546 60.47C151.196 60.47 152.426 61.68 152.426 63.3C152.426 64.93 151.196 66.14 149.546 66.14ZM149.546 65.08C150.566 65.08 151.296 64.34 151.296 63.3C151.296 62.27 150.566 61.53 149.546 61.53C148.516 61.53 147.786 62.27 147.786 63.3C147.786 64.34 148.516 65.08 149.546 65.08Z" fill="white"/>
<path d="M144.35 59.77V58.62H145.49V59.77H144.35ZM144.37 66V60.6H145.48V66H144.37Z" fill="white"/>
<path d="M143.025 60.5699H143.505V61.6199H142.915C141.995 61.6199 141.545 62.1499 141.545 63.1299V65.9999H140.435V60.5999H141.185L141.365 61.3399C141.755 60.8299 142.285 60.5699 143.025 60.5699Z" fill="white"/>
<path d="M137.312 58.47L136.362 59.99H135.512L136.132 58.47H137.312ZM137.992 60.6H138.842V66H137.952L137.842 65.35C137.352 65.84 136.672 66.14 135.882 66.14C134.272 66.14 133.072 64.92 133.072 63.3C133.072 61.68 134.272 60.47 135.882 60.47C136.682 60.47 137.372 60.77 137.862 61.28L137.992 60.6ZM135.972 65.07C136.992 65.07 137.732 64.32 137.732 63.3C137.732 62.28 136.992 61.53 135.972 61.53C134.952 61.53 134.202 62.29 134.202 63.3C134.202 64.31 134.952 65.07 135.972 65.07Z" fill="white"/>
<path d="M129.523 66.14C128.033 66.14 127.063 65.18 127.063 63.72V60.6H128.173V63.57C128.173 64.51 128.683 65.08 129.523 65.08C130.363 65.08 130.863 64.5 130.863 63.57V60.6H131.973V63.72C131.973 65.18 131.013 66.14 129.523 66.14Z" fill="white"/>
<path d="M123.768 66.14C122.458 66.14 121.598 65.41 121.568 64.29H122.648C122.678 64.86 123.158 65.16 123.808 65.16C124.408 65.16 124.868 64.91 124.868 64.46C124.868 63.94 124.288 63.83 123.628 63.72C122.728 63.56 121.668 63.36 121.668 62.11C121.668 61.14 122.498 60.47 123.758 60.47C125.008 60.47 125.828 61.16 125.848 62.2H124.798C124.778 61.69 124.378 61.41 123.728 61.41C123.118 61.41 122.738 61.68 122.738 62.07C122.738 62.55 123.288 62.64 123.938 62.75C124.848 62.9 125.958 63.08 125.958 64.41C125.958 65.46 125.088 66.14 123.768 66.14Z" fill="white"/>
<path d="M117.62 66.14C116.01 66.14 114.81 65 114.81 63.39V59H115.96V63.32C115.96 64.35 116.65 65.03 117.62 65.03C118.59 65.03 119.27 64.35 119.27 63.32V59H120.43V63.39C120.43 65 119.23 66.14 117.62 66.14Z" fill="white"/>
<path d="M41.6277 1.34998H43.8677V7.99998H42.8077V2.32998H41.6277V1.34998Z" fill="white"/>
<path d="M35.5458 8.13997C33.8858 8.13997 32.6558 6.92997 32.6558 5.29997C32.6558 3.66997 33.8858 2.46997 35.5458 2.46997C37.1958 2.46997 38.4258 3.67997 38.4258 5.29997C38.4258 6.92997 37.1958 8.13997 35.5458 8.13997ZM35.5458 7.07997C36.5658 7.07997 37.2958 6.33997 37.2958 5.29997C37.2958 4.26997 36.5658 3.52997 35.5458 3.52997C34.5158 3.52997 33.7858 4.26997 33.7858 5.29997C33.7858 6.33997 34.5158 7.07997 35.5458 7.07997Z" fill="white"/>
<path d="M30.3501 1.77V0.619995H31.4901V1.77H30.3501ZM30.3701 8V2.6H31.4801V8H30.3701Z" fill="white"/>
<path d="M29.0246 2.56995H29.5046V3.61995H28.9146C27.9946 3.61995 27.5446 4.14995 27.5446 5.12995V7.99995H26.4346V2.59995H27.1846L27.3646 3.33995C27.7546 2.82995 28.2846 2.56995 29.0246 2.56995Z" fill="white"/>
<path d="M23.3118 0.469971L22.3618 1.98997H21.5118L22.1318 0.469971H23.3118ZM23.9918 2.59997H24.8418V7.99997H23.9518L23.8418 7.34997C23.3518 7.83997 22.6718 8.13997 21.8818 8.13997C20.2718 8.13997 19.0718 6.91997 19.0718 5.29997C19.0718 3.67997 20.2718 2.46997 21.8818 2.46997C22.6818 2.46997 23.3718 2.76997 23.8618 3.27997L23.9918 2.59997ZM21.9718 7.06997C22.9918 7.06997 23.7318 6.31997 23.7318 5.29997C23.7318 4.27997 22.9918 3.52997 21.9718 3.52997C20.9518 3.52997 20.2018 4.28997 20.2018 5.29997C20.2018 6.30997 20.9518 7.06997 21.9718 7.06997Z" fill="white"/>
<path d="M15.5232 8.13998C14.0332 8.13998 13.0632 7.17998 13.0632 5.71998V2.59998H14.1732V5.56998C14.1732 6.50998 14.6832 7.07998 15.5232 7.07998C16.3632 7.07998 16.8632 6.49998 16.8632 5.56998V2.59998H17.9732V5.71998C17.9732 7.17998 17.0132 8.13998 15.5232 8.13998Z" fill="white"/>
<path d="M9.76763 8.13997C8.45763 8.13997 7.59763 7.40997 7.56763 6.28997H8.64763C8.67763 6.85997 9.15763 7.15997 9.80763 7.15997C10.4076 7.15997 10.8676 6.90997 10.8676 6.45997C10.8676 5.93997 10.2876 5.82997 9.62763 5.71997C8.72763 5.55997 7.66763 5.35997 7.66763 4.10997C7.66763 3.13997 8.49763 2.46997 9.75763 2.46997C11.0076 2.46997 11.8276 3.15997 11.8476 4.19997H10.7976C10.7776 3.68997 10.3776 3.40997 9.72763 3.40997C9.11763 3.40997 8.73763 3.67997 8.73763 4.06997C8.73763 4.54997 9.28763 4.63997 9.93763 4.74997C10.8476 4.89997 11.9576 5.07997 11.9576 6.40997C11.9576 7.45997 11.0876 8.13997 9.76763 8.13997Z" fill="white"/>
<path d="M3.62006 8.14C2.01006 8.14 0.810059 7 0.810059 5.39V1H1.96006V5.32C1.96006 6.35 2.65006 7.03 3.62006 7.03C4.59006 7.03 5.27006 6.35 5.27006 5.32V1H6.43006V5.39C6.43006 7 5.23006 8.14 3.62006 8.14Z" fill="white"/>
<path d="M275.528 31.7V32.66H274.878V34H273.848V32.66H270.528V32.44L272.808 27.35H273.908L271.958 31.7H273.868L274.038 29.85H274.878V31.7H275.528Z" fill="white"/>
<path d="M264.546 34.14C262.886 34.14 261.656 32.93 261.656 31.3C261.656 29.67 262.886 28.47 264.546 28.47C266.196 28.47 267.426 29.68 267.426 31.3C267.426 32.93 266.196 34.14 264.546 34.14ZM264.546 33.08C265.566 33.08 266.296 32.34 266.296 31.3C266.296 30.27 265.566 29.53 264.546 29.53C263.516 29.53 262.786 30.27 262.786 31.3C262.786 32.34 263.516 33.08 264.546 33.08Z" fill="white"/>
<path d="M259.35 27.77V26.62H260.49V27.77H259.35ZM259.37 34V28.6H260.48V34H259.37Z" fill="white"/>
<path d="M258.025 28.5699H258.505V29.6199H257.915C256.995 29.6199 256.545 30.1499 256.545 31.1299V33.9999H255.435V28.5999H256.185L256.365 29.3399C256.755 28.8299 257.285 28.5699 258.025 28.5699Z" fill="white"/>
<path d="M252.312 26.47L251.362 27.99H250.512L251.132 26.47H252.312ZM252.992 28.6H253.842V34H252.952L252.842 33.35C252.352 33.84 251.672 34.14 250.882 34.14C249.272 34.14 248.072 32.92 248.072 31.3C248.072 29.68 249.272 28.47 250.882 28.47C251.682 28.47 252.372 28.77 252.862 29.28L252.992 28.6ZM250.972 33.07C251.992 33.07 252.732 32.32 252.732 31.3C252.732 30.28 251.992 29.53 250.972 29.53C249.952 29.53 249.202 30.29 249.202 31.3C249.202 32.31 249.952 33.07 250.972 33.07Z" fill="white"/>
<path d="M244.523 34.14C243.033 34.14 242.063 33.18 242.063 31.72V28.6H243.173V31.57C243.173 32.51 243.683 33.08 244.523 33.08C245.363 33.08 245.863 32.5 245.863 31.57V28.6H246.973V31.72C246.973 33.18 246.013 34.14 244.523 34.14Z" fill="white"/>
<path d="M238.768 34.14C237.458 34.14 236.598 33.41 236.568 32.29H237.648C237.678 32.86 238.158 33.16 238.808 33.16C239.408 33.16 239.868 32.91 239.868 32.46C239.868 31.94 239.288 31.83 238.628 31.72C237.728 31.56 236.668 31.36 236.668 30.11C236.668 29.14 237.498 28.47 238.758 28.47C240.008 28.47 240.828 29.16 240.848 30.2H239.798C239.778 29.69 239.378 29.41 238.728 29.41C238.118 29.41 237.738 29.68 237.738 30.07C237.738 30.55 238.288 30.64 238.938 30.75C239.848 30.9 240.958 31.08 240.958 32.41C240.958 33.46 240.088 34.14 238.768 34.14Z" fill="white"/>
<path d="M232.62 34.14C231.01 34.14 229.81 33 229.81 31.39V27H230.96V31.32C230.96 32.35 231.65 33.03 232.62 33.03C233.59 33.03 234.27 32.35 234.27 31.32V27H235.43V31.39C235.43 33 234.23 34.14 232.62 34.14Z" fill="white"/>
</svg>
