<svg width="340" height="439" viewBox="0 0 340 439" fill="none" xmlns="http://www.w3.org/2000/svg">
<path fill-rule="evenodd" clip-rule="evenodd" d="M184.357 287.926L183.5 295.5L177.369 290.971L180.24 289.72C179.805 288.74 179.369 287.763 178.932 286.79L180.137 286.25C180.575 287.227 181.014 288.208 181.451 289.192L184.357 287.926ZM176.894 279.12C177.443 280.311 177.991 281.508 178.537 282.71L177.335 283.256C176.79 282.056 176.243 280.862 175.695 279.673L176.894 279.12ZM173.586 272.034C174.14 273.204 174.692 274.38 175.243 275.561L174.047 276.119C173.497 274.94 172.945 273.767 172.393 272.599L173.586 272.034ZM170.194 264.951C170.765 266.127 171.334 267.309 171.903 268.497L170.712 269.067C170.144 267.881 169.576 266.702 169.006 265.527L170.194 264.951ZM166.755 257.951C167.331 259.108 167.906 260.271 168.48 261.44L167.295 262.022C166.722 260.855 166.148 259.694 165.573 258.539L166.755 257.951ZM163.217 250.928C163.808 252.087 164.398 253.251 164.988 254.422L163.809 255.016C163.22 253.847 162.631 252.685 162.041 251.528L163.217 250.928ZM159.624 243.974C160.23 245.133 160.836 246.299 161.442 247.471L160.269 248.077C159.664 246.907 159.059 245.743 158.454 244.585L159.624 243.974ZM155.965 237.065C156.576 238.204 157.186 239.349 157.796 240.501L156.629 241.118C156.02 239.969 155.411 238.826 154.801 237.689L155.965 237.065ZM152.216 230.159C152.844 231.302 153.472 232.452 154.1 233.609L152.94 234.238C152.313 233.084 151.686 231.936 151.059 230.795L152.216 230.159ZM148.416 223.329C149.054 224.462 149.692 225.602 150.33 226.749L149.176 227.391C148.54 226.246 147.903 225.108 147.265 223.977L148.416 223.329ZM144.536 216.524C145.183 217.644 145.829 218.772 146.476 219.906L145.329 220.56C144.684 219.428 144.038 218.302 143.393 217.184L144.536 216.524ZM140.576 209.744C141.24 210.868 141.905 211.999 142.57 213.137L141.43 213.803C140.766 212.667 140.103 211.538 139.439 210.416L140.576 209.744ZM136.561 203.036C137.235 204.148 137.909 205.268 138.584 206.395L137.451 207.073C136.777 205.948 136.105 204.83 135.432 203.72L136.561 203.036ZM132.472 196.365C133.152 197.462 133.833 198.566 134.515 199.678L133.389 200.368C132.709 199.258 132.029 198.156 131.35 197.062L132.472 196.365ZM128.292 189.712C128.991 190.81 129.69 191.916 130.39 193.031L129.272 193.733C128.573 192.62 127.875 191.516 127.178 190.42L128.292 189.712ZM124.055 183.126C124.769 184.222 125.484 185.327 126.201 186.441L125.091 187.155C124.375 186.044 123.661 184.941 122.949 183.846L124.055 183.126ZM119.758 176.606C120.474 177.679 121.191 178.761 121.91 179.851L120.808 180.578C120.09 179.49 119.374 178.41 118.66 177.339L119.758 176.606ZM115.369 170.106C116.097 171.171 116.827 172.245 117.558 173.328L116.464 174.067C115.734 172.986 115.006 171.913 114.279 170.85L115.369 170.106ZM110.902 163.648C111.647 164.712 112.395 165.786 113.145 166.87L112.059 167.621C111.311 166.539 110.564 165.467 109.821 164.405L110.902 163.648ZM106.37 157.253C107.133 158.316 107.898 159.39 108.666 160.473L107.589 161.237C106.823 160.155 106.059 159.084 105.298 158.023L106.37 157.253ZM101.771 150.92C102.541 151.968 103.315 153.026 104.092 154.096L103.023 154.872C102.248 153.804 101.476 152.748 100.707 151.702L101.771 150.92ZM97.1018 144.646C97.8779 145.676 98.6581 146.718 99.4419 147.771L98.3829 148.559C97.6005 147.508 96.822 146.469 96.0474 145.441L97.1018 144.646ZM92.3592 138.429C93.1425 139.443 93.9305 140.47 94.7229 141.508L93.6733 142.309C92.8824 141.273 92.0961 140.248 91.3144 139.236L92.3592 138.429ZM87.5365 132.263C88.3295 133.264 89.1281 134.279 89.932 135.306L88.8921 136.12C88.0899 135.094 87.2929 134.082 86.5016 133.083L87.5365 132.263ZM82.6317 126.148C83.4369 127.139 84.2487 128.145 85.0668 129.165L84.037 129.991C83.2206 128.973 82.4105 127.97 81.6071 126.981L82.6317 126.148ZM77.6562 120.103C78.4714 121.08 79.2946 122.074 80.1255 123.084L79.1062 123.923C78.2771 122.915 77.4556 121.924 76.6421 120.948L77.6562 120.103ZM72.5921 114.108C73.4209 115.076 74.2594 116.062 75.1074 117.066L74.0989 117.918C73.2528 116.916 72.4161 115.932 71.5892 114.966L72.5921 114.108ZM67.4428 108.172C68.2878 109.133 69.1452 110.114 70.0144 111.116L69.0171 111.981C68.1499 110.982 67.2945 110.003 66.4514 109.044L67.4428 108.172ZM62.2191 102.312C63.0814 103.266 63.9597 104.244 64.8533 105.247L63.8677 106.125C62.9762 105.125 62.1 104.149 61.2397 103.197L62.2191 102.312ZM56.9424 96.5543C57.8075 97.4851 58.6932 98.4445 59.5987 99.4326L58.6253 100.325C57.722 99.3388 56.8384 98.3817 55.9754 97.4531L56.9424 96.5543ZM51.5496 90.8335C52.4206 91.7445 53.3204 92.6917 54.2477 93.6754L53.2871 94.581C52.362 93.5997 51.4643 92.6547 50.5954 91.7459L51.5496 90.8335ZM46.1082 85.2214C46.9755 86.1039 47.8866 87.0364 48.8396 88.0192L47.8918 88.9382C46.941 87.9577 46.032 87.0274 45.1666 86.1468L46.1082 85.2214ZM40.5681 79.6486C41.4119 80.4901 42.3401 81.4173 43.3482 82.4306L42.4122 83.3617C41.406 82.3502 40.4791 81.4244 39.6359 80.5835L40.5681 79.6486ZM36.4735 75.5406C36.8652 75.9437 37.321 76.4048 37.8392 76.9248L36.904 77.8567C36.3841 77.335 35.9239 76.8695 35.5266 76.4606L36.4735 75.5406Z" fill="#FF3C76"/>
<path fill-rule="evenodd" clip-rule="evenodd" d="M256.824 388.032L263 392.5L256.043 395.614L256.372 392.418C255.285 392.28 254.198 392.136 253.113 391.984L253.296 390.676C254.366 390.826 255.436 390.969 256.508 391.104L256.824 388.032ZM245.523 389.461C246.815 389.684 248.11 389.897 249.406 390.1L249.202 391.404C247.899 391.2 246.597 390.986 245.298 390.762L245.523 389.461ZM237.792 387.998C239.076 388.262 240.362 388.516 241.651 388.76L241.406 390.057C240.11 389.812 238.817 389.557 237.526 389.291L237.792 387.998ZM230.11 386.292C231.386 386.597 232.664 386.891 233.944 387.175L233.658 388.464C232.371 388.178 231.086 387.882 229.803 387.576L230.11 386.292ZM222.485 384.347C223.751 384.691 225.019 385.025 226.29 385.349L225.963 386.628C224.686 386.302 223.411 385.967 222.139 385.621L222.485 384.347ZM214.924 382.166C216.179 382.549 217.436 382.922 218.696 383.286L218.331 384.554C217.064 384.189 215.8 383.814 214.539 383.429L214.924 382.166ZM207.433 379.755C208.676 380.175 209.921 380.587 211.169 380.989L210.764 382.245C209.51 381.841 208.258 381.428 207.01 381.005L207.433 379.755ZM200.018 377.116C201.248 377.575 202.48 378.024 203.716 378.464L203.274 379.707C202.032 379.265 200.793 378.814 199.557 378.353L200.018 377.116ZM192.688 374.256C193.902 374.751 195.121 375.237 196.342 375.714L195.862 376.944C194.635 376.465 193.41 375.976 192.189 375.479L192.688 374.256ZM185.443 371.178C186.643 371.709 187.847 372.231 189.054 372.744L188.538 373.959C187.324 373.444 186.115 372.919 184.909 372.385L185.443 371.178ZM178.295 367.887C179.479 368.454 180.666 369.011 181.858 369.559L181.306 370.759C180.108 370.207 178.915 369.647 177.725 369.078L178.295 367.887ZM171.245 364.388C172.411 364.988 173.581 365.58 174.756 366.163L174.168 367.345C172.989 366.759 171.813 366.165 170.641 365.562L171.245 364.388ZM164.299 360.684C165.449 361.318 166.602 361.944 167.76 362.562L167.138 363.727C165.975 363.106 164.816 362.477 163.661 361.84L164.299 360.684ZM157.466 356.782C158.595 357.448 159.73 358.107 160.868 358.757L160.213 359.904C159.069 359.25 157.93 358.589 156.795 357.919L157.466 356.782ZM150.744 352.682C151.855 353.382 152.97 354.073 154.091 354.756L153.403 355.883C152.278 355.197 151.157 354.502 150.04 353.799L150.744 352.682ZM144.146 348.395C145.236 349.125 146.331 349.848 147.43 350.563L146.711 351.67C145.606 350.951 144.506 350.225 143.411 349.491L144.146 348.395ZM137.67 343.919C138.739 344.68 139.812 345.433 140.891 346.179L140.14 347.265C139.057 346.516 137.978 345.759 136.904 344.994L137.67 343.919ZM131.324 339.262C132.372 340.054 133.424 340.837 134.482 341.614L133.701 342.678C132.638 341.898 131.58 341.11 130.528 340.315L131.324 339.262ZM125.114 334.428C126.137 335.248 127.166 336.061 128.201 336.866L127.39 337.908C126.351 337.099 125.317 336.282 124.288 335.458L125.114 334.428ZM119.039 329.418C120.04 330.268 121.047 331.11 122.059 331.945L121.22 332.964C120.202 332.125 119.191 331.279 118.185 330.425L119.039 329.418ZM113.112 324.243C114.088 325.12 115.07 325.99 116.058 326.852L115.189 327.847C114.197 326.98 113.21 326.106 112.23 325.225L113.112 324.243ZM107.329 318.9C108.28 319.805 109.238 320.702 110.201 321.592L109.305 322.561C108.337 321.667 107.375 320.766 106.42 319.857L107.329 318.9ZM101.701 313.399C102.627 314.33 103.559 315.253 104.497 316.17L103.574 317.115C102.631 316.193 101.695 315.265 100.765 314.33L101.701 313.399ZM96.2292 307.741C97.1275 308.697 98.0323 309.645 98.9433 310.587L97.9943 311.505C97.0789 310.559 96.1699 309.605 95.2674 308.645L96.2292 307.741ZM90.9177 301.93C91.7898 302.911 92.6685 303.887 93.5538 304.855L92.5793 305.746C91.6899 304.773 90.8069 303.793 89.9307 302.807L90.9177 301.93ZM85.7748 295.974C86.6181 296.979 87.4682 297.978 88.325 298.97L87.3258 299.833C86.4649 298.836 85.6108 297.833 84.7635 296.823L85.7748 295.974ZM80.7989 289.871C81.6141 290.901 82.4364 291.924 83.2655 292.941L82.2423 293.775C81.4092 292.753 80.5831 291.725 79.764 290.691L80.7989 289.871ZM76.0017 283.635C76.787 284.686 77.5795 285.732 78.379 286.771L77.3326 287.576C76.5292 286.532 75.733 285.481 74.944 284.425L76.0017 283.635ZM71.3816 277.261C72.1362 278.334 72.8983 279.401 73.6676 280.463L72.5987 281.238C71.8257 280.171 71.06 279.099 70.3017 278.021L71.3816 277.261ZM66.9457 270.759C67.67 271.854 68.4019 272.944 69.1413 274.028L68.0507 274.772C67.3078 273.683 66.5724 272.588 65.8446 271.488L66.9457 270.759ZM62.6989 264.135C63.3907 265.249 64.0901 266.357 64.7972 267.46L63.6857 268.173C62.9753 267.064 62.2724 265.95 61.5773 264.831L62.6989 264.135ZM58.6417 257.385C59.3022 258.521 59.9707 259.651 60.6469 260.776L59.5154 261.456C58.8359 260.326 58.1642 259.19 57.5005 258.049L58.6417 257.385ZM54.7856 250.53C55.4122 251.682 56.0467 252.83 56.6892 253.972L55.5385 254.619C54.8929 253.471 54.2553 252.318 53.6257 251.16L54.7856 250.53ZM51.1262 243.557C51.7194 244.729 52.3208 245.895 52.9304 247.056L51.7614 247.67C51.1489 246.503 50.5445 245.331 49.9484 244.154L51.1262 243.557ZM47.6752 236.488C48.2338 237.676 48.8007 238.859 49.3759 240.037L48.1895 240.616C47.6115 239.432 47.0418 238.243 46.4805 237.05L47.6752 236.488ZM44.431 229.317C44.9538 230.519 45.4851 231.717 46.0247 232.91L44.8219 233.454C44.2796 232.255 43.7457 231.051 43.2203 229.843L44.431 229.317ZM41.3992 222.052C41.8873 223.272 42.3841 224.488 42.8894 225.698L41.6711 226.207C41.1632 224.99 40.664 223.769 40.1735 222.543L41.3992 222.052ZM38.5852 214.707C39.0359 215.938 39.4954 217.164 39.9636 218.386L38.7308 218.859C38.2603 217.63 37.7985 216.398 37.3455 215.161L38.5852 214.707ZM35.9868 207.27C36.4021 208.518 36.8263 209.762 37.2594 211.001L36.0131 211.437C35.5778 210.191 35.1515 208.941 34.7341 207.687L35.9868 207.27ZM33.616 199.775C33.9929 201.032 34.3789 202.284 34.7738 203.533L33.5151 203.931C33.1182 202.676 32.7303 201.417 32.3515 200.155L33.616 199.775ZM31.4653 192.196C31.8052 193.466 32.1542 194.732 32.5123 195.994L31.2423 196.354C30.8823 195.086 30.5315 193.814 30.19 192.537L31.4653 192.196ZM29.5467 184.573C29.8481 185.851 30.1587 187.125 30.4785 188.396L29.1982 188.718C28.8768 187.441 28.5646 186.16 28.2618 184.876L29.5467 184.573ZM27.8549 176.883C28.1175 178.168 28.3894 179.45 28.6705 180.728L27.3811 181.011C27.0986 179.727 26.8253 178.439 26.5614 177.148L27.8549 176.883ZM26.3958 169.152C26.6202 170.447 26.854 171.739 27.0972 173.028L25.7999 173.273C25.5555 171.978 25.3205 170.679 25.0949 169.377L26.3958 169.152ZM25.1695 161.381C25.3541 162.677 25.5481 163.97 25.7516 165.259L24.4475 165.465C24.243 164.169 24.048 162.87 23.8625 161.567L25.1695 161.381ZM24.1758 153.568C24.3223 154.877 24.4784 156.182 24.6441 157.484L23.3344 157.651C23.1679 156.342 23.011 155.03 22.8638 153.715L24.1758 153.568ZM23.4182 145.745C23.525 147.051 23.6413 148.353 23.7672 149.653L22.4531 149.78C22.3266 148.474 22.2097 147.165 22.1024 145.853L23.4182 145.745ZM22.8929 137.877C22.9611 139.194 23.039 140.508 23.1266 141.819L21.8093 141.907C21.7213 140.589 21.643 139.269 21.5745 137.945L22.8929 137.877ZM22.6033 130.031C22.6323 131.342 22.6709 132.65 22.7191 133.956L21.3998 134.005C21.3514 132.692 21.3125 131.378 21.2834 130.06L22.6033 130.031ZM22.546 122.137C22.536 123.457 22.5359 124.775 22.5455 126.091L21.2253 126.1C21.2157 124.778 21.2158 123.454 21.2258 122.127L22.546 122.137ZM22.72 114.295C22.6717 115.607 22.6331 116.916 22.6042 118.223L21.2843 118.194C21.3134 116.88 21.3521 115.565 21.4007 114.247L22.72 114.295ZM23.1255 106.414C23.0386 107.73 22.9614 109.043 22.894 110.354L21.5755 110.286C21.6433 108.968 21.7208 107.649 21.8082 106.327L23.1255 106.414ZM23.7558 98.592C23.6315 99.8997 23.5169 101.206 23.4118 102.509L22.0959 102.403C22.2014 101.093 22.3166 99.7811 22.4415 98.467L23.7558 98.592ZM24.615 90.7499C24.4529 92.056 24.3006 93.3603 24.1579 94.6626L22.8455 94.5188C22.9889 93.2102 23.142 91.8997 23.3048 90.5874L24.615 90.7499ZM25.6913 82.9732C25.4928 84.2729 25.3039 85.5708 25.1245 86.8669L23.8167 86.6859C23.997 85.3836 24.1868 84.0796 24.3863 82.7738L25.6913 82.9732ZM26.65 77.1138C26.5362 77.766 26.4249 78.4178 26.3159 79.0692L25.0138 78.8515C25.1232 78.1971 25.2351 77.5422 25.3494 76.8869L26.65 77.1138Z" fill="#FF3C76"/>
<path fill-rule="evenodd" clip-rule="evenodd" d="M253.528 312.947L252.5 320.5L246.473 315.833L249.372 314.648C248.937 313.605 248.5 312.566 248.063 311.531L249.28 311.018C249.719 312.057 250.157 313.1 250.594 314.148L253.528 312.947ZM246.172 303.765C246.694 304.966 247.215 306.173 247.735 307.387L246.521 307.907C246.002 306.695 245.482 305.49 244.961 304.291L246.172 303.765ZM242.946 296.447C243.486 297.655 244.025 298.868 244.562 300.087L243.354 300.62C242.818 299.403 242.28 298.191 241.741 296.986L242.946 296.447ZM239.689 289.269C240.235 290.455 240.779 291.646 241.323 292.844L240.12 293.39C239.578 292.194 239.034 291.004 238.49 289.821L239.689 289.269ZM236.302 282.016C236.869 283.212 237.434 284.414 237.999 285.623L236.803 286.182C236.239 284.975 235.675 283.775 235.109 282.582L236.302 282.016ZM232.887 274.911C233.459 276.083 234.03 277.262 234.599 278.448L233.41 279.02C232.841 277.837 232.271 276.66 231.7 275.489L232.887 274.911ZM229.337 267.738C229.931 268.92 230.523 270.108 231.115 271.304L229.932 271.889C229.341 270.696 228.75 269.51 228.157 268.33L229.337 267.738ZM225.753 260.704C226.354 261.867 226.954 263.036 227.553 264.212L226.377 264.811C225.779 263.638 225.18 262.471 224.58 261.311L225.753 260.704ZM222.038 253.627C222.659 254.793 223.279 255.965 223.898 257.145L222.729 257.758C222.111 256.581 221.492 255.411 220.873 254.248L222.038 253.627ZM218.275 246.669C218.908 247.822 219.541 248.983 220.172 250.151L219.011 250.779C218.381 249.614 217.749 248.455 217.117 247.304L218.275 246.669ZM214.394 239.704C215.042 240.85 215.69 242.003 216.337 243.164L215.183 243.807C214.538 242.648 213.892 241.497 213.245 240.354L214.394 239.704ZM210.442 232.824C211.111 233.971 211.779 235.125 212.446 236.287L211.301 236.944C210.635 235.785 209.969 234.633 209.302 233.489L210.442 232.824ZM206.395 225.989C207.071 227.113 207.746 228.245 208.42 229.384L207.285 230.057C206.611 228.92 205.938 227.791 205.263 226.67L206.395 225.989ZM202.245 219.195C202.946 220.325 203.647 221.463 204.347 222.609L203.22 223.297C202.522 222.154 201.823 221.018 201.123 219.891L202.245 219.195ZM198.033 212.509C198.736 213.608 199.439 214.714 200.141 215.829L199.024 216.532C198.323 215.421 197.622 214.317 196.921 213.221L198.033 212.509ZM193.676 205.809C194.405 206.912 195.133 208.022 195.86 209.141L194.754 209.861C194.028 208.745 193.301 207.637 192.575 206.537L193.676 205.809ZM189.259 199.229C190.003 200.32 190.747 201.419 191.49 202.526L190.394 203.262C189.652 202.157 188.91 201.061 188.168 199.973L189.259 199.229ZM184.73 192.698C185.485 193.769 186.24 194.849 186.995 195.938L185.91 196.69C185.157 195.604 184.404 194.527 183.651 193.458L184.73 192.698ZM180.091 186.222C180.872 187.295 181.653 188.376 182.434 189.466L181.361 190.235C180.582 189.147 179.803 188.069 179.023 187L180.091 186.222ZM175.379 179.861C176.169 180.909 176.958 181.966 177.747 183.032L176.687 183.818C175.899 182.755 175.112 181.7 174.325 180.655L175.379 179.861ZM170.537 173.539C171.343 174.574 172.15 175.619 172.957 176.672L171.909 177.475C171.104 176.424 170.3 175.383 169.496 174.351L170.537 173.539ZM165.591 167.3C166.423 168.332 167.257 169.374 168.09 170.426L167.056 171.246C166.224 170.197 165.394 169.158 164.563 168.128L165.591 167.3ZM160.562 161.172C161.406 162.182 162.25 163.202 163.095 164.231L162.074 165.069C161.232 164.042 160.39 163.026 159.549 162.019L160.562 161.172ZM155.418 155.122C156.274 156.111 157.13 157.109 157.988 158.117L156.982 158.972C156.127 157.967 155.273 156.972 154.42 155.986L155.418 155.122ZM150.147 149.141C151.028 150.122 151.91 151.114 152.793 152.116L151.803 152.989C150.922 151.99 150.042 151.001 149.164 150.022L150.147 149.141ZM144.783 143.274C145.689 144.247 146.597 145.232 147.507 146.227L146.533 147.117C145.626 146.125 144.72 145.144 143.817 144.174L144.783 143.274ZM139.323 137.522C140.236 138.466 141.151 139.421 142.067 140.386L141.11 141.295C140.196 140.332 139.284 139.381 138.374 138.44L139.323 137.522ZM133.754 131.873C134.678 132.792 135.604 133.723 136.532 134.664L135.592 135.591C134.667 134.653 133.744 133.725 132.823 132.809L133.754 131.873ZM128.047 126.306C128.995 127.212 129.945 128.13 130.898 129.06L129.976 130.005C129.026 129.078 128.079 128.163 127.135 127.26L128.047 126.306ZM122.239 120.862C123.21 121.754 124.184 122.658 125.161 123.574L124.258 124.537C123.284 123.624 122.313 122.723 121.346 121.834L122.239 120.862ZM116.327 115.542C117.321 116.418 118.318 117.306 119.319 118.207L118.436 119.188C117.438 118.29 116.444 117.405 115.454 116.532L116.327 115.542ZM110.309 110.348C111.321 111.203 112.338 112.071 113.359 112.952L112.496 113.952C111.479 113.073 110.466 112.208 109.457 111.356L110.309 110.348ZM104.184 105.282C105.21 106.112 106.241 106.956 107.278 107.813L106.437 108.831C105.404 107.976 104.376 107.136 103.354 106.308L104.184 105.282ZM97.9508 100.347C98.9923 101.154 100.04 101.974 101.094 102.808L100.274 103.843C99.2243 103.012 98.1803 102.195 97.1426 101.391L97.9508 100.347ZM91.6102 95.5482C92.6683 96.331 93.734 97.1283 94.8068 97.9405L94.01 98.9931C92.941 98.1839 91.8793 97.3895 90.825 96.6095L91.6102 95.5482ZM85.1645 90.8884C86.2406 91.6483 87.3255 92.4234 88.419 93.2141L87.6454 94.2839C86.5559 93.4962 85.475 92.7239 84.4029 91.9668L85.1645 90.8884ZM78.6189 86.3733C79.7137 87.1107 80.8191 87.8641 81.9349 88.6339L81.1852 89.7205C80.0735 88.9536 78.9721 88.203 77.8814 87.4683L78.6189 86.3733ZM71.9824 82.0091C73.0846 82.7166 74.1996 83.4408 75.3268 84.1821L74.6014 85.2852C73.4783 84.5466 72.3674 83.825 71.2692 83.1201L71.9824 82.0091ZM65.2702 77.8027C66.3718 78.4765 67.4885 79.1676 68.62 79.8765L67.919 80.9953C66.7917 80.2889 65.6789 79.6003 64.5813 78.9289L65.2702 77.8027ZM58.4133 73.7076C59.5357 74.362 60.6773 75.0353 61.8375 75.728L61.1607 76.8615C60.0045 76.1712 58.8668 75.5003 57.7483 74.8481L58.4133 73.7076ZM51.5167 69.7766C52.6513 70.4091 53.8108 71.0621 54.9943 71.7366L54.3405 72.8836C53.1609 72.2113 52.0051 71.5603 50.8739 70.9297L51.5167 69.7766ZM46.3141 66.92C46.8767 67.2245 47.4467 67.5343 48.0241 67.8497L47.3913 69.0083C46.8154 68.6938 46.2469 68.3848 45.6857 68.0811L46.3141 66.92Z" fill="#FF3C76"/>
<path fill-rule="evenodd" clip-rule="evenodd" d="M324.87 303.502L323.5 311L317.692 306.065L320.623 305.018C320.24 303.991 319.853 302.967 319.462 301.946L320.695 301.474C321.089 302.505 321.48 303.538 321.866 304.574L324.87 303.502ZM317.792 294.107C318.289 295.332 318.78 296.561 319.266 297.795L318.038 298.279C317.553 297.049 317.064 295.824 316.568 294.603L317.792 294.107ZM314.741 286.8C315.261 288.009 315.774 289.223 316.283 290.441L315.064 290.949C314.558 289.736 314.046 288.526 313.528 287.32L314.741 286.8ZM311.543 279.548C312.088 280.752 312.629 281.96 313.163 283.172L311.955 283.705C311.422 282.497 310.884 281.293 310.341 280.093L311.543 279.548ZM308.208 272.376C308.774 273.563 309.335 274.754 309.891 275.949L308.694 276.506C308.14 275.314 307.581 274.127 307.016 272.945L308.208 272.376ZM304.72 265.251C305.312 266.431 305.899 267.615 306.481 268.804L305.295 269.384C304.715 268.2 304.13 267.019 303.54 265.843L304.72 265.251ZM301.102 258.217C301.716 259.382 302.325 260.551 302.929 261.725L301.755 262.329C301.153 261.159 300.546 259.993 299.934 258.832L301.102 258.217ZM297.337 251.239C297.974 252.393 298.607 253.551 299.234 254.714L298.073 255.341C297.447 254.182 296.816 253.027 296.181 251.877L297.337 251.239ZM293.44 244.346C294.101 245.49 294.758 246.638 295.409 247.79L294.26 248.44C293.61 247.291 292.956 246.147 292.297 245.007L293.44 244.346ZM289.407 237.531C290.089 238.657 290.766 239.789 291.438 240.925L290.302 241.597C289.632 240.465 288.957 239.337 288.278 238.214L289.407 237.531ZM285.239 230.79C285.945 231.907 286.646 233.028 287.342 234.155L286.219 234.849C285.525 233.727 284.826 232.609 284.123 231.495L285.239 230.79ZM280.949 224.146C281.673 225.244 282.392 226.347 283.107 227.454L281.998 228.17C281.286 227.066 280.568 225.967 279.847 224.873L280.949 224.146ZM276.517 217.567C277.264 218.654 278.008 219.746 278.746 220.843L277.652 221.58C276.915 220.487 276.174 219.399 275.429 218.315L276.517 217.567ZM271.968 211.09C272.736 212.162 273.501 213.239 274.26 214.321L273.18 215.079C272.423 214.001 271.661 212.928 270.895 211.859L271.968 211.09ZM267.291 204.695C268.079 205.751 268.863 206.812 269.642 207.877L268.577 208.657C267.799 207.595 267.018 206.537 266.233 205.485L267.291 204.695ZM262.491 198.391C263.302 199.435 264.108 200.484 264.911 201.538L263.86 202.338C263.061 201.287 262.257 200.242 261.449 199.201L262.491 198.391ZM257.579 192.19C258.406 193.214 259.229 194.242 260.047 195.275L259.012 196.095C258.196 195.065 257.376 194.04 256.552 193.02L257.579 192.19ZM252.537 186.069C253.386 187.079 254.231 188.095 255.071 189.115L254.052 189.955C253.214 188.937 252.372 187.925 251.526 186.918L252.537 186.069ZM247.39 180.056C248.257 181.05 249.121 182.049 249.98 183.053L248.977 183.911C248.12 182.91 247.26 181.915 246.395 180.924L247.39 180.056ZM242.125 174.137C243.009 175.113 243.891 176.094 244.768 177.08L243.782 177.958C242.907 176.974 242.029 175.996 241.147 175.023L242.125 174.137ZM236.747 168.317C237.653 169.279 238.556 170.246 239.455 171.219L238.485 172.115C237.589 171.145 236.689 170.181 235.786 169.222L236.747 168.317ZM231.272 162.611C232.191 163.551 233.107 164.497 234.02 165.448L233.067 166.362C232.158 165.414 231.245 164.471 230.328 163.534L231.272 162.611ZM225.673 156.992C226.613 157.917 227.549 158.848 228.482 159.785L227.547 160.717C226.617 159.783 225.683 158.855 224.747 157.932L225.673 156.992ZM219.98 151.489C220.938 152.398 221.893 153.312 222.845 154.232L221.927 155.182C220.978 154.265 220.027 153.353 219.072 152.447L219.98 151.489ZM214.185 146.095C215.157 146.983 216.125 147.876 217.091 148.775L216.192 149.741C215.229 148.845 214.263 147.955 213.295 147.07L214.185 146.095ZM208.282 140.804C209.273 141.676 210.262 142.554 211.248 143.437L210.367 144.42C209.384 143.539 208.398 142.664 207.41 141.795L208.282 140.804ZM202.292 135.635C203.297 136.486 204.3 137.343 205.3 138.206L204.437 139.205C203.44 138.345 202.441 137.491 201.439 136.642L202.292 135.635ZM196.196 130.571C197.217 131.402 198.235 132.24 199.251 133.084L198.408 134.1C197.395 133.259 196.379 132.423 195.362 131.594L196.196 130.571ZM190.006 125.623C191.046 126.439 192.084 127.26 193.12 128.088L192.295 129.119C191.263 128.294 190.228 127.475 189.192 126.662L190.006 125.623ZM183.737 120.804C184.786 121.595 185.834 122.393 186.879 123.196L186.075 124.243C185.033 123.442 183.988 122.647 182.942 121.858L183.737 120.804ZM177.357 116.09C178.424 116.863 179.489 117.642 180.553 118.428L179.768 119.49C178.708 118.707 177.646 117.93 176.583 117.159L177.357 116.09ZM170.897 111.506C171.983 112.261 173.067 113.022 174.15 113.791L173.386 114.867C172.307 114.101 171.226 113.342 170.144 112.589L170.897 111.506ZM164.363 107.054C165.455 107.783 166.546 108.518 167.635 109.26L166.892 110.351C165.806 109.612 164.719 108.879 163.63 108.152L164.363 107.054ZM157.719 102.714C158.829 103.424 159.938 104.141 161.046 104.864L160.324 105.97C159.22 105.249 158.115 104.534 157.008 103.827L157.719 102.714ZM151.004 98.5138C152.132 99.204 153.259 99.9012 154.384 100.605L153.684 101.725C152.562 101.023 151.439 100.328 150.315 99.6399L151.004 98.5138ZM144.22 94.4541C145.353 95.1166 146.484 95.7862 147.615 96.4628L146.937 97.5957C145.81 96.9213 144.682 96.254 143.553 95.5936L144.22 94.4541ZM137.329 90.5157C138.479 91.1578 139.629 91.8071 140.778 92.4637L140.123 93.6099C138.978 92.9555 137.832 92.3084 136.685 91.6685L137.329 90.5157ZM130.372 86.7254C131.54 87.3465 132.708 87.975 133.876 88.6111L133.244 89.7704C132.081 89.1365 130.917 88.5101 129.752 87.8911L130.372 86.7254ZM123.353 83.0868C124.524 83.6786 125.695 84.2779 126.866 84.8848L126.259 86.0569C125.092 85.4521 123.925 84.8548 122.758 84.2651L123.353 83.0868ZM116.233 79.5837C117.42 80.1519 118.606 80.728 119.793 81.3118L119.21 82.4964C118.028 81.9146 116.845 81.3406 115.663 80.7744L116.233 79.5837ZM109.047 76.2376C110.251 76.7824 111.455 77.3353 112.66 77.8963L112.102 79.0931C110.902 78.5341 109.702 77.9832 108.502 77.4404L109.047 76.2376ZM101.802 73.0556C103.013 73.5713 104.224 74.0953 105.435 74.6275L104.904 75.8362C103.697 75.3059 102.491 74.784 101.285 74.2702L101.802 73.0556ZM94.4798 70.0337C95.6986 70.5205 96.9183 71.0157 98.1387 71.5193L97.635 72.7397C96.4192 72.238 95.2042 71.7446 93.9901 71.2598L94.4798 70.0337ZM87.0764 67.1765C88.3118 67.6367 89.5483 68.1056 90.786 68.5832L90.3106 69.8149C89.0778 69.3391 87.8461 68.872 86.6156 68.4137L87.0764 67.1765ZM79.619 64.5005C80.8692 64.9321 82.121 65.3728 83.3741 65.8226L82.9281 67.0652C81.68 66.6172 80.4333 66.1783 79.1882 65.7485L79.619 64.5005ZM72.11 62.0121C73.3607 62.4093 74.6134 62.8157 75.8677 63.2315L75.4524 64.4846C74.2033 64.0706 72.9559 63.6659 71.7104 63.2704L72.11 62.0121ZM64.5221 59.71C65.7824 60.0745 67.045 60.4486 68.3097 60.8323L67.9264 62.0956C66.6672 61.7136 65.4101 61.3411 64.1553 60.9782L64.5221 59.71ZM56.8687 57.6074C58.144 57.9392 59.422 58.281 60.7026 58.6329L60.3528 59.9059C59.078 59.5556 57.8057 59.2153 56.5363 58.885L56.8687 57.6074ZM49.1693 55.7189C50.4593 56.016 51.7526 56.3236 53.0488 56.6417L52.7341 57.9238C51.444 57.6072 50.1569 57.3011 48.8731 57.0054L49.1693 55.7189ZM43.3864 54.4534C44.0264 54.5861 44.6672 54.7214 45.3089 54.8593L45.0314 56.1501C44.3929 56.0128 43.7552 55.8781 43.1184 55.7461L43.3864 54.4534Z" fill="#FF3C76"/>
<path d="M277.139 397.44C277.068 397.44 276.996 397.421 276.931 397.38C276.266 396.965 275.456 396.71 274.382 396.578C272.713 396.372 271.099 396.664 269.955 397.38C269.772 397.496 269.529 397.44 269.413 397.256C269.298 397.072 269.354 396.829 269.538 396.714C270.833 395.904 272.633 395.57 274.478 395.797C275.67 395.944 276.582 396.235 277.348 396.714C277.532 396.829 277.588 397.071 277.473 397.255C277.398 397.374 277.27 397.44 277.139 397.44Z" fill="white"/>
<path d="M273.349 392.503C271.913 392.503 270.566 392.16 269.538 391.516C269.354 391.401 269.298 391.158 269.413 390.974C269.529 390.79 269.772 390.734 269.955 390.85C271.1 391.566 272.714 391.858 274.382 391.652C275.456 391.52 276.266 391.265 276.931 390.85C277.116 390.734 277.358 390.791 277.473 390.975C277.588 391.159 277.532 391.401 277.348 391.516C276.582 391.994 275.67 392.286 274.478 392.433C274.099 392.48 273.721 392.503 273.349 392.503Z" fill="white"/>
<path d="M273.457 399.223C272.994 399.223 272.537 399.029 272.138 398.662C271.448 398.028 271.13 397.128 270.93 396.415C270.724 395.682 270.629 394.862 270.641 393.907C270.651 393.046 270.793 392.182 271.052 391.409C271.387 390.406 271.845 389.722 272.45 389.321C272.761 389.114 273.104 389.005 273.443 389.004C274.323 389.005 274.92 389.687 275.197 390.094C275.629 390.727 275.92 391.497 276.112 392.517C276.438 394.256 276.235 396.079 275.554 397.518C275.269 398.12 274.758 398.893 273.944 399.148C273.785 399.198 273.621 399.223 273.457 399.223ZM273.443 389.79C273.26 389.79 273.067 389.855 272.885 389.976C272.431 390.277 272.075 390.827 271.797 391.658C271.564 392.355 271.436 393.136 271.427 393.917C271.416 394.795 271.501 395.543 271.687 396.202C271.859 396.815 272.126 397.583 272.67 398.083C273 398.386 273.373 398.503 273.708 398.398C274.251 398.228 274.625 397.642 274.843 397.182C275.455 395.889 275.636 394.242 275.339 392.662C275.168 391.753 274.917 391.077 274.548 390.537C274.395 390.313 273.981 389.791 273.443 389.79Z" fill="white"/>
<path d="M273.443 399.226C273.226 399.226 273.05 399.05 273.05 398.833V389.397C273.05 389.18 273.226 389.004 273.443 389.004C273.66 389.004 273.836 389.18 273.836 389.397V398.833C273.836 399.05 273.66 399.226 273.443 399.226Z" fill="white"/>
<path d="M278.161 394.508H268.725C268.508 394.508 268.332 394.332 268.332 394.115C268.332 393.898 268.508 393.722 268.725 393.722H278.161C278.378 393.722 278.554 393.898 278.554 394.115C278.554 394.332 278.378 394.508 278.161 394.508Z" fill="white"/>
<path d="M273.43 399.224C273.43 399.224 273.43 399.224 273.43 399.224C272.983 399.224 272.54 399.166 272.113 399.051C270.272 398.556 268.831 397.031 268.441 395.166C268.044 393.266 268.777 391.269 270.309 390.078C271.195 389.389 272.312 389.01 273.455 389.01C274.246 389.01 275.032 389.194 275.728 389.541C277.445 390.401 278.555 392.196 278.555 394.115C278.555 395.681 277.816 397.19 276.578 398.152C275.689 398.843 274.571 399.224 273.43 399.224ZM273.455 389.796C272.486 389.796 271.54 390.116 270.792 390.698C269.495 391.706 268.874 393.397 269.21 395.005C269.54 396.582 270.76 397.872 272.317 398.291C272.678 398.388 273.052 398.438 273.43 398.438C274.397 398.438 275.344 398.116 276.095 397.531C277.143 396.717 277.768 395.44 277.768 394.115C277.768 392.491 276.829 390.972 275.376 390.245C274.789 389.951 274.125 389.796 273.455 389.796Z" fill="white"/>
<path d="M259.263 336.44C259.192 336.44 259.12 336.421 259.055 336.38C258.39 335.965 257.58 335.71 256.506 335.578C254.836 335.372 253.223 335.664 252.079 336.38C251.895 336.496 251.653 336.44 251.537 336.256C251.422 336.072 251.478 335.829 251.662 335.714C252.957 334.904 254.757 334.57 256.602 334.797C257.794 334.944 258.706 335.235 259.471 335.714C259.656 335.829 259.712 336.071 259.597 336.255C259.522 336.374 259.394 336.44 259.263 336.44Z" fill="white"/>
<path d="M255.472 331.503C254.037 331.503 252.69 331.16 251.662 330.516C251.478 330.401 251.422 330.158 251.537 329.974C251.653 329.79 251.895 329.734 252.079 329.85C253.223 330.566 254.837 330.858 256.506 330.652C257.58 330.52 258.39 330.265 259.055 329.85C259.24 329.734 259.482 329.791 259.597 329.975C259.712 330.159 259.656 330.401 259.471 330.516C258.706 330.994 257.794 331.286 256.602 331.433C256.223 331.48 255.844 331.503 255.472 331.503Z" fill="white"/>
<path d="M255.581 338.223C255.118 338.223 254.662 338.029 254.262 337.662C253.573 337.028 253.254 336.128 253.054 335.415C252.848 334.682 252.754 333.862 252.765 332.907C252.775 332.046 252.917 331.182 253.176 330.409C253.511 329.406 253.969 328.722 254.574 328.321C254.885 328.114 255.229 328.005 255.567 328.004C256.447 328.005 257.044 328.687 257.322 329.094C257.754 329.727 258.044 330.497 258.236 331.517C258.563 333.256 258.36 335.079 257.678 336.518C257.393 337.12 256.882 337.893 256.068 338.148C255.909 338.198 255.745 338.223 255.581 338.223ZM255.567 328.79C255.384 328.79 255.191 328.855 255.009 328.976C254.555 329.277 254.199 329.827 253.921 330.658C253.688 331.355 253.56 332.136 253.551 332.917C253.541 333.795 253.626 334.543 253.811 335.202C253.983 335.815 254.251 336.583 254.794 337.083C255.124 337.386 255.497 337.503 255.832 337.398C256.376 337.228 256.749 336.642 256.968 336.182C257.579 334.889 257.76 333.242 257.463 331.662C257.292 330.753 257.041 330.077 256.672 329.537C256.519 329.313 256.105 328.791 255.567 328.79Z" fill="white"/>
<path d="M255.567 338.226C255.35 338.226 255.174 338.05 255.174 337.833V328.397C255.174 328.18 255.35 328.004 255.567 328.004C255.784 328.004 255.96 328.18 255.96 328.397V337.833C255.96 338.05 255.784 338.226 255.567 338.226Z" fill="white"/>
<path d="M260.285 333.508H250.849C250.632 333.508 250.456 333.332 250.456 333.115C250.456 332.898 250.632 332.722 250.849 332.722H260.285C260.502 332.722 260.678 332.898 260.678 333.115C260.678 333.332 260.502 333.508 260.285 333.508Z" fill="white"/>
<path d="M255.554 338.224C255.554 338.224 255.554 338.224 255.554 338.224C255.107 338.224 254.664 338.166 254.237 338.051C252.396 337.556 250.954 336.031 250.564 334.166C250.167 332.266 250.901 330.269 252.433 329.078C253.319 328.389 254.436 328.01 255.579 328.01C256.37 328.01 257.156 328.194 257.851 328.541C259.569 329.401 260.678 331.196 260.678 333.115C260.678 334.681 259.939 336.19 258.702 337.152C257.813 337.843 256.695 338.224 255.554 338.224ZM255.579 328.796C254.61 328.796 253.664 329.116 252.915 329.699C251.619 330.706 250.998 332.397 251.334 334.005C251.664 335.582 252.884 336.873 254.441 337.292C254.801 337.388 255.176 337.438 255.554 337.438C256.521 337.438 257.467 337.116 258.219 336.532C259.267 335.717 259.892 334.44 259.892 333.115C259.892 331.491 258.953 329.972 257.5 329.245C256.913 328.951 256.249 328.796 255.579 328.796Z" fill="white"/>
<path d="M329.006 324.412C328.935 324.412 328.863 324.393 328.798 324.352C328.133 323.937 327.323 323.682 326.249 323.55C324.579 323.344 322.966 323.636 321.822 324.352C321.638 324.468 321.396 324.412 321.28 324.228C321.165 324.044 321.221 323.801 321.405 323.686C322.699 322.876 324.5 322.542 326.345 322.77C327.537 322.916 328.449 323.208 329.214 323.686C329.399 323.801 329.455 324.043 329.34 324.228C329.265 324.347 329.137 324.412 329.006 324.412Z" fill="white"/>
<path d="M325.215 319.475C323.78 319.475 322.433 319.132 321.405 318.488C321.221 318.373 321.165 318.131 321.28 317.947C321.396 317.762 321.638 317.707 321.822 317.822C322.966 318.538 324.58 318.83 326.249 318.625C327.323 318.492 328.133 318.237 328.798 317.822C328.982 317.707 329.225 317.763 329.34 317.947C329.455 318.131 329.399 318.374 329.214 318.489C328.449 318.967 327.537 319.258 326.345 319.405C325.966 319.452 325.587 319.475 325.215 319.475Z" fill="white"/>
<path d="M325.323 326.195C324.861 326.195 324.404 326.001 324.005 325.634C323.315 325 322.997 324.1 322.797 323.387C322.591 322.654 322.496 321.834 322.507 320.879C322.518 320.018 322.66 319.154 322.919 318.381C323.254 317.378 323.712 316.695 324.317 316.293C324.628 316.086 324.971 315.977 325.31 315.976C326.19 315.977 326.787 316.66 327.064 317.066C327.496 317.699 327.787 318.469 327.979 319.489C328.305 321.228 328.102 323.051 327.421 324.49C327.136 325.093 326.625 325.865 325.811 326.12C325.652 326.17 325.488 326.195 325.323 326.195ZM325.31 316.762C325.127 316.763 324.934 316.827 324.752 316.948C324.298 317.249 323.942 317.799 323.664 318.63C323.431 319.327 323.303 320.108 323.294 320.889C323.283 321.767 323.368 322.515 323.554 323.174C323.726 323.787 323.993 324.555 324.537 325.055C324.867 325.358 325.24 325.475 325.575 325.37C326.118 325.2 326.492 324.614 326.71 324.154C327.322 322.861 327.503 321.214 327.206 319.634C327.035 318.725 326.784 318.05 326.415 317.509C326.262 317.285 325.848 316.763 325.31 316.762Z" fill="white"/>
<path d="M325.31 326.198C325.093 326.198 324.917 326.022 324.917 325.805V316.369C324.917 316.152 325.093 315.976 325.31 315.976C325.527 315.976 325.703 316.152 325.703 316.369V325.805C325.703 326.022 325.527 326.198 325.31 326.198Z" fill="white"/>
<path d="M330.028 321.48H320.592C320.375 321.48 320.199 321.304 320.199 321.087C320.199 320.87 320.375 320.694 320.592 320.694H330.028C330.245 320.694 330.421 320.87 330.421 321.087C330.421 321.304 330.245 321.48 330.028 321.48Z" fill="white"/>
<path d="M325.297 326.196C325.296 326.196 325.296 326.196 325.296 326.196C324.849 326.196 324.406 326.138 323.979 326.023C322.138 325.528 320.697 324.003 320.307 322.138C319.91 320.238 320.643 318.241 322.175 317.05C323.061 316.361 324.179 315.982 325.321 315.982C326.113 315.982 326.898 316.166 327.594 316.513C329.311 317.373 330.421 319.168 330.421 321.087C330.421 322.653 329.682 324.162 328.444 325.124C327.555 325.816 326.437 326.196 325.297 326.196ZM325.321 316.768C324.352 316.768 323.406 317.088 322.658 317.671C321.361 318.678 320.74 320.369 321.077 321.977C321.406 323.555 322.626 324.845 324.183 325.264C324.544 325.36 324.918 325.41 325.296 325.41C326.263 325.41 327.21 325.088 327.962 324.504C329.009 323.689 329.635 322.412 329.635 321.087C329.635 319.463 328.695 317.944 327.242 317.217C326.655 316.923 325.991 316.768 325.321 316.768Z" fill="white"/>
<path d="M190.811 311.402C190.74 311.402 190.668 311.383 190.603 311.342C189.938 310.927 189.128 310.672 188.054 310.54C186.384 310.334 184.771 310.626 183.627 311.342C183.443 311.458 183.201 311.402 183.085 311.218C182.97 311.034 183.026 310.791 183.21 310.676C184.505 309.866 186.305 309.532 188.15 309.76C189.342 309.906 190.254 310.198 191.02 310.676C191.204 310.791 191.26 311.033 191.145 311.218C191.07 311.337 190.942 311.402 190.811 311.402Z" fill="white"/>
<path d="M187.02 306.465C185.585 306.465 184.238 306.122 183.21 305.478C183.026 305.363 182.97 305.121 183.085 304.937C183.201 304.752 183.443 304.697 183.627 304.812C184.772 305.528 186.385 305.82 188.054 305.615C189.128 305.482 189.938 305.227 190.603 304.812C190.788 304.697 191.03 304.753 191.145 304.937C191.26 305.121 191.204 305.364 191.02 305.479C190.254 305.957 189.342 306.248 188.15 306.395C187.771 306.442 187.393 306.465 187.02 306.465Z" fill="white"/>
<path d="M187.128 313.185C186.665 313.185 186.209 312.991 185.81 312.624C185.12 311.99 184.802 311.09 184.601 310.377C184.395 309.644 184.301 308.824 184.312 307.87C184.322 307.008 184.464 306.144 184.723 305.371C185.059 304.368 185.516 303.685 186.121 303.283C186.433 303.076 186.776 302.967 187.114 302.966C187.995 302.967 188.592 303.65 188.869 304.056C189.301 304.689 189.592 305.459 189.784 306.479C190.11 308.218 189.907 310.041 189.226 311.48C188.941 312.083 188.429 312.855 187.615 313.11C187.457 313.16 187.293 313.185 187.128 313.185ZM187.114 303.752C186.932 303.753 186.739 303.817 186.556 303.938C186.102 304.239 185.747 304.789 185.469 305.62C185.236 306.317 185.108 307.098 185.098 307.879C185.088 308.757 185.173 309.505 185.358 310.164C185.531 310.777 185.798 311.545 186.342 312.045C186.671 312.348 187.044 312.466 187.38 312.36C187.923 312.19 188.297 311.605 188.515 311.144C189.127 309.851 189.307 308.204 189.011 306.624C188.84 305.715 188.588 305.04 188.219 304.499C188.066 304.275 187.652 303.753 187.114 303.752Z" fill="white"/>
<path d="M187.115 313.188C186.898 313.188 186.722 313.012 186.722 312.795V303.359C186.722 303.142 186.898 302.966 187.115 302.966C187.332 302.966 187.508 303.142 187.508 303.359V312.795C187.508 313.012 187.332 313.188 187.115 313.188Z" fill="white"/>
<path d="M191.833 308.47H182.397C182.18 308.47 182.004 308.294 182.004 308.077C182.004 307.86 182.18 307.684 182.397 307.684H191.833C192.05 307.684 192.226 307.86 192.226 308.077C192.226 308.294 192.05 308.47 191.833 308.47Z" fill="white"/>
<path d="M187.102 313.186C187.102 313.186 187.102 313.186 187.101 313.186C186.655 313.186 186.211 313.128 185.784 313.013C183.944 312.518 182.502 310.993 182.112 309.128C181.715 307.228 182.448 305.231 183.981 304.04C184.867 303.351 185.984 302.972 187.127 302.972C187.918 302.972 188.704 303.156 189.399 303.503C191.116 304.363 192.226 306.158 192.226 308.077C192.226 309.643 191.487 311.152 190.249 312.114C189.36 312.806 188.242 313.186 187.102 313.186ZM187.126 303.758C186.157 303.758 185.212 304.078 184.463 304.661C183.166 305.668 182.546 307.359 182.882 308.967C183.212 310.544 184.431 311.835 185.988 312.254C186.349 312.35 186.723 312.4 187.102 312.4C188.068 312.4 189.015 312.078 189.767 311.494C190.814 310.679 191.44 309.402 191.44 308.077C191.44 306.453 190.501 304.934 189.047 304.207C188.461 303.913 187.796 303.758 187.126 303.758Z" fill="white"/>
<mask id="mask0_4_2852" style="mask-type:luminance" maskUnits="userSpaceOnUse" x="21" y="51" width="19" height="18">
<path d="M21.26 51.002H39.168V68.9099H21.26V51.002Z" fill="white"/>
</mask>
<g mask="url(#mask0_4_2852)">
<path d="M36.544 54.1498H32.3468C32.0568 54.1498 31.8222 53.9152 31.8222 53.6252C31.8222 53.3352 32.0568 53.1005 32.3468 53.1005H36.544C36.834 53.1005 37.0686 53.3352 37.0686 53.6252C37.0686 53.9152 36.834 54.1498 36.544 54.1498ZM28.0797 54.1498C27.7899 54.1498 27.555 53.9149 27.555 53.6252C27.555 53.3354 27.7899 53.1005 28.0797 53.1005C28.3694 53.1005 28.6043 53.3354 28.6043 53.6252C28.6043 53.9149 28.3694 54.1498 28.0797 54.1498ZM25.9811 54.1498C25.6914 54.1498 25.4565 53.9149 25.4565 53.6252C25.4565 53.3354 25.6914 53.1005 25.9811 53.1005C26.2708 53.1005 26.5057 53.3354 26.5057 53.6252C26.5057 53.9149 26.2708 54.1498 25.9811 54.1498ZM23.8825 54.1498C23.5928 54.1498 23.3579 53.9149 23.3579 53.6252C23.3579 53.3354 23.5928 53.1005 23.8825 53.1005C24.1723 53.1005 24.4072 53.3354 24.4072 53.6252C24.4072 53.9149 24.1723 54.1498 23.8825 54.1498ZM37.5933 51.0019H22.8332C21.9653 51.0019 21.2593 51.708 21.2593 52.5759V54.6745C21.2593 55.5424 21.9653 56.2484 22.8332 56.2484H37.5933C38.4612 56.2484 39.1672 55.5424 39.1672 54.6745V52.5759C39.1672 51.708 38.4612 51.0019 37.5933 51.0019Z" fill="white"/>
<path d="M36.544 60.4806H32.3468C32.0568 60.4806 31.8222 60.246 31.8222 59.956C31.8222 59.666 32.0568 59.4313 32.3468 59.4313H36.544C36.834 59.4313 37.0686 59.666 37.0686 59.956C37.0686 60.246 36.834 60.4806 36.544 60.4806ZM28.0797 60.4806C27.7899 60.4806 27.555 60.2457 27.555 59.956C27.555 59.6662 27.7899 59.4313 28.0797 59.4313C28.3694 59.4313 28.6043 59.6662 28.6043 59.956C28.6043 60.2457 28.3694 60.4806 28.0797 60.4806ZM25.9811 60.4806C25.6914 60.4806 25.4565 60.2457 25.4565 59.956C25.4565 59.6662 25.6914 59.4313 25.9811 59.4313C26.2708 59.4313 26.5057 59.6662 26.5057 59.956C26.5057 60.2457 26.2708 60.4806 25.9811 60.4806ZM23.8825 60.4806C23.5928 60.4806 23.3579 60.2457 23.3579 59.956C23.3579 59.6662 23.5928 59.4313 23.8825 59.4313C24.1723 59.4313 24.4072 59.6662 24.4072 59.956C24.4072 60.2457 24.1723 60.4806 23.8825 60.4806ZM37.5933 57.3328H22.8332C21.9653 57.3328 21.2593 58.0388 21.2593 58.9067V61.0053C21.2593 61.8732 21.9653 62.5792 22.8332 62.5792H37.5933C38.4612 62.5792 39.1672 61.8732 39.1672 61.0053V58.9067C39.1672 58.0388 38.4612 57.3328 37.5933 57.3328Z" fill="white"/>
<path d="M36.5447 66.8113H32.3476C32.0576 66.8113 31.8229 66.5767 31.8229 66.2867C31.8229 65.9967 32.0576 65.762 32.3476 65.762H36.5447C36.8347 65.762 37.0694 65.9967 37.0694 66.2867C37.0694 66.5767 36.8347 66.8113 36.5447 66.8113ZM28.0804 66.8113C27.7907 66.8113 27.5558 66.5764 27.5558 66.2867C27.5558 65.9969 27.7907 65.762 28.0804 65.762C28.3702 65.762 28.6051 65.9969 28.6051 66.2867C28.6051 66.5764 28.3702 66.8113 28.0804 66.8113ZM25.9818 66.8113C25.6921 66.8113 25.4572 66.5764 25.4572 66.2867C25.4572 65.9969 25.6921 65.762 25.9818 65.762C26.2716 65.762 26.5065 65.9969 26.5065 66.2867C26.5065 66.5764 26.2716 66.8113 25.9818 66.8113ZM23.8832 66.8113C23.5935 66.8113 23.3586 66.5764 23.3586 66.2867C23.3586 65.9969 23.5935 65.762 23.8832 65.762C24.173 65.762 24.4079 65.9969 24.4079 66.2867C24.4079 66.5764 24.173 66.8113 23.8832 66.8113ZM37.594 63.6634H22.834C21.966 63.6634 21.26 64.3695 21.26 65.2374V67.336C21.26 68.2039 21.966 68.9099 22.834 68.9099H37.594C38.4619 68.9099 39.168 68.2039 39.168 67.336V65.2374C39.168 64.3695 38.4619 63.6634 37.594 63.6634Z" fill="white"/>
</g>
<path d="M49.2458 41.002L48.6458 39.482H45.5158L44.9258 41.002H43.7058L46.5158 34.002H47.5958L50.4958 41.002H49.2458ZM47.0758 35.502L45.9158 38.452H48.2458L47.0758 35.502Z" fill="white"/>
<path d="M40.2134 41.142C38.6034 41.142 37.4034 40.002 37.4034 38.392V34.002H38.5534V38.322C38.5534 39.352 39.2434 40.032 40.2134 40.032C41.1834 40.032 41.8634 39.352 41.8634 38.322V34.002H43.0234V38.392C43.0234 40.002 41.8234 41.142 40.2134 41.142Z" fill="white"/>
<path d="M33.0668 39.922H36.0968V41.002H31.9268V34.002H35.9868V35.082H33.0668V36.912H35.7268V37.962H33.0668V39.922Z" fill="white"/>
<path d="M25.9214 41.1419C24.6114 41.1419 23.7514 40.4119 23.7214 39.2919H24.8014C24.8314 39.8619 25.3114 40.1619 25.9614 40.1619C26.5614 40.1619 27.0214 39.9119 27.0214 39.4619C27.0214 38.9419 26.4414 38.8319 25.7814 38.7219C24.8814 38.5619 23.8214 38.3619 23.8214 37.1119C23.8214 36.1419 24.6514 35.4719 25.9114 35.4719C27.1614 35.4719 27.9814 36.1619 28.0014 37.2019H26.9514C26.9314 36.6919 26.5314 36.4119 25.8814 36.4119C25.2714 36.4119 24.8914 36.6819 24.8914 37.0719C24.8914 37.5519 25.4414 37.6419 26.0914 37.7519C27.0014 37.9019 28.1114 38.0819 28.1114 39.4119C28.1114 40.4619 27.2414 41.1419 25.9214 41.1419Z" fill="white"/>
<path d="M20.0589 41.1419C18.3989 41.1419 17.1689 39.9319 17.1689 38.3019C17.1689 36.6719 18.3989 35.4719 20.0589 35.4719C21.7089 35.4719 22.9389 36.6819 22.9389 38.3019C22.9389 39.9319 21.7089 41.1419 20.0589 41.1419ZM20.0589 40.0819C21.0789 40.0819 21.8089 39.3419 21.8089 38.3019C21.8089 37.2719 21.0789 36.5319 20.0589 36.5319C19.0289 36.5319 18.2989 37.2719 18.2989 38.3019C18.2989 39.3419 19.0289 40.0819 20.0589 40.0819Z" fill="white"/>
<path d="M14.003 35.4819C15.273 35.4819 16.063 36.4219 16.063 37.7519V41.0019H14.953V37.9819C14.953 37.0019 14.523 36.4819 13.713 36.4819C12.863 36.4819 12.263 37.1619 12.263 38.1119V41.0019H11.153V35.6019H11.923L12.143 36.3619C12.543 35.8119 13.213 35.4819 14.003 35.4819Z" fill="white"/>
<path d="M49.823 23.3219C49.823 23.4419 49.813 23.5619 49.793 23.6819H45.413C45.553 24.5619 46.183 25.1019 47.063 25.1019C47.713 25.1019 48.233 24.8019 48.523 24.3019H49.693C49.263 25.4419 48.273 26.1419 47.063 26.1419C45.483 26.1419 44.293 24.9219 44.293 23.3019C44.293 21.6919 45.483 20.4719 47.063 20.4719C48.723 20.4719 49.823 21.7519 49.823 23.3219ZM47.063 21.4819C46.233 21.4819 45.623 21.9819 45.443 22.7819H48.703C48.503 21.9619 47.893 21.4819 47.063 21.4819Z" fill="white"/>
<path d="M43.0501 25.0019H43.6701V26.0019H42.8401C41.6601 26.0019 40.9301 25.2719 40.9301 24.0819V21.5619H39.9601V21.3419L41.8401 19.3419H42.0301V20.6019H43.6401V21.5619H42.0401V23.9919C42.0401 24.6419 42.4001 25.0019 43.0501 25.0019Z" fill="white"/>
<path d="M37.9445 19.7719V18.6219H39.0845V19.7719H37.9445ZM37.9645 26.0019V20.6019H39.0745V26.0019H37.9645Z" fill="white"/>
<path d="M34.5787 26.1419C33.2687 26.1419 32.4087 25.4119 32.3787 24.2919H33.4587C33.4887 24.8619 33.9687 25.1619 34.6187 25.1619C35.2187 25.1619 35.6787 24.9119 35.6787 24.4619C35.6787 23.9419 35.0987 23.8319 34.4387 23.7219C33.5387 23.5619 32.4787 23.3619 32.4787 22.1119C32.4787 21.1419 33.3087 20.4719 34.5687 20.4719C35.8187 20.4719 36.6387 21.1619 36.6587 22.2019H35.6087C35.5887 21.6919 35.1887 21.4119 34.5387 21.4119C33.9287 21.4119 33.5487 21.6819 33.5487 22.0719C33.5487 22.5519 34.0987 22.6419 34.7487 22.7519C35.6587 22.9019 36.7687 23.0819 36.7687 24.4119C36.7687 25.4619 35.8987 26.1419 34.5787 26.1419Z" fill="white"/>
<path d="M26.3208 26.1419C24.8308 26.1419 23.8608 25.1819 23.8608 23.7219V20.6019H24.9708V23.5719C24.9708 24.5119 25.4808 25.0819 26.3208 25.0819C27.1608 25.0819 27.6608 24.5019 27.6608 23.5719V20.6019H28.7708V23.7219C28.7708 25.1819 27.8108 26.1419 26.3208 26.1419Z" fill="white"/>
<path d="M22.7722 23.3219C22.7722 23.4419 22.7622 23.5619 22.7422 23.6819H18.3622C18.5022 24.5619 19.1322 25.1019 20.0122 25.1019C20.6622 25.1019 21.1822 24.8019 21.4722 24.3019H22.6422C22.2122 25.4419 21.2222 26.1419 20.0122 26.1419C18.4322 26.1419 17.2422 24.9219 17.2422 23.3019C17.2422 21.6919 18.4322 20.4719 20.0122 20.4719C21.6722 20.4719 22.7722 21.7519 22.7722 23.3219ZM20.0122 21.4819C19.1822 21.4819 18.5722 21.9819 18.3922 22.7819H21.6522C21.4522 21.9619 20.8422 21.4819 20.0122 21.4819Z" fill="white"/>
<path d="M13.8578 26.112C12.2878 26.112 11.2178 25.232 11.2178 23.802H12.3878C12.3878 24.582 13.0278 25.022 13.8478 25.022C14.5978 25.022 15.2278 24.622 15.2278 23.982C15.2278 23.282 14.4778 23.112 13.6378 22.912C12.5678 22.652 11.3378 22.352 11.3378 20.912C11.3378 19.652 12.2978 18.902 13.7878 18.902C15.3078 18.902 16.2078 19.732 16.2078 21.052H15.0678C15.0678 20.352 14.4878 19.972 13.7578 19.972C13.0578 19.972 12.4878 20.292 12.4878 20.862C12.4878 21.512 13.2078 21.682 14.0378 21.882C15.1278 22.152 16.4078 22.462 16.4078 23.972C16.4078 25.372 15.2778 26.112 13.8578 26.112Z" fill="white"/>
<path d="M288.516 406.862C289.182 406.977 289.624 407.502 289.624 408.187C289.624 409.006 288.996 409.595 288.158 409.595C287.352 409.595 286.763 409.038 286.731 408.238H287.416C287.441 408.66 287.742 408.948 288.158 408.948C288.606 408.948 288.926 408.622 288.926 408.161C288.926 407.707 288.58 407.393 288.094 407.393H287.556V407.265L288.44 405.895H286.852V405.262H289.457V405.409L288.516 406.862Z" fill="white"/>
<path d="M282.749 409.607C281.686 409.607 280.899 408.833 280.899 407.79C280.899 406.747 281.686 405.979 282.749 405.979C283.805 405.979 284.592 406.753 284.592 407.79C284.592 408.833 283.805 409.607 282.749 409.607ZM282.749 408.929C283.401 408.929 283.869 408.455 283.869 407.79C283.869 407.131 283.401 406.657 282.749 406.657C282.089 406.657 281.622 407.131 281.622 407.79C281.622 408.455 282.089 408.929 282.749 408.929Z" fill="white"/>
<path d="M279.423 405.531V404.795H280.153V405.531H279.423ZM279.436 409.518V406.062H280.147V409.518H279.436Z" fill="white"/>
<path d="M278.575 406.043H278.882V406.715H278.505C277.916 406.715 277.628 407.054 277.628 407.681V409.518H276.917V406.062H277.397L277.513 406.535C277.762 406.209 278.101 406.043 278.575 406.043Z" fill="white"/>
<path d="M274.919 404.699L274.311 405.671H273.767L274.164 404.699H274.919ZM275.354 406.062H275.898V409.518H275.329L275.258 409.102C274.945 409.415 274.509 409.607 274.004 409.607C272.973 409.607 272.205 408.827 272.205 407.79C272.205 406.753 272.973 405.979 274.004 405.979C274.516 405.979 274.957 406.171 275.271 406.497L275.354 406.062ZM274.061 408.923C274.714 408.923 275.188 408.443 275.188 407.79C275.188 407.137 274.714 406.657 274.061 406.657C273.409 406.657 272.929 407.143 272.929 407.79C272.929 408.436 273.409 408.923 274.061 408.923Z" fill="white"/>
<path d="M269.934 409.607C268.981 409.607 268.36 408.993 268.36 408.059V406.062H269.07V407.963C269.07 408.564 269.397 408.929 269.934 408.929C270.472 408.929 270.792 408.558 270.792 407.963V406.062H271.502V408.059C271.502 408.993 270.888 409.607 269.934 409.607Z" fill="white"/>
<path d="M266.251 409.607C265.412 409.607 264.862 409.14 264.843 408.423H265.534C265.553 408.788 265.86 408.98 266.276 408.98C266.66 408.98 266.955 408.82 266.955 408.532C266.955 408.199 266.583 408.129 266.161 408.059C265.585 407.956 264.907 407.828 264.907 407.028C264.907 406.407 265.438 405.979 266.244 405.979C267.044 405.979 267.569 406.42 267.582 407.086H266.91C266.897 406.759 266.641 406.58 266.225 406.58C265.835 406.58 265.591 406.753 265.591 407.003C265.591 407.31 265.943 407.367 266.359 407.438C266.942 407.534 267.652 407.649 267.652 408.5C267.652 409.172 267.095 409.607 266.251 409.607Z" fill="white"/>
<path d="M262.316 409.607C261.286 409.607 260.518 408.878 260.518 407.847V405.038H261.254V407.803C261.254 408.462 261.695 408.897 262.316 408.897C262.937 408.897 263.372 408.462 263.372 407.803V405.038H264.115V407.847C264.115 408.878 263.347 409.607 262.316 409.607Z" fill="white"/>
<path d="M269.004 348.267H270.592V348.92H267.68V348.734C269.542 346.705 269.766 346.353 269.766 345.867C269.766 345.489 269.51 345.24 269.126 345.24C268.729 345.24 268.46 345.496 268.46 345.873V345.969H267.769V345.867C267.769 345.105 268.313 344.587 269.126 344.587C269.913 344.587 270.464 345.112 270.464 345.861C270.464 346.424 270.246 346.878 269.004 348.267Z" fill="white"/>
<path d="M263.749 349.009C262.686 349.009 261.899 348.235 261.899 347.192C261.899 346.149 262.686 345.381 263.749 345.381C264.805 345.381 265.592 346.155 265.592 347.192C265.592 348.235 264.805 349.009 263.749 349.009ZM263.749 348.331C264.402 348.331 264.869 347.857 264.869 347.192C264.869 346.533 264.402 346.059 263.749 346.059C263.09 346.059 262.622 346.533 262.622 347.192C262.622 347.857 263.09 348.331 263.749 348.331Z" fill="white"/>
<path d="M260.424 344.933V344.197H261.153V344.933H260.424ZM260.437 348.92V345.464H261.147V348.92H260.437Z" fill="white"/>
<path d="M259.575 345.445H259.883V346.117H259.505C258.916 346.117 258.628 346.456 258.628 347.083V348.92H257.918V345.464H258.398L258.513 345.937C258.763 345.611 259.102 345.445 259.575 345.445Z" fill="white"/>
<path d="M255.919 344.101L255.311 345.073H254.767L255.164 344.101H255.919ZM256.354 345.464H256.898V348.92H256.329L256.258 348.504C255.945 348.817 255.51 349.009 255.004 349.009C253.974 349.009 253.206 348.229 253.206 347.192C253.206 346.155 253.974 345.381 255.004 345.381C255.516 345.381 255.958 345.573 256.271 345.899L256.354 345.464ZM255.062 348.325C255.714 348.325 256.188 347.845 256.188 347.192C256.188 346.539 255.714 346.059 255.062 346.059C254.409 346.059 253.929 346.545 253.929 347.192C253.929 347.838 254.409 348.325 255.062 348.325Z" fill="white"/>
<path d="M250.935 349.009C249.981 349.009 249.36 348.395 249.36 347.461V345.464H250.071V347.365C250.071 347.966 250.397 348.331 250.935 348.331C251.472 348.331 251.792 347.96 251.792 347.365V345.464H252.503V347.461C252.503 348.395 251.888 349.009 250.935 349.009Z" fill="white"/>
<path d="M247.251 349.009C246.412 349.009 245.862 348.542 245.843 347.825H246.534C246.553 348.19 246.86 348.382 247.276 348.382C247.66 348.382 247.955 348.222 247.955 347.934C247.955 347.601 247.584 347.531 247.161 347.461C246.585 347.358 245.907 347.23 245.907 346.43C245.907 345.809 246.438 345.381 247.244 345.381C248.044 345.381 248.569 345.822 248.582 346.488H247.91C247.897 346.161 247.641 345.982 247.225 345.982C246.835 345.982 246.592 346.155 246.592 346.405C246.592 346.712 246.944 346.769 247.36 346.84C247.942 346.936 248.652 347.051 248.652 347.902C248.652 348.574 248.096 349.009 247.251 349.009Z" fill="white"/>
<path d="M243.316 349.009C242.286 349.009 241.518 348.28 241.518 347.249V344.44H242.254V347.205C242.254 347.864 242.696 348.299 243.316 348.299C243.937 348.299 244.372 347.864 244.372 347.205V344.44H245.115V347.249C245.115 348.28 244.347 349.009 243.316 349.009Z" fill="white"/>
<path d="M199.641 318.748H201.075V323.004H200.397V319.375H199.641V318.748Z" fill="white"/>
<path d="M195.749 323.094C194.686 323.094 193.899 322.319 193.899 321.276C193.899 320.233 194.686 319.465 195.749 319.465C196.805 319.465 197.592 320.239 197.592 321.276C197.592 322.319 196.805 323.094 195.749 323.094ZM195.749 322.415C196.402 322.415 196.869 321.942 196.869 321.276C196.869 320.617 196.402 320.143 195.749 320.143C195.09 320.143 194.622 320.617 194.622 321.276C194.622 321.942 195.09 322.415 195.749 322.415Z" fill="white"/>
<path d="M192.424 319.017V318.281H193.153V319.017H192.424ZM192.437 323.004V319.548H193.147V323.004H192.437Z" fill="white"/>
<path d="M191.575 319.529H191.883V320.201H191.505C190.916 320.201 190.628 320.54 190.628 321.167V323.004H189.918V319.548H190.398L190.513 320.021C190.763 319.695 191.102 319.529 191.575 319.529Z" fill="white"/>
<path d="M187.919 318.185L187.311 319.157H186.767L187.164 318.185H187.919ZM188.354 319.548H188.898V323.004H188.329L188.258 322.588C187.945 322.901 187.51 323.093 187.004 323.093C185.974 323.093 185.206 322.313 185.206 321.276C185.206 320.239 185.974 319.465 187.004 319.465C187.516 319.465 187.958 319.657 188.271 319.983L188.354 319.548ZM187.062 322.409C187.714 322.409 188.188 321.929 188.188 321.276C188.188 320.623 187.714 320.143 187.062 320.143C186.409 320.143 185.929 320.629 185.929 321.276C185.929 321.922 186.409 322.409 187.062 322.409Z" fill="white"/>
<path d="M182.935 323.094C181.981 323.094 181.36 322.479 181.36 321.545V319.548H182.071V321.449C182.071 322.05 182.397 322.415 182.935 322.415C183.472 322.415 183.792 322.044 183.792 321.449V319.548H184.503V321.545C184.503 322.479 183.888 323.094 182.935 323.094Z" fill="white"/>
<path d="M179.251 323.094C178.412 323.094 177.862 322.626 177.843 321.91H178.534C178.553 322.274 178.86 322.466 179.276 322.466C179.66 322.466 179.955 322.306 179.955 322.018C179.955 321.686 179.584 321.615 179.161 321.545C178.585 321.442 177.907 321.314 177.907 320.514C177.907 319.894 178.438 319.465 179.244 319.465C180.044 319.465 180.569 319.906 180.582 320.572H179.91C179.897 320.246 179.641 320.066 179.225 320.066C178.835 320.066 178.592 320.239 178.592 320.489C178.592 320.796 178.944 320.854 179.36 320.924C179.942 321.02 180.652 321.135 180.652 321.986C180.652 322.658 180.096 323.094 179.251 323.094Z" fill="white"/>
<path d="M175.316 323.094C174.286 323.094 173.518 322.364 173.518 321.334V318.524H174.254V321.289C174.254 321.948 174.696 322.383 175.316 322.383C175.937 322.383 176.372 321.948 176.372 321.289V318.524H177.115V321.334C177.115 322.364 176.347 323.094 175.316 323.094Z" fill="white"/>
<path d="M339.777 338.172V338.786H339.361V339.644H338.702V338.786H336.577V338.646L338.036 335.388H338.74L337.492 338.172H338.715L338.824 336.988H339.361V338.172H339.777Z" fill="white"/>
<path d="M332.749 339.734C331.686 339.734 330.899 338.959 330.899 337.916C330.899 336.873 331.686 336.105 332.749 336.105C333.805 336.105 334.592 336.879 334.592 337.916C334.592 338.959 333.805 339.734 332.749 339.734ZM332.749 339.055C333.401 339.055 333.869 338.582 333.869 337.916C333.869 337.257 333.401 336.783 332.749 336.783C332.089 336.783 331.622 337.257 331.622 337.916C331.622 338.582 332.089 339.055 332.749 339.055Z" fill="white"/>
<path d="M329.423 335.657V334.921H330.153V335.657H329.423ZM329.436 339.644V336.188H330.147V339.644H329.436Z" fill="white"/>
<path d="M328.575 336.169H328.882V336.841H328.505C327.916 336.841 327.628 337.18 327.628 337.807V339.644H326.917V336.188H327.397L327.513 336.662C327.762 336.335 328.101 336.169 328.575 336.169Z" fill="white"/>
<path d="M324.919 334.825L324.311 335.798H323.767L324.164 334.825H324.919ZM325.354 336.188H325.898V339.644H325.329L325.258 339.228C324.945 339.542 324.509 339.734 324.004 339.734C322.973 339.734 322.205 338.953 322.205 337.916C322.205 336.879 322.973 336.105 324.004 336.105C324.516 336.105 324.957 336.297 325.271 336.623L325.354 336.188ZM324.061 339.049C324.714 339.049 325.188 338.569 325.188 337.916C325.188 337.263 324.714 336.783 324.061 336.783C323.409 336.783 322.929 337.27 322.929 337.916C322.929 338.562 323.409 339.049 324.061 339.049Z" fill="white"/>
<path d="M319.934 339.734C318.981 339.734 318.36 339.119 318.36 338.185V336.188H319.07V338.089C319.07 338.69 319.397 339.055 319.934 339.055C320.472 339.055 320.792 338.684 320.792 338.089V336.188H321.502V338.185C321.502 339.119 320.888 339.734 319.934 339.734Z" fill="white"/>
<path d="M316.251 339.734C315.412 339.734 314.862 339.266 314.843 338.55H315.534C315.553 338.914 315.86 339.106 316.276 339.106C316.66 339.106 316.955 338.946 316.955 338.658C316.955 338.326 316.583 338.255 316.161 338.185C315.585 338.082 314.907 337.954 314.907 337.154C314.907 336.534 315.438 336.105 316.244 336.105C317.044 336.105 317.569 336.546 317.582 337.212H316.91C316.897 336.886 316.641 336.706 316.225 336.706C315.835 336.706 315.591 336.879 315.591 337.129C315.591 337.436 315.943 337.494 316.359 337.564C316.942 337.66 317.652 337.775 317.652 338.626C317.652 339.298 317.095 339.734 316.251 339.734Z" fill="white"/>
<path d="M312.316 339.734C311.286 339.734 310.518 339.004 310.518 337.974V335.164H311.254V337.929C311.254 338.588 311.695 339.023 312.316 339.023C312.937 339.023 313.372 338.588 313.372 337.929V335.164H314.115V337.974C314.115 339.004 313.347 339.734 312.316 339.734Z" fill="white"/>
</svg>
