<svg width="37" height="37" viewBox="0 0 37 37" fill="none" xmlns="http://www.w3.org/2000/svg">
<path d="M19.7719 17.4427C19.7719 14.4619 22.1284 12.0476 25.0329 12.0476C27.9397 12.0476 30.2938 14.4595 30.2938 17.4427C30.2938 20.4235 27.9397 22.8377 25.0329 22.8377C22.1307 22.8377 19.7719 20.4258 19.7719 17.4427Z" fill="#1ABCFE"/>
<path d="M9.25006 27.1779C9.25006 24.1971 11.6065 21.7805 14.511 21.7805H19.7719V27.1779C19.7719 30.1564 17.4155 32.573 14.511 32.573C11.6065 32.573 9.25006 30.1564 9.25006 27.1779Z" fill="#0ACF83"/>
<path d="M19.7719 2.3125V13.1049H25.0329C27.9397 13.1049 30.2938 10.6884 30.2938 7.70756C30.2938 4.72906 27.9397 2.3125 25.0329 2.3125H19.7719Z" fill="#FF7262"/>
<path d="M9.25006 7.70756C9.25006 10.6884 11.6065 13.1049 14.511 13.1049H19.7719V2.3125H14.511C11.6065 2.3125 9.25006 4.72906 9.25006 7.70756Z" fill="#F24E1E"/>
<path d="M9.25006 17.4427C9.25006 20.4235 11.6065 22.8377 14.511 22.8377H19.7719V12.0476H14.511C11.6065 12.0476 9.25006 14.4595 9.25006 17.4427Z" fill="#A259FF"/>
</svg>
