<svg width="145" height="145" viewBox="0 0 145 145" fill="none" xmlns="http://www.w3.org/2000/svg">
<circle cx="72.5" cy="72.5" r="72.5" fill="url(#paint0_linear_2_79)" fill-opacity="0.2"/>
<path d="M73.3816 73.2974C73.3816 66.063 79.2463 60.1983 86.4806 60.1983C93.715 60.1983 99.5797 66.0631 99.5797 73.2974C99.5797 80.5319 93.7149 86.3964 86.4806 86.3964C79.2461 86.3964 73.3816 80.5318 73.3816 73.2974Z" fill="#00BCFF"/>
<path d="M47.1841 99.4963C47.1841 92.2619 53.0487 86.3973 60.2831 86.3973L67.2638 82.7118L73.3822 86.3973V99.4963C73.3822 106.731 67.5175 112.595 60.2831 112.595C53.0487 112.595 47.1841 106.731 47.1841 99.4963Z" fill="#00CF7F"/>
<path d="M73.382 34L66.2542 46.3833L73.382 60.1981H86.2973C93.5319 60.1981 99.3964 54.3334 99.3964 47.099C99.3964 39.8647 93.5317 34 86.2973 34H73.382Z" fill="#FF7361"/>
<path d="M47 47.099C47 54.3334 52.8647 60.1981 60.099 60.1981L67.0478 62.882L73.3818 60.1981V34H60.0989C52.8647 34 47 39.8647 47 47.099Z" fill="#FF4D12"/>
<path d="M47.1841 73.2975C47.1841 80.5321 53.0487 86.3966 60.2831 86.3966H73.3822V60.1983H60.2831C53.0487 60.1983 47.1841 66.0631 47.1841 73.2975Z" fill="#B659FF"/>
<defs>
<linearGradient id="paint0_linear_2_79" x1="72.5" y1="0" x2="72.5" y2="145" gradientUnits="userSpaceOnUse">
<stop stop-color="#B659FF"/>
<stop offset="1" stop-color="#4B1874"/>
</linearGradient>
</defs>
</svg>
