<svg width="800" height="800" viewBox="0 0 800 800" fill="none" xmlns="http://www.w3.org/2000/svg">
<path fill-rule="evenodd" clip-rule="evenodd" d="M700 100C685.911 291.867 635.911 430.756 550 516.667C534.764 531.903 518.081 545.831 499.952 558.452L499.952 633.179L399.952 733.179L338.929 626.392L173.737 461.183L66.6666 400L166.667 300L241.791 300.001C254.298 281.855 268.145 265.188 283.333 250C369.244 164.089 508.133 114.089 700 100ZM279.682 615.168L326.823 662.309L256.112 733.019L208.971 685.879L279.682 615.168ZM208.971 544.458L256.112 591.598L138.261 709.449L91.1203 662.309L208.971 544.458ZM138.261 473.747L185.401 520.887L114.691 591.598L67.5501 544.458L138.261 473.747ZM450 300C422.386 300 400 322.386 400 350C400 377.614 422.386 400 450 400C477.614 400 500 377.614 500 350C500 322.386 477.614 300 450 300Z" fill="#946DEA"/>
</svg>
