<svg width="31" height="42" viewBox="0 0 31 42" fill="none" xmlns="http://www.w3.org/2000/svg">
<path d="M27.125 15.5H25.8333V10.3333C25.8333 4.6345 21.1988 0 15.5 0C9.80117 0 5.16667 4.6345 5.16667 10.3333V15.5H3.875C1.73944 15.5 0 17.2377 0 19.375V37.4583C0 39.5956 1.73944 41.3333 3.875 41.3333H27.125C29.2606 41.3333 31 39.5956 31 37.4583V19.375C31 17.2377 29.2606 15.5 27.125 15.5ZM8.61111 10.3333C8.61111 6.53411 11.7008 3.44444 15.5 3.44444C19.2992 3.44444 22.3889 6.53411 22.3889 10.3333V15.5H8.61111V10.3333ZM17.2222 28.799V32.7222C17.2222 33.6729 16.4524 34.4444 15.5 34.4444C14.5476 34.4444 13.7778 33.6729 13.7778 32.7222V28.799C12.7531 28.2014 12.0556 27.1026 12.0556 25.8333C12.0556 23.9337 13.6004 22.3889 15.5 22.3889C17.3996 22.3889 18.9444 23.9337 18.9444 25.8333C18.9444 27.1026 18.2469 28.2014 17.2222 28.799Z" fill="#FFC42B"/>
</svg>
