<svg width="145" height="145" viewBox="0 0 145 145" fill="none" xmlns="http://www.w3.org/2000/svg">
<path d="M72.5 145C112.541 145 145 112.541 145 72.5C145 32.4594 112.541 0 72.5 0C32.4594 0 0 32.4594 0 72.5C0 112.541 32.4594 145 72.5 145Z" fill="url(#paint0_linear_131_23)" fill-opacity="0.2"/>
<g clip-path="url(#clip0_131_23)">
<path d="M89.6805 43.8843H59.2858C54.4896 43.8843 50.6016 47.7775 50.6016 52.5799V93.1596C50.6016 97.9621 54.4896 101.855 59.2858 101.855H89.6805C94.4767 101.855 98.3647 97.9621 98.3647 93.1596V52.5799C98.3647 47.7775 94.4767 43.8843 89.6805 43.8843Z" fill="white"/>
<path d="M92.7115 46.7111L51.2885 46.7004L51.9576 55.4417L83.7805 55.447L82.9782 64.5003H62.1083L62.8628 73.0763H82.2917L81.1422 84.8212L71.9976 87.5019L62.7069 84.8024L62.1158 77.7683H53.9117L54.8222 90.6176L71.9976 96.2939L88.8835 91.1937L92.7089 46.7137L92.7115 46.7111ZM39 32H105L98.9966 103.878L71.9271 112L45.0085 103.872L39 32Z" fill="#264DE4"/>
</g>
<defs>
<linearGradient id="paint0_linear_131_23" x1="72.5" y1="0" x2="72.5" y2="145" gradientUnits="userSpaceOnUse">
<stop stop-color="#1F3483"/>
<stop offset="1" stop-color="#132158"/>
</linearGradient>
<clipPath id="clip0_131_23">
<rect width="66" height="80" fill="white" transform="translate(39 32)"/>
</clipPath>
</defs>
</svg>
