<svg width="45" height="45" viewBox="0 0 45 45" fill="none" xmlns="http://www.w3.org/2000/svg">
<path d="M30.9352 3.4458C27.3486 4.99294 23.6214 7.24334 20.3865 10.4783C14.0573 16.8075 11.5256 25.3871 10.541 29.9582C10.4707 30.1692 10.541 30.4505 10.752 30.5911L14.4089 34.248C14.5495 34.3887 14.6902 34.459 14.9012 34.459C15.745 34.459 27.1376 31.9976 34.5217 24.6135C37.7567 21.3786 40.0071 17.6514 41.5542 14.0648C36.9128 12.0254 32.9746 8.08723 30.9352 3.4458ZM31.4978 19.1282C29.9506 20.6754 27.419 20.6754 25.9421 19.1282C24.4653 17.6514 24.3247 15.1197 25.9421 13.5726C27.4893 12.0254 30.021 12.0254 31.4978 13.5726C32.9746 15.0494 33.0449 17.5811 31.4978 19.1282Z" fill="#2EC9D4"/>
<path d="M44.2265 0C43.8748 0 38.4598 0.421948 32.2009 2.95364C34.0997 7.17312 37.8269 10.9003 42.0464 12.7991C44.5781 6.46987 45 1.1252 45 0.773572C45 0.281299 44.6484 0 44.2265 0Z" fill="#2EC9D4"/>
<path d="M10.3298 34.5995C8.78265 33.0523 6.18064 32.982 4.56317 34.5995C3.15668 36.0763 2.17213 41.4913 2.10181 42.1242C2.10181 42.3352 2.17213 42.5462 2.31278 42.7571C2.45343 42.8275 2.59408 42.8978 2.80505 42.8978H2.9457C3.57863 42.8275 8.9233 41.8429 10.4001 40.4364C11.9473 38.819 11.9473 36.2169 10.3298 34.5995Z" fill="#2EC9D4"/>
<path d="M13.8462 16.9482C13.7055 16.9482 13.6352 16.9482 13.4945 16.9482C10.8925 16.9482 8.92342 17.5812 7.7279 18.7767L0.20316 26.3718C-0.218788 26.7937 0.0625109 27.4969 0.625109 27.5673L9.55635 28.1299C10.2596 25.1762 11.5958 21.0271 13.8462 16.9482Z" fill="#2EC9D4"/>
<path d="M18.6986 44.7963L26.153 37.2716C27.7001 35.7244 28.0517 33.3334 28.0517 31.1533C23.9729 33.4037 19.8941 34.7399 16.8701 35.4431L17.503 44.304C17.503 44.937 18.2766 45.2183 18.6986 44.7963Z" fill="#2EC9D4"/>
</svg>
