<svg width="40" height="40" viewBox="0 0 40 40" fill="none" xmlns="http://www.w3.org/2000/svg">
<path d="M18.6821 26.9852H35.2884V4.15157H12.4548V20.7578H8.30322V3.11368C8.30322 1.39403 9.69726 0 11.4169 0H36.3263C38.0459 0 39.44 1.39403 39.44 3.11368V28.0231C39.44 29.7427 38.0459 31.1368 36.3263 31.1368H18.6821V26.9852Z" fill="#FF38AF"/>
<path d="M18.682 8.30326C17.5356 8.30328 16.6062 9.23263 16.6062 10.3791C16.6062 11.5255 17.5356 12.4549 18.682 12.4548L24.0496 12.4548L17.2142 19.2902C16.4035 20.1008 16.4035 21.4152 17.2142 22.2258C18.0248 23.0364 19.3391 23.0364 20.1498 22.2258L26.9851 15.3904V20.758C26.9851 21.9044 27.9145 22.8338 29.0609 22.8338C30.2074 22.8338 31.1367 21.9044 31.1367 20.758V10.379C31.1367 10.3272 31.1348 10.2755 31.1309 10.2242C31.0939 9.73026 30.8814 9.26383 30.5287 8.9112C30.5071 8.88947 30.4849 8.86827 30.4623 8.84762C30.1011 8.51665 29.6513 8.33662 29.1936 8.30748C29.1496 8.30465 29.1053 8.30322 29.0609 8.30322L18.682 8.30326Z" fill="#FF38AF"/>
<path d="M0 28.0233C0 26.3038 1.39404 24.9097 3.11368 24.9097H11.4168C13.1365 24.9097 14.5305 26.3038 14.5305 28.0233V36.3265C14.5305 38.0461 13.1365 39.4402 11.4168 39.4402H3.11368C1.39404 39.4402 0 38.0461 0 36.3265V28.0233Z" fill="#FF38AF"/>
</svg>
