<svg width="45" height="45" viewBox="0 0 45 45" fill="none" xmlns="http://www.w3.org/2000/svg">
<path fill-rule="evenodd" clip-rule="evenodd" d="M34.2107 25.8807C33.9567 26.7618 33.606 27.602 33.1707 28.3888L34.0509 30.1162C34.3321 30.6681 34.2304 31.3107 33.7923 31.7488L31.7489 33.7922C31.3108 34.2303 30.6684 34.332 30.1163 34.0508L28.3889 33.1706C27.602 33.6059 26.7619 33.9566 25.8808 34.2106L25.2822 36.0532C25.0907 36.6424 24.5644 37.0248 23.9449 37.0248H21.0551C20.4355 37.0248 19.9092 36.6425 19.7178 36.0533L19.1191 34.2106C18.238 33.9567 17.3978 33.6059 16.611 33.1707L14.8836 34.0508C14.3316 34.3321 13.6891 34.2303 13.251 33.7922L11.2076 31.7488C10.7695 31.3107 10.6678 30.6682 10.949 30.1162L11.8292 28.3887C11.3939 27.6018 11.0432 26.7617 10.7892 25.8807L8.94664 25.282C8.35741 25.0906 7.97502 24.5643 7.97502 23.9447V21.0549C7.97502 20.4354 8.35741 19.909 8.94655 19.7175L10.7892 19.1189C11.0431 18.2377 11.3939 17.3977 11.8291 16.6108L10.949 14.8834C10.6677 14.3313 10.7695 13.6889 11.2076 13.2508L13.2509 11.2074C13.689 10.7693 14.3316 10.6675 14.8836 10.9487L16.611 11.829C17.3978 11.3937 18.238 11.043 19.119 10.7889L19.7177 8.94642C19.9091 8.35719 20.4354 7.9748 21.0549 7.9748H23.9447C24.5643 7.9748 25.0906 8.3571 25.282 8.94642L25.8807 10.7892C26.7618 11.0432 27.6018 11.3939 28.3886 11.829L30.1161 10.9487C30.6682 10.6674 31.3107 10.7693 31.7488 11.2074L33.7922 13.2507C34.2303 13.6888 34.332 14.3312 34.0508 14.8833L33.1706 16.6107C33.6058 17.3976 33.9566 18.2377 34.2106 19.1188L36.0532 19.7174C36.6424 19.9089 37.0248 20.4352 37.0248 21.0547V23.9445C37.0248 24.5641 36.6425 25.0903 36.0532 25.2819L34.2106 25.8805L34.2107 25.8807ZM6.61489 11.4692L8.45914 13.3134L10.3124 5.45826L2.45727 7.31147L4.34745 9.20165C-2.11877 18.0053 -1.37211 30.4484 6.58955 38.4101C13.754 45.5745 24.5472 46.8965 33.052 42.378L30.695 40.021C23.5323 43.3706 14.74 42.0887 8.82552 36.1742C2.10187 29.4505 1.36637 19.0087 6.61489 11.4692ZM34.6871 39.5414L42.5423 37.6882L40.6528 35.7987C47.1191 26.9951 46.3718 14.5514 38.41 6.58969C31.2456 -0.574803 20.4523 -1.89679 11.9475 2.62162L14.3045 4.97863C21.4671 1.62906 30.2594 2.91098 36.174 8.82548C42.8977 15.5491 43.6338 25.9914 38.385 33.5309L36.5402 31.6861L34.687 39.5413L34.6871 39.5414ZM25.324 19.6758C23.7643 18.1162 21.2356 18.1162 19.676 19.6758C18.1163 21.2355 18.1163 23.7642 19.676 25.3238C21.2356 26.8835 23.7643 26.8835 25.324 25.3238C26.8836 23.7642 26.8836 21.2355 25.324 19.6758ZM28.243 16.7568C25.0712 13.5849 19.9287 13.5849 16.7569 16.7568C13.5851 19.9286 13.5851 25.0711 16.7569 28.2429C19.9287 31.4147 25.0712 31.4147 28.243 28.2429C31.4149 25.0711 31.4149 19.9286 28.243 16.7568Z" fill="#CBC535"/>
</svg>
