<svg width="43" height="42" viewBox="0 0 43 42" fill="none" xmlns="http://www.w3.org/2000/svg">
<path fill-rule="evenodd" clip-rule="evenodd" d="M15.6352 33.8829C11.1806 33.8829 6.95631 33.2523 3.74047 32.1072C2.23337 31.5705 0.980908 30.9318 0.00887305 30.2051C0.00887305 30.2051 0.00878906 35.5667 0.00878906 35.899C0.00878906 38.9721 7.00494 41.4634 15.6352 41.4634C24.2653 41.4634 31.2615 38.9721 31.2615 35.899V30.2051C30.2894 30.9318 29.037 31.5705 27.5299 32.1072C24.314 33.2523 20.0898 33.8829 15.6352 33.8829Z" fill="#8ED139"/>
<path fill-rule="evenodd" clip-rule="evenodd" d="M33.2882 0.493652C27.9392 0.493652 23.5767 4.8563 23.5767 10.2053C23.5767 15.5542 27.9393 19.9169 33.2882 19.9169C38.6372 19.9169 42.9998 15.5542 42.9998 10.2053C42.9998 4.8563 38.6372 0.493652 33.2882 0.493652ZM38.7392 14.8774C38.7392 14.8774 36.7159 15.6834 36.715 15.6838C36.3738 15.8198 35.9543 15.7939 35.6295 15.6105C35.2974 15.4231 35.0681 15.0953 35.0058 14.7191L34.6503 12.5694C34.5366 11.883 35.0011 11.2345 35.6875 11.121C35.9999 11.0693 36.3036 11.1382 36.5533 11.2922C36.6696 10.9429 36.7305 10.5759 36.7305 10.2054C36.7305 8.30731 35.1862 6.76317 33.2883 6.76317C31.3903 6.76317 29.8461 8.30731 29.8461 10.2054C29.8461 10.7866 29.9948 11.3627 30.2761 11.8713C30.6129 12.4801 30.3923 13.2466 29.7835 13.5834C29.1746 13.9202 28.4081 13.6995 28.0713 13.0907C27.5841 12.2098 27.3266 11.2121 27.3266 10.2053C27.3266 6.91795 30.001 4.24355 33.2883 4.24355C36.5755 4.24355 39.25 6.91795 39.25 10.2053C39.25 11.0125 39.0847 11.8105 38.769 12.5491C39.066 12.6763 39.3142 12.917 39.4432 13.2408C39.7007 13.8871 39.3855 14.6199 38.7392 14.8774Z" fill="#8ED139"/>
<path fill-rule="evenodd" clip-rule="evenodd" d="M15.6263 11.1289C17.5397 11.1289 19.3743 11.0051 21.0711 10.7793C21.0623 10.589 21.0572 10.3978 21.0572 10.2054C21.0572 6.61444 22.6129 3.3802 25.0854 1.14068C22.4564 0.425717 19.1767 2.11627e-09 15.6263 2.11627e-09C7.01967 -8.39823e-05 0 2.49954 0 5.56438C0 8.62923 7.01967 11.1289 15.6263 11.1289Z" fill="#8ED139"/>
<path fill-rule="evenodd" clip-rule="evenodd" d="M3.74055 11.8696C2.23404 11.3331 0.981496 10.6955 0.00887305 9.9707C0.00887305 9.9707 0.00878906 15.3243 0.00878906 15.6565C0.00878906 18.7297 7.00494 21.221 15.6352 21.221C19.5226 21.221 23.0782 20.7153 25.8125 19.8788C23.7001 18.2426 22.1356 15.9314 21.4465 13.2713C19.5997 13.519 17.6359 13.6486 15.6264 13.6486C11.1832 13.6485 6.96211 13.0167 3.74055 11.8696Z" fill="#8ED139"/>
<path fill-rule="evenodd" clip-rule="evenodd" d="M27.5298 21.9646C24.3139 23.1097 20.0897 23.7403 15.6352 23.7403C11.1806 23.7403 6.95631 23.1097 3.74047 21.9646C2.23337 21.4279 0.980908 20.7892 0.00887305 20.0625C0.00887305 20.0625 0.00878906 25.4666 0.00878906 25.7988C0.00878906 28.872 7.00494 31.3633 15.6352 31.3633C24.2653 31.3633 31.2615 28.872 31.2615 25.7988V22.2675C30.3555 22.1157 29.4829 21.8641 28.6555 21.5242C28.2978 21.6777 27.9227 21.8247 27.5298 21.9646Z" fill="#8ED139"/>
</svg>
