<svg width="40" height="40" viewBox="0 0 40 40" fill="none" xmlns="http://www.w3.org/2000/svg">
<path fill-rule="evenodd" clip-rule="evenodd" d="M0 4.54541V34.5454C0 37.0545 6.91818 39.0909 15.4545 39.0909C17.2429 39.0915 19.0301 39.0005 20.8091 38.8181L30.9091 13.509V4.54541H0Z" fill="#547580"/>
<path d="M15.4545 9.09091C23.9899 9.09091 30.9091 7.05584 30.9091 4.54545C30.9091 2.03507 23.9899 0 15.4545 0C6.91924 0 0 2.03507 0 4.54545C0 7.05584 6.91924 9.09091 15.4545 9.09091Z" fill="#95A5A5"/>
<path fill-rule="evenodd" clip-rule="evenodd" d="M12.7273 26.3636C12.7287 27.2575 12.8139 28.1493 12.9818 29.0272C5.61818 28.6818 0 26.809 0 24.5454V14.5454C0 16.9909 6.59091 18.9909 14.8364 19.0818C13.4546 21.2588 12.7229 23.785 12.7273 26.3636Z" fill="#3F5C6C"/>
<path fill-rule="evenodd" clip-rule="evenodd" d="M40 26.3635C39.9975 33.8937 33.8938 39.9974 26.3637 39.9999C24.4493 40.0045 22.5558 39.6016 20.8091 38.8181C16.7691 37.0137 13.8524 33.3653 12.9818 29.0272C12.8139 28.1492 12.7287 27.2574 12.7273 26.3635C12.7273 18.8324 18.8325 12.7272 26.3637 12.7272C33.8948 12.7272 40 18.8324 40 26.3635Z" fill="#46B29D"/>
<path fill-rule="evenodd" clip-rule="evenodd" d="M37.0065 25.7209L34.2792 22.9936C33.9242 22.6387 33.3488 22.6387 32.9938 22.9936L30.2665 25.7209C29.922 26.0776 29.9269 26.6446 30.2776 26.9953C30.6282 27.3459 31.1952 27.3509 31.5519 27.0063L32.7274 25.8309V26.3636C32.7274 29.8782 29.8783 32.7273 26.3638 32.7273C22.8492 32.7273 20.0001 29.8782 20.0001 26.3636C20.0001 22.8491 22.8492 20 26.3638 20C27.8105 19.9944 29.215 20.4872 30.341 21.3954C30.5937 21.6059 30.9403 21.6636 31.2475 21.5462C31.5546 21.4288 31.7745 21.1546 31.8223 20.8293C31.8702 20.504 31.7386 20.1781 31.4783 19.9773C28.4976 17.5901 24.2619 17.5824 21.2725 19.9587C18.2831 22.335 17.3352 26.4633 18.9885 29.9057C20.6418 33.3481 24.4566 35.1889 28.1801 34.3411C31.9037 33.4933 34.5455 30.1824 34.5456 26.3636V25.8309L35.721 27.0063C36.0777 27.3509 36.6447 27.3459 36.9954 26.9953C37.3461 26.6446 37.351 26.0776 37.0065 25.7209Z" fill="white"/>
</svg>
