<svg width="29" height="25" viewBox="0 0 29 25" fill="none" xmlns="http://www.w3.org/2000/svg">
<path d="M14.0618 9.55759C16.701 9.55759 18.8405 7.41805 18.8405 4.7788C18.8405 2.13954 16.701 0 14.0618 0C11.4225 0 9.28296 2.13954 9.28296 4.7788C9.28296 7.41805 11.4225 9.55759 14.0618 9.55759Z" fill="#903CD3"/>
<path d="M23.7291 9.55754C25.3976 9.55754 26.7502 8.20495 26.7502 6.53646C26.7502 4.86796 25.3976 3.51538 23.7291 3.51538C22.0606 3.51538 20.708 4.86796 20.708 6.53646C20.708 8.20495 22.0606 9.55754 23.7291 9.55754Z" fill="#903CD3"/>
<path d="M4.39437 9.55754C6.06286 9.55754 7.41545 8.20495 7.41545 6.53646C7.41545 4.86796 6.06286 3.51538 4.39437 3.51538C2.72587 3.51538 1.37329 4.86796 1.37329 6.53646C1.37329 8.20495 2.72587 9.55754 4.39437 9.55754Z" fill="#903CD3"/>
<path d="M7.37088 12.2706C6.18167 11.2962 5.10469 11.4252 3.72966 11.4252C1.67313 11.4252 0 13.0884 0 15.1323V21.1311C0 22.0188 0.724509 22.7405 1.61545 22.7405C5.46189 22.7405 4.99851 22.8101 4.99851 22.5746C4.99851 18.3239 4.49503 15.2067 7.37088 12.2706Z" fill="#903CD3"/>
<path d="M15.3696 11.4471C12.9679 11.2468 10.8803 11.4494 9.07969 12.9357C6.06647 15.3493 6.64635 18.599 6.64635 22.5746C6.64635 23.6264 7.50214 24.4982 8.56996 24.4982C20.1644 24.4982 20.6259 24.8722 21.3134 23.3496C21.5389 22.8347 21.4771 22.9984 21.4771 18.0726C21.4771 14.1603 18.0895 11.4471 15.3696 11.4471Z" fill="#903CD3"/>
<path d="M24.3939 11.4251C23.0114 11.4251 21.9403 11.2974 20.7527 12.2704C23.6071 15.1847 23.1251 18.0893 23.1251 22.5745C23.1251 22.8115 22.7404 22.7404 26.4504 22.7404C27.3732 22.7404 28.1236 21.9928 28.1236 21.0738V15.1322C28.1236 13.0883 26.4504 11.4251 24.3939 11.4251Z" fill="#903CD3"/>
</svg>
