<svg width="769" height="447" viewBox="0 0 769 447" fill="none" xmlns="http://www.w3.org/2000/svg">
<path d="M598.99 446.405H127.229C57.4219 446.405 0 390.005 0 318.941C0 249.005 56.296 191.478 127.229 191.478C132.859 191.478 138.488 191.477 142.992 192.605C159.881 70.7813 272.473 -13.8185 394.072 3.10152C461.627 12.1255 521.301 52.7336 556.205 112.518C646.278 88.8296 739.729 141.845 763.374 233.213C787.018 323.453 734.1 417.077 642.9 440.765C628.263 444.149 613.627 446.405 598.99 446.405ZM127.229 205.013C65.3033 205.013 14.6369 255.773 14.6369 317.813C14.6369 379.853 65.3033 430.613 127.229 430.613H598.99C684.559 430.613 754.366 360.677 754.366 274.949C754.366 189.221 684.559 119.285 598.99 119.285C583.227 119.285 568.59 121.541 552.827 126.053L547.197 127.181L544.945 122.67C489.775 21.1496 363.672 -16.0743 262.339 39.1976C202.666 71.9096 162.132 132.821 155.377 200.501L154.251 208.398L146.37 207.269C140.74 206.141 133.984 206.141 127.229 205.013Z" fill="#DEEAF3"/>
</svg>
