<svg width="36" height="41" viewBox="0 0 36 41" fill="none" xmlns="http://www.w3.org/2000/svg">
<path d="M25.8221 27.9482H23.8521C23.65 31.0013 21.1033 33.4238 17.9999 33.4238C14.8965 33.4238 12.3498 31.0013 12.1477 27.9482H10.1777C4.78621 27.9482 0.399902 32.3346 0.399902 37.726V39.0558C0.399902 39.7038 0.925243 40.2291 1.57324 40.2291H34.4266C35.0746 40.2291 35.5999 39.7038 35.5999 39.0558V37.726C35.5999 32.3346 31.2136 27.9482 25.8221 27.9482Z" fill="#2EC9D4"/>
<path d="M7.83104 17.7798V13.0864C6.53498 13.0864 5.48438 14.137 5.48438 15.4331C5.48438 16.7292 6.53498 17.7798 7.83104 17.7798Z" fill="#2EC9D4"/>
<path d="M21.0814 7.95451C21.5041 7.53172 22.1772 7.49448 22.6441 7.86792L26.2338 10.7397H28.1688V10.3486C28.1688 4.73246 23.6161 0.179688 17.9999 0.179688C12.3838 0.179688 7.83105 4.73246 7.83105 10.3486V10.7397H14.3575C16.8795 10.7397 19.2981 9.73782 21.0814 7.95451Z" fill="#2EC9D4"/>
<path d="M14.48 26.9287V27.5571C14.48 29.5012 16.0559 31.0771 18 31.0771C19.944 31.0771 21.52 29.5012 21.52 27.5571V26.9287C20.4226 27.3348 19.2368 27.5571 18 27.5571C16.7631 27.5571 15.5774 27.3349 14.48 26.9287Z" fill="#2EC9D4"/>
<path d="M17.6088 21.6905C17.6088 21.0425 18.1342 20.5172 18.7822 20.5172H25.1707C25.5894 19.5589 25.8222 18.5009 25.8222 17.3883V13.4153L21.962 10.3271C19.8327 12.1132 17.1696 13.086 14.3572 13.086H10.1777V17.3883C10.1777 21.7083 13.6798 25.2105 18 25.2105C20.1879 25.2105 22.1658 24.3118 23.5854 22.8638H18.7822C18.1342 22.8638 17.6088 22.3385 17.6088 21.6905Z" fill="#2EC9D4"/>
<path d="M28.1689 17.7798H29.3422V18.562C29.3422 19.6403 28.465 20.5175 27.3867 20.5175H25.1707C24.787 21.3956 24.2469 22.1895 23.5854 22.8642H27.3867C29.7589 22.8642 31.6889 20.9342 31.6889 18.562V15.4331C31.6889 14.137 30.6383 13.0864 29.3422 13.0864H28.1689V17.7798Z" fill="#2EC9D4"/>
</svg>
