<svg width="40" height="40" viewBox="0 0 40 40" fill="none" xmlns="http://www.w3.org/2000/svg">
<path d="M20.0048 5.90959e-07C8.95906 -0.00265566 0.00265684 8.94953 5.90959e-07 19.9952C-0.00265566 31.0409 8.94953 39.9973 19.9952 40C31.0409 40.0027 39.9973 31.0505 40 20.0048C40 20.0032 40 20.0016 40 20C40 8.95617 31.0486 0.00265684 20.0048 5.90959e-07Z" fill="#AB003A"/>
<path d="M11.6689 11.6644H15.0023V28.3311H11.6689V11.6644Z" fill="#FF7CE8"/>
<path d="M18.3357 24.9977H28.3357V28.331H18.3357V24.9977Z" fill="#FF7CE8"/>
<path d="M18.3357 18.3309H28.3357V21.6643H18.3357V18.3309Z" fill="#FF7CE8"/>
<path d="M18.3357 11.6644H28.3357V14.9978H18.3357V11.6644Z" fill="#FF7CE8"/>
</svg>
