<svg width="556" height="365" viewBox="0 0 556 365" fill="none" xmlns="http://www.w3.org/2000/svg">
<path d="M330.014 245.289L70.097 245.289C31.6367 245.289 -2.39116e-06 214.233 -1.9544e-06 175.102C-1.52457e-06 136.592 31.0163 104.914 70.097 104.914C73.1986 104.914 76.3002 104.914 78.7815 105.535C88.0865 38.4536 150.119 -8.13096 217.115 1.18597C254.334 6.15499 287.212 28.5157 306.442 61.4355C356.068 48.3918 407.555 77.5847 420.582 127.896C433.609 177.586 404.453 229.14 354.207 242.184C346.143 244.047 338.078 245.289 330.014 245.289ZM70.097 112.368C35.979 112.368 8.06422 140.319 8.06422 174.481C8.06422 208.643 35.979 236.594 70.097 236.594L330.014 236.594C377.159 236.594 415.619 198.084 415.619 150.878C415.619 103.672 377.159 65.1621 330.014 65.1621C321.33 65.1621 313.265 66.4044 304.581 68.8889L301.479 69.5101L300.238 67.0256C269.842 11.1241 200.366 -9.37314 144.536 21.0622C111.659 39.0749 89.3271 72.6157 85.6051 109.883L84.9848 114.231L80.6425 113.61C77.5409 112.989 73.8189 112.989 70.097 112.368Z" fill="#1A2533"/>
<path d="M228.976 185.392C237.659 185.392 246.341 186.64 255.024 189.134C286.033 131.136 357.975 109.932 415.652 141.114C449.762 159.823 472.709 194.123 477.05 233.412C513.021 226.552 547.131 250.251 553.953 286.422C560.775 322.593 537.208 356.893 501.237 363.753C497.516 364.377 493.175 365 488.834 365L228.976 365C179.361 365 139.669 324.464 139.669 275.196C139.049 225.305 179.361 185.392 228.976 185.392Z" fill="#1A2533"/>
</svg>
