<svg width="50" height="51" viewBox="0 0 50 51" fill="none" xmlns="http://www.w3.org/2000/svg">
<path fill-rule="evenodd" clip-rule="evenodd" d="M42.7151 7.30117C38.0149 2.59543 31.7639 0.00275978 25.1046 0C11.3823 0 0.214344 11.1676 0.208824 24.8936C0.206984 29.2813 1.35322 33.5645 3.53192 37.3399L0 50.2404L13.1976 46.7784C16.8341 48.7621 20.9281 49.8074 25.0944 49.8086H25.1049C38.8256 49.8086 49.9948 38.6401 50 24.9135C50.0028 18.2612 47.4156 12.0066 42.7151 7.30117ZM25.1046 45.6043H25.096C21.3831 45.6027 17.7418 44.6049 14.5643 42.72L13.8091 42.2714L5.97739 44.3259L8.06778 36.6902L7.57562 35.9073C5.50424 32.6127 4.41045 28.8048 4.41229 24.8951C4.41658 13.4865 13.6993 4.20469 25.1128 4.20469C30.6398 4.20653 35.8352 6.36162 39.7419 10.2729C43.6485 14.1841 45.7987 19.3829 45.7968 24.912C45.7919 36.3216 36.5098 45.6043 25.1046 45.6043ZM36.4547 30.1068C35.8328 29.7953 32.7743 28.2909 32.204 28.083C31.6342 27.8754 31.219 27.7721 30.8048 28.3945C30.3899 29.017 29.1979 30.4184 28.8349 30.8333C28.4718 31.2485 28.1094 31.3006 27.4872 30.989C26.865 30.6778 24.8608 30.0207 22.4846 27.9015C20.6355 26.252 19.3872 24.215 19.0241 23.5925C18.6617 22.9694 19.0211 22.6652 19.2971 22.323C19.9704 21.4868 20.6447 20.6101 20.852 20.1952C21.0596 19.78 20.9557 19.4166 20.7999 19.1054C20.6447 18.7942 19.4007 15.7323 18.8825 14.4864C18.3771 13.274 17.8647 13.4377 17.4826 13.4187C17.1202 13.4006 16.7053 13.3969 16.2904 13.3969C15.8758 13.3969 15.2018 13.5524 14.6315 14.1755C14.0614 14.7983 12.4546 16.303 12.4546 19.3648C12.4546 22.4266 14.6836 25.3845 14.9945 25.7997C15.3055 26.2149 19.3811 32.498 25.621 35.1922C27.1051 35.8337 28.2636 36.2161 29.1673 36.5028C30.6576 36.9762 32.0132 36.9094 33.0853 36.7493C34.2806 36.5706 36.7653 35.2443 37.2841 33.7915C37.8023 32.3383 37.8023 31.093 37.6466 30.8333C37.4914 30.5738 37.0765 30.4184 36.4547 30.1068Z" fill="#2EC9D4"/>
</svg>
