<svg width="23" height="23" viewBox="0 0 23 23" fill="none" xmlns="http://www.w3.org/2000/svg">
<path d="M20.2619 10.9524H18.619V6.57143C18.619 5.36667 17.6333 4.38095 16.4286 4.38095H12.0476V2.7381C12.0476 1.20476 10.8429 0 9.30952 0C7.77619 0 6.57143 1.20476 6.57143 2.7381V4.38095H2.19048C0.985714 4.38095 0 5.36667 0 6.57143V10.7333H1.64286C3.28571 10.7333 4.6 12.0476 4.6 13.6905C4.6 15.3333 3.28571 16.6476 1.64286 16.6476H0V20.8095C0 22.0143 0.985714 23 2.19048 23H6.35238V21.3571C6.35238 19.7143 7.66667 18.4 9.30952 18.4C10.9524 18.4 12.2667 19.7143 12.2667 21.3571V23H16.4286C17.6333 23 18.619 22.0143 18.619 20.8095V16.4286H20.2619C21.7952 16.4286 23 15.2238 23 13.6905C23 12.1571 21.7952 10.9524 20.2619 10.9524Z" fill="#C2D932"/>
</svg>
