<svg width="44" height="56" viewBox="0 0 44 56" fill="none" xmlns="http://www.w3.org/2000/svg">
<path d="M43.5268 26.8505L31.0362 14.3597C30.9841 14.307 30.9139 14.2783 30.8411 14.2783C30.8354 14.2783 30.8301 14.2783 30.8252 14.2783C30.7464 14.2828 30.673 14.3211 30.6238 14.3833L25.3004 21.1383C25.2126 21.2485 25.2227 21.4053 25.3219 21.5048L31.0579 27.2399C31.2632 27.4468 31.3765 27.7201 31.3765 28.0138C31.3751 28.3025 31.2613 28.573 31.0581 28.7751L29.4011 30.433C29.308 30.5265 29.2936 30.6729 29.3656 30.7814C29.7796 31.399 30.4546 32.4187 30.5188 32.5305C30.7265 32.9465 30.7954 34.0071 30.1837 34.4727L17.1346 44.4957C17.0671 44.5474 17.0273 44.6282 17.0273 44.7139C17.0273 45.8267 17.0257 54.757 17.0267 54.8477C17.0267 55.0404 17.0267 55.1554 17.1793 55.2332C17.2178 55.2528 17.2597 55.2617 17.3037 55.2617C17.4177 55.2617 17.4633 55.2176 17.5732 55.1081L17.7907 54.8878C17.9818 54.699 43.5257 29.1668 43.5257 29.1668C44.1589 28.526 44.1569 27.488 43.5268 26.8505Z" fill="#5E8CDA"/>
<path d="M26.9284 0.123165L26.9241 0.117504C26.9208 0.114381 26.9182 0.110282 26.9163 0.107745L26.9091 0.0985709C26.8595 0.039038 26.7867 0.00331823 26.709 0C26.7043 0 26.7008 0 26.6965 0C26.6233 0 26.5523 0.0279122 26.5005 0.0808087L0.479582 26.1049C0.17001 26.4102 0 26.8224 0 27.2629C0 27.7025 0.171181 28.1124 0.481533 28.4173L12.9678 40.9053C13.0195 40.9582 13.0902 40.9865 13.163 40.9865C13.1685 40.9865 13.1739 40.9865 13.1794 40.9865C13.2581 40.9821 13.3313 40.9442 13.3795 40.8807L18.707 34.1258C18.794 34.0161 18.7839 33.8604 18.6853 33.7594L12.9434 28.0242C12.74 27.8224 12.63 27.552 12.629 27.2629C12.628 26.9709 12.74 26.6986 12.9434 26.4958L14.6051 24.8319C14.6994 24.7366 14.713 24.5879 14.6353 24.4784L13.5024 22.8489C13.0447 22.1997 13.1868 21.2776 13.8189 20.7928L26.8722 10.778C26.9405 10.7257 26.9809 10.6455 26.9809 10.5584L26.9834 0.289662C26.9836 0.229738 26.9647 0.171182 26.9284 0.123165Z" fill="#5E8CDA"/>
<path d="M29.2276 32.3642L14.7736 22.9756L21.1579 32.1534C21.2945 32.3642 21.2811 32.7232 21.1294 32.9254L9.69381 47.4385C9.49218 47.7016 9.32315 47.9866 9.46642 48.2806C9.54274 48.4342 9.72992 48.5579 9.91106 48.5704C10.1369 48.5693 10.31 48.4713 10.5476 48.2898L28.9253 34.1816C29.4874 33.7526 29.4722 32.713 29.2276 32.3642Z" fill="#5E8CDA"/>
<path d="M34.5339 6.98634C34.4465 6.80852 34.2552 6.68945 34.0555 6.68945C33.8765 6.68945 33.7094 6.76655 33.4526 6.96272L15.0671 21.0818C14.4844 21.5274 14.3525 22.3772 14.7735 22.9755L29.2275 32.3641C29.0177 32.0569 22.9029 23.1928 22.8411 23.103C22.7025 22.907 22.7144 22.5252 22.8655 22.3335L34.3009 7.8157L34.3085 7.80555C34.4947 7.56761 34.6805 7.28791 34.5339 6.98634Z" fill="#5E8CDA"/>
</svg>
