<svg width="19" height="19" viewBox="0 0 19 19" fill="none" xmlns="http://www.w3.org/2000/svg">
<path d="M9.5 0C4.2534 0 0 4.2534 0 9.5C0 14.7466 4.2534 19 9.5 19C14.7466 19 19 14.7466 19 9.5C19 4.2534 14.7466 0 9.5 0ZM15.4064 15.4064C13.8287 16.9842 11.7311 17.8531 9.5 17.8531C7.26895 17.8531 5.1713 16.9842 3.59356 15.4064C2.01582 13.8287 1.14687 11.7311 1.14687 9.5C1.14687 7.26895 2.01582 5.1713 3.59356 3.59356C5.1713 2.01582 7.26895 1.14687 9.5 1.14687C11.7311 1.14687 13.8287 2.01582 15.4064 3.59356C16.9842 5.1713 17.8531 7.26895 17.8531 9.5C17.8531 11.7311 16.9842 13.8287 15.4064 15.4064Z" fill="#5CFF94"/>
<path d="M8.92655 1.16668C8.73655 1.15388 8.54536 1.14697 8.3531 1.14697C6.12204 1.14697 4.0244 2.01593 2.44666 3.59367C0.919236 5.12109 0.0561465 7.13579 0.00267187 9.2871C0.00115039 9.3579 0 9.42886 0 9.50007C0 9.57128 0.00115039 9.64224 0.00270898 9.71308C0.0561836 11.8644 0.919273 13.8791 2.4467 15.4065C4.02444 16.9843 6.12208 17.8532 8.35313 17.8532C8.5454 17.8532 8.73655 17.8463 8.92659 17.8335C6.9114 17.6978 5.03537 16.8483 3.5936 15.4065C2.01582 13.8288 1.14687 11.7311 1.14687 9.50007C1.14687 7.26902 2.01582 5.17137 3.59356 3.59363C5.03533 2.15186 6.91136 1.30242 8.92655 1.16668Z" fill="#5CFF94"/>
<path d="M9.50021 0C9.30761 0 9.11654 0.00641992 8.92676 0.0177383C13.8361 0.31016 17.7415 4.3304 17.8506 9.28703C17.8524 9.35787 17.8533 9.4289 17.8533 9.50004C17.8533 9.57118 17.8524 9.64217 17.8506 9.71305C17.7415 14.6697 13.8361 18.6899 8.92676 18.9823C9.11654 18.9936 9.30761 19 9.50021 19C14.7468 19 19.0002 14.7466 19.0002 9.5C19.0002 4.2534 14.7468 0 9.50021 0Z" fill="#5CFF94"/>
<path d="M11.2328 3.09824L5.70224 8.80196C5.66657 8.83873 5.67648 8.89952 5.72198 8.92308L8.40577 10.3121C8.43775 10.3287 8.45386 10.3653 8.4444 10.4001L6.96674 15.8286C6.94622 15.9039 7.03862 15.9579 7.09421 15.9031L13.2965 9.78457C13.333 9.74862 13.3244 9.68764 13.2795 9.66308L10.4358 8.10779C10.4064 8.09176 10.3909 8.05858 10.3975 8.02581L11.3626 3.16641C11.3775 3.0916 11.2858 3.04355 11.2328 3.09824Z" fill="#5CFF94"/>
<path d="M13.2795 9.66303L10.4358 8.10774C10.4065 8.09171 10.391 8.05854 10.3975 8.02577L11.3627 3.16637C11.3775 3.09163 11.2858 3.04354 11.2328 3.09824L10.6143 3.73611L9.05987 8.30617C9.05337 8.33894 9.06889 8.37211 9.09817 8.38814L11.6542 9.83144C11.6992 9.856 11.7077 9.91698 11.6712 9.95297L7.10198 15.3319L6.96679 15.8285C6.94627 15.9039 7.03863 15.9579 7.09426 15.9031L13.2965 9.78453C13.333 9.74857 13.3244 9.68764 13.2795 9.66303Z" fill="#5CFF94"/>
</svg>
