<svg width="31" height="33" viewBox="0 0 31 33" fill="none" xmlns="http://www.w3.org/2000/svg">
<path d="M13.2125 16.7829C12.6292 16.7829 12.0653 16.4328 11.793 15.8884L11.3264 14.8384H6.6985L6.23182 15.8884C5.9596 16.4328 5.41514 16.7829 4.81235 16.7829H4.55957L6.54294 31.872C6.64016 32.1637 6.83461 32.1637 6.93183 31.872L8.89576 27.0497L10.6069 31.8526C10.7041 32.1442 10.8986 32.1442 10.9958 31.8526L13.2903 16.8023L13.2125 16.7829Z" fill="url(#paint0_linear_73_64)"/>
<path d="M11.1512 14.4302H6.89277L6.25109 15.8885C6.0372 16.3358 5.58997 16.6469 5.12329 16.7441L6.62054 26.0387C6.71776 26.2137 6.91221 26.2137 7.00944 26.0387L8.93447 23.122L10.6845 26.0193C10.8012 26.1943 10.9762 26.1943 11.0734 26.0193L12.7651 16.7052C12.3568 16.5885 11.9873 16.2969 11.7734 15.8885L11.1512 14.4302Z" fill="url(#paint1_linear_73_64)"/>
<path opacity="0.5" d="M11.8125 15.8885L9.03189 9.66614L6.25129 15.8885C6.15406 16.0635 6.03739 16.2385 5.88184 16.3746L7.02908 22.558C7.08741 22.6358 7.24297 22.6747 7.35964 22.558L8.91522 20.4969L10.4708 22.5386C10.568 22.6553 10.743 22.6358 10.8014 22.5386L12.0847 16.2774C11.9681 16.1607 11.8708 16.044 11.8125 15.8885Z" fill="url(#paint2_linear_73_64)"/>
<path d="M0.106491 1.18821C0.0287116 0.896535 0.18427 0.682644 0.495386 0.682644H2.94543C3.12043 0.682644 3.27599 0.838202 3.33432 0.974316L5.12324 8.03277H5.20102L8.42886 0.702087C8.48719 0.585418 8.60386 0.46875 8.77886 0.46875H9.16776C9.34276 0.46875 9.47888 0.565973 9.51777 0.702087L12.7456 8.03277H12.8234L14.6123 0.974316C14.6512 0.818757 14.8262 0.682644 15.0012 0.682644H17.4512C17.7429 0.682644 17.8985 0.896535 17.8401 1.18821L13.8928 15.2079C13.854 15.3829 13.6789 15.4996 13.5039 15.4996H13.1734C13.0178 15.4996 12.8817 15.4023 12.8234 15.2662L8.99276 6.72997H8.93442L5.14269 15.2662C5.08435 15.3829 4.9288 15.4996 4.79268 15.4996H4.46212C4.28712 15.4996 4.13156 15.3829 4.07323 15.2079L0.106491 1.18821ZM20.0179 1.07154C20.0179 0.857647 20.193 0.682644 20.4068 0.682644H25.443C28.0098 0.682644 30.1098 2.76323 30.1098 5.29106C30.1098 7.87721 28.0098 9.97725 25.4625 9.97725H23.2652V14.8773C23.2652 15.0912 23.0902 15.2662 22.8763 15.2662H20.4263C20.193 15.2662 20.0374 15.0912 20.0374 14.8773L20.0179 1.07154ZM25.268 6.92442C26.1625 6.92442 26.9208 6.20496 26.9208 5.27161C26.9208 4.3966 26.1625 3.71603 25.268 3.71603H23.2847V6.90497H25.268" fill="#F56640"/>
<path d="M11.8125 15.8885L9.03189 9.66614L6.25129 15.8885C6.15406 16.0635 6.03739 16.2385 5.88184 16.3746L7.02908 22.558C7.08741 22.6358 7.24297 22.6747 7.35964 22.558L8.91522 20.4969L10.4708 22.5386C10.568 22.6553 10.743 22.6358 10.8014 22.5386L12.0847 16.2774C11.9681 16.1607 11.8708 16.044 11.8125 15.8885Z" fill="url(#paint3_linear_73_64)"/>
<defs>
<linearGradient id="paint0_linear_73_64" x1="8.94116" y1="32.0703" x2="8.94116" y2="20.4522" gradientUnits="userSpaceOnUse">
<stop stop-color="#F56640"/>
<stop offset="0.2439" stop-color="#F57840"/>
<stop offset="1" stop-color="#FFBE54"/>
</linearGradient>
<linearGradient id="paint1_linear_73_64" x1="8.95944" y1="25.9768" x2="8.95944" y2="16.6591" gradientUnits="userSpaceOnUse">
<stop stop-color="#F56640"/>
<stop offset="0.1811" stop-color="#F57840"/>
<stop offset="1" stop-color="#FFBE54"/>
</linearGradient>
<linearGradient id="paint2_linear_73_64" x1="8.9653" y1="20.6062" x2="8.9653" y2="9.66575" gradientUnits="userSpaceOnUse">
<stop stop-color="#F56640"/>
<stop offset="0.3911" stop-color="#F57840"/>
<stop offset="1" stop-color="#FFBE54"/>
</linearGradient>
<linearGradient id="paint3_linear_73_64" x1="8.9653" y1="23.983" x2="8.9653" y2="6.36494" gradientUnits="userSpaceOnUse">
<stop stop-color="#F56640"/>
<stop offset="0.0837881" stop-color="#F57840"/>
<stop offset="1" stop-color="#FFBE54"/>
</linearGradient>
</defs>
</svg>
