<svg width="145" height="145" viewBox="0 0 145 145" fill="none" xmlns="http://www.w3.org/2000/svg">
<path d="M72.5 145C112.541 145 145 112.541 145 72.5C145 32.4594 112.541 0 72.5 0C32.4594 0 0 32.4594 0 72.5C0 112.541 32.4594 145 72.5 145Z" fill="url(#paint0_linear_147_32)" fill-opacity="0.2"/>
<g clip-path="url(#clip0_147_32)">
<path d="M89.6805 43.8843H59.2858C54.4896 43.8843 50.6016 47.7775 50.6016 52.5799V93.1596C50.6016 97.9621 54.4896 101.855 59.2858 101.855H89.6805C94.4767 101.855 98.3647 97.9621 98.3647 93.1596V52.5799C98.3647 47.7775 94.4767 43.8843 89.6805 43.8843Z" fill="white"/>
<path d="M60.8306 64.6713L60.1114 55.6453L91.3084 55.656L92.0225 46.9471L51.1574 46.9364L53.3224 73.5402H81.6277L80.6174 84.9193L71.5912 87.5896L62.4257 84.9007L61.8433 77.892H53.7505L54.7733 91.7442L71.5888 96.5597L88.2724 91.7682L90.5792 64.6767H60.8306V64.6713ZM39.0229 32.29H104.155L98.2316 103.907L71.5191 112L44.9583 103.904L39.0229 32.29Z" fill="#E44D26"/>
</g>
<defs>
<linearGradient id="paint0_linear_147_32" x1="72.5" y1="0" x2="72.5" y2="145" gradientUnits="userSpaceOnUse">
<stop stop-color="#E44D26"/>
<stop offset="1" stop-color="#742814"/>
</linearGradient>
<clipPath id="clip0_147_32">
<rect width="66" height="80" fill="white" transform="translate(39 32)"/>
</clipPath>
</defs>
</svg>
