<svg width="20" height="20" viewBox="0 0 20 20" fill="none" xmlns="http://www.w3.org/2000/svg">
<path d="M10 20C15.5228 20 20 15.5228 20 10C20 4.47715 15.5228 0 10 0C4.47715 0 0 4.47715 0 10C0 15.5228 4.47715 20 10 20Z" fill="#009B3A"/>
<path d="M1.66675 10.0001L10.0001 15.3334L18.3334 10.0001L10.0001 4.66675L1.66675 10.0001Z" fill="#FEDF00"/>
<path d="M9.99989 13.5332C11.9513 13.5332 13.5332 11.9513 13.5332 9.99989C13.5332 8.04848 11.9513 6.46655 9.99989 6.46655C8.04848 6.46655 6.46655 8.04848 6.46655 9.99989C6.46655 11.9513 8.04848 13.5332 9.99989 13.5332Z" fill="#002776"/>
<path d="M6.79985 8.59988C6.73319 8.79988 6.66652 8.93321 6.59985 9.13321C9.06652 8.73321 11.5332 9.39988 13.3999 11.0665C13.4665 10.8665 13.4665 10.6665 13.5332 10.5332C11.5999 8.93321 9.19985 8.26655 6.79985 8.59988Z" fill="white"/>
</svg>
