<svg width="21" height="21" viewBox="0 0 21 21" fill="none" xmlns="http://www.w3.org/2000/svg">
<path fill-rule="evenodd" clip-rule="evenodd" d="M5.92708 13.3287L13.3288 5.92696C13.5061 5.74977 13.7952 5.74977 13.9724 5.92696L14.5531 6.50769C14.7303 6.68488 14.7303 6.974 14.5531 7.15125L7.15138 14.553C6.97412 14.7302 6.685 14.7302 6.50781 14.553L5.92708 13.9723C5.74989 13.7951 5.74989 13.506 5.92708 13.3287Z" fill="#FF3C76"/>
<path fill-rule="evenodd" clip-rule="evenodd" d="M13.3288 14.553L5.92708 7.15125C5.74989 6.974 5.74989 6.68488 5.92708 6.50769L6.50781 5.92696C6.685 5.74977 6.97412 5.74977 7.15138 5.92696L14.5531 13.3287C14.7303 13.506 14.7303 13.7951 14.5531 13.9723L13.9724 14.553C13.7952 14.7302 13.5061 14.7302 13.3288 14.553Z" fill="#FF3C76"/>
<path d="M10.24 0C13.0672 0 15.6272 1.14649 17.4804 2.99963C19.3335 4.85285 20.48 7.41285 20.48 10.24C20.48 13.0672 19.3335 15.6272 17.4804 17.4804C15.6272 19.3335 13.0672 20.48 10.24 20.48C7.41285 20.48 4.85285 19.3335 2.99963 17.4804C1.14649 15.6272 0 13.0672 0 10.24C0 7.41285 1.14649 4.85285 2.99963 2.99963C4.85285 1.14649 7.41285 0 10.24 0ZM16.2737 4.20626C14.7295 2.66206 12.5961 1.70667 10.24 1.70667C7.88393 1.70667 5.75053 2.66206 4.20626 4.20626C2.66206 5.75053 1.70667 7.88393 1.70667 10.24C1.70667 12.5961 2.66206 14.7295 4.20626 16.2737C5.75053 17.8179 7.88393 18.7733 10.24 18.7733C12.5961 18.7733 14.7295 17.8179 16.2737 16.2737C17.8179 14.7295 18.7733 12.5961 18.7733 10.24C18.7733 7.88393 17.8179 5.75053 16.2737 4.20626Z" fill="#FF3C76"/>
</svg>
