<svg width="50" height="50" viewBox="0 0 50 50" fill="none" xmlns="http://www.w3.org/2000/svg">
<path fill-rule="evenodd" clip-rule="evenodd" d="M50 4.06977C50 2.9907 49.5721 1.95581 48.807 1.19302C48.0442 0.427907 47.0093 0 45.9302 0C37.9907 0 12.0093 0 4.06977 0C2.9907 0 1.95581 0.427907 1.19302 1.19302C0.427907 1.95581 0 2.9907 0 4.06977V11.0465C0 12.1256 0.427907 13.1605 1.19302 13.9233C1.95581 14.6884 2.9907 15.1163 4.06977 15.1163H45.9302C47.0093 15.1163 48.0442 14.6884 48.807 13.9233C49.5721 13.1605 50 12.1256 50 11.0465V4.06977ZM9.88372 5.23256C11.1674 5.23256 12.2093 6.27442 12.2093 7.55814C12.2093 8.84186 11.1674 9.88372 9.88372 9.88372C8.6 9.88372 7.55814 8.84186 7.55814 7.55814C7.55814 6.27442 8.6 5.23256 9.88372 5.23256ZM18.0233 5.23256C19.307 5.23256 20.3488 6.27442 20.3488 7.55814C20.3488 8.84186 19.307 9.88372 18.0233 9.88372C16.7395 9.88372 15.6977 8.84186 15.6977 7.55814C15.6977 6.27442 16.7395 5.23256 18.0233 5.23256ZM42.4419 5.81395H35.4651C34.5023 5.81395 33.7209 6.59535 33.7209 7.55814C33.7209 8.52093 34.5023 9.30232 35.4651 9.30232H42.4419C43.4046 9.30232 44.186 8.52093 44.186 7.55814C44.186 6.59535 43.4046 5.81395 42.4419 5.81395Z" fill="#2EC9D4"/>
<path fill-rule="evenodd" clip-rule="evenodd" d="M50 21.5116C50 20.4325 49.5721 19.3976 48.807 18.6349C48.0442 17.8697 47.0093 17.4418 45.9302 17.4418C37.9907 17.4418 12.0093 17.4418 4.06977 17.4418C2.9907 17.4418 1.95581 17.8697 1.19302 18.6349C0.427907 19.3976 0 20.4325 0 21.5116V28.4883C0 29.5674 0.427907 30.6023 1.19302 31.3651C1.95581 32.1302 2.9907 32.5581 4.06977 32.5581H45.9302C47.0093 32.5581 48.0442 32.1302 48.807 31.3651C49.5721 30.6023 50 29.5674 50 28.4883V21.5116ZM9.88372 22.6744C11.1674 22.6744 12.2093 23.7163 12.2093 25C12.2093 26.2837 11.1674 27.3256 9.88372 27.3256C8.6 27.3256 7.55814 26.2837 7.55814 25C7.55814 23.7163 8.6 22.6744 9.88372 22.6744ZM18.0233 22.6744C19.307 22.6744 20.3488 23.7163 20.3488 25C20.3488 26.2837 19.307 27.3256 18.0233 27.3256C16.7395 27.3256 15.6977 26.2837 15.6977 25C15.6977 23.7163 16.7395 22.6744 18.0233 22.6744ZM42.4419 23.2558H35.4651C34.5023 23.2558 33.7209 24.0372 33.7209 25C33.7209 25.9628 34.5023 26.7442 35.4651 26.7442H42.4419C43.4046 26.7442 44.186 25.9628 44.186 25C44.186 24.0372 43.4046 23.2558 42.4419 23.2558Z" fill="#2EC9D4"/>
<path fill-rule="evenodd" clip-rule="evenodd" d="M50 38.9534C50 37.8743 49.5721 36.8394 48.807 36.0766C48.0442 35.3115 47.0093 34.8836 45.9302 34.8836C37.9907 34.8836 12.0093 34.8836 4.06977 34.8836C2.9907 34.8836 1.95581 35.3115 1.19302 36.0766C0.427907 36.8394 0 37.8743 0 38.9534V45.9301C0 47.0092 0.427907 48.0441 1.19302 48.8069C1.95581 49.572 2.9907 49.9999 4.06977 49.9999H45.9302C47.0093 49.9999 48.0442 49.572 48.807 48.8069C49.5721 48.0441 50 47.0092 50 45.9301V38.9534ZM9.88372 40.1162C11.1674 40.1162 12.2093 41.158 12.2093 42.4417C12.2093 43.7255 11.1674 44.7673 9.88372 44.7673C8.6 44.7673 7.55814 43.7255 7.55814 42.4417C7.55814 41.158 8.6 40.1162 9.88372 40.1162ZM18.0233 40.1162C19.307 40.1162 20.3488 41.158 20.3488 42.4417C20.3488 43.7255 19.307 44.7673 18.0233 44.7673C16.7395 44.7673 15.6977 43.7255 15.6977 42.4417C15.6977 41.158 16.7395 40.1162 18.0233 40.1162ZM42.4419 40.6976H35.4651C34.5023 40.6976 33.7209 41.479 33.7209 42.4417C33.7209 43.4045 34.5023 44.1859 35.4651 44.1859H42.4419C43.4046 44.1859 44.186 43.4045 44.186 42.4417C44.186 41.479 43.4046 40.6976 42.4419 40.6976Z" fill="#2EC9D4"/>
</svg>
