<svg width="145" height="145" viewBox="0 0 145 145" fill="none" xmlns="http://www.w3.org/2000/svg">
<path d="M72.5 145C112.541 145 145 112.541 145 72.5C145 32.4594 112.541 0 72.5 0C32.4594 0 0 32.4594 0 72.5C0 112.541 32.4594 145 72.5 145Z" fill="url(#paint0_linear_147_33)" fill-opacity="0.25"/>
<g clip-path="url(#clip0_147_33)">
<rect x="55" y="57" width="50" height="50" fill="#524D4D"/>
<path fill-rule="evenodd" clip-rule="evenodd" d="M35.3207 38C35.1567 38 34.9941 38.0474 35.0038 38.2111C35.0038 59.1781 35.0038 80.1423 35.0038 101.108C35.0038 107.09 39.8316 111.951 45.8132 111.972C63.1837 112.032 80.6688 111.976 98.0977 111.978C104.116 111.979 109.001 107.103 109.001 101.085C109.001 83.6839 109.001 66.2832 109.001 48.8824C109.001 42.8722 104.129 38 98.1184 38C77.1862 38 56.2526 38 35.3207 38ZM72.5645 103.408C70.8525 105.134 68.1508 106.15 64.8273 106.15C60.6694 106.15 57.9223 104.605 55.9954 102.242C54.9611 100.973 55.4676 99.1451 56.8656 98.2941C58.5413 97.274 60.7626 98.2103 62.4028 99.2866C63.5641 100.048 65.0291 100.33 66.5857 99.5397C68.4949 98.5694 68.2744 95.6282 68.2744 92.4359C68.2744 85.8073 68.2744 78.1605 68.2744 72.1804C68.2644 72.0169 68.4264 71.9693 68.5902 71.9693C68.6629 71.9693 68.7358 71.9693 68.8088 71.9693C72.3205 71.9693 75.1673 74.8159 75.1673 78.3276C75.1673 81.8526 75.1673 85.4895 75.1673 88.9893C75.1673 95.158 75.6081 100.341 72.5645 103.408ZM103.092 97.2892C102.704 103.065 97.988 106.132 91.6269 106.15C86.734 106.164 83.2229 104.461 80.7615 101.66C79.5975 100.335 80.0818 98.3653 81.6151 97.494C83.2301 96.5764 85.2812 97.1504 86.7361 98.3052C88.1478 99.4254 89.9775 100.16 92.2598 99.9613C94.5958 99.7578 97.3075 97.8536 95.7765 94.9678C95.0341 93.569 93.2401 92.8584 91.6269 92.1547C86.5074 89.9212 80.501 87.8725 81.0756 79.8468C81.2677 77.1656 82.5022 75.2814 84.1006 73.939C85.7384 72.5632 87.9323 71.6413 90.8531 71.5479C94.8964 71.4184 97.5484 72.7587 99.46 74.8631C100.492 75.999 100.146 77.7319 98.8599 78.569C97.243 79.6217 94.7973 78.7383 93.0181 77.992C91.9544 77.546 90.721 77.439 89.5869 77.948C88.4588 78.4541 87.4452 79.9408 88.0396 81.7458C88.5696 83.3553 90.7315 84.2363 92.4707 84.9815C97.7351 87.2348 103.618 89.437 103.092 97.2892Z" fill="#F0DB4F"/>
</g>
<defs>
<linearGradient id="paint0_linear_147_33" x1="72.5" y1="0" x2="72.5" y2="145" gradientUnits="userSpaceOnUse">
<stop stop-color="#F0DB4F"/>
<stop offset="1" stop-color="#8C7F2C"/>
</linearGradient>
<clipPath id="clip0_147_33">
<rect width="74" height="74" fill="white" transform="translate(35 38)"/>
</clipPath>
</defs>
</svg>
