<svg width="27" height="13" viewBox="0 0 27 13" fill="none" xmlns="http://www.w3.org/2000/svg">
<path fill-rule="evenodd" clip-rule="evenodd" d="M11.0406 12.0254C8.30078 12.0254 6.56498 9.76204 6.56498 6.1543C6.56498 2.54655 8.28376 0.300217 11.0406 0.300217C13.7975 0.300217 15.4993 2.54655 15.4993 6.1543C15.4993 9.76204 13.7805 12.0254 11.0406 12.0254ZM11.0406 10.3066C12.6743 10.3066 13.6443 8.79204 13.6443 6.17131C13.6443 6.05756 13.6425 5.94588 13.6389 5.83633L8.88162 8.78129C9.32133 9.76736 10.0611 10.3066 11.0406 10.3066ZM11.0406 2.03602C12.1847 2.03602 13.0032 2.77875 13.3912 4.12395L8.47368 7.1681C8.43808 6.85133 8.4199 6.51301 8.4199 6.1543C8.4199 3.55059 9.40693 2.03602 11.0406 2.03602ZM21.71 12.0254C18.9701 12.0254 17.2343 9.76204 17.2343 6.1543C17.2343 2.54655 18.9531 0.300217 21.71 0.300217C24.4668 0.300217 26.1686 2.54655 26.1686 6.1543C26.1686 9.76204 24.4498 12.0254 21.71 12.0254ZM21.71 10.3066C23.3437 10.3066 24.3137 8.79204 24.3137 6.17131C24.3137 6.00011 24.3095 5.83364 24.3013 5.67199L19.4784 8.60766C19.9068 9.70388 20.6744 10.3066 21.71 10.3066ZM19.123 6.96688L24.0188 3.98683C23.6157 2.72837 22.8145 2.03602 21.71 2.03602C20.0763 2.03602 19.0892 3.55059 19.0892 6.1543C19.0892 6.43812 19.1006 6.70917 19.123 6.96688ZM4.16938 0.504451H0.357422V2.17218H2.36551V11.8212H4.16938V0.504451Z" fill="#3FA441"/>
</svg>
