<svg width="34" height="34" viewBox="0 0 34 34" fill="none" xmlns="http://www.w3.org/2000/svg">
<path fill-rule="evenodd" clip-rule="evenodd" d="M0.147208 0C0.0718403 0 -0.00287585 0.021776 0.00160756 0.0970098V0.0970098C0.00160756 9.73047 0.00160756 19.3627 0.00160756 28.9956C0.00160756 31.7439 2.21975 33.9775 4.96808 33.9871C12.9491 34.0148 20.9828 33.9892 28.9907 33.9899C31.7558 33.9902 34.0002 31.7501 34.0002 28.985C34.0002 20.9899 34.0002 12.995 34.0002 5C34.0002 2.23858 31.7616 0 29.0002 0C19.3827 0 9.76455 0 0.147208 0ZM17.2592 30.0522C16.4726 30.8452 15.2313 31.3123 13.7043 31.3123C11.7939 31.3123 10.5317 30.6024 9.64637 29.5165C9.17118 28.9337 9.40387 28.0937 10.0462 27.7027V27.7027C10.8161 27.234 11.8367 27.6642 12.5903 28.1587C13.1239 28.5087 13.797 28.6382 14.5122 28.275C15.3894 27.8292 15.2881 26.4778 15.2881 25.0111C15.2881 21.9655 15.2881 18.4521 15.2881 15.7045V15.7045C15.2835 15.6294 15.3579 15.6075 15.4332 15.6075C15.4666 15.6075 15.5001 15.6075 15.5336 15.6075C17.1471 15.6075 18.4551 16.9154 18.4551 18.5289C18.4551 20.1485 18.4551 21.8195 18.4551 23.4275C18.4551 26.2618 18.6576 28.643 17.2592 30.0522ZM31.2852 27.241C31.1073 29.8948 28.9403 31.3039 26.0176 31.3123C23.7695 31.3187 22.1563 30.5362 21.0254 29.249C20.4906 28.6402 20.7131 27.7354 21.4176 27.3351V27.3351C22.1596 26.9135 23.102 27.1772 23.7705 27.7078C24.4191 28.2225 25.2598 28.5602 26.3084 28.4687C27.3817 28.3752 28.6276 27.5003 27.9242 26.1744C27.5831 25.5317 26.7588 25.2052 26.0176 24.8819C23.6654 23.8557 20.9057 22.9144 21.1697 19.2269C21.258 17.995 21.8252 17.1293 22.5596 16.5125C23.3121 15.8804 24.3201 15.4568 25.6621 15.4139C27.5198 15.3544 28.7383 15.9702 29.6166 16.9371C30.0906 17.459 29.9317 18.2552 29.3409 18.6398V18.6398C28.598 19.1235 27.4743 18.7176 26.6568 18.3747C26.1681 18.1698 25.6014 18.1206 25.0803 18.3545C24.562 18.587 24.0963 19.2701 24.3694 20.0994C24.6129 20.8389 25.6062 21.2437 26.4053 21.5861C28.8241 22.6214 31.5271 23.6332 31.2852 27.241Z" fill="#F0DB4F"/>
</svg>
