<svg width="158" height="40" viewBox="0 0 158 40" fill="none" xmlns="http://www.w3.org/2000/svg">
<path d="M42.1641 9.72101V27.3101C42.1641 27.4751 42.2926 27.6142 42.4559 27.6303C43.3822 27.7066 44.4118 27.7066 45.4937 27.6303C46.3766 27.5611 47.4543 27.4347 48.7833 27.2425C48.7357 27.5114 48.7117 27.8012 48.7117 28.1147C48.7117 28.382 48.7389 28.7068 48.7907 29.0581H38.3225V9.72546C38.5223 9.74171 38.7794 9.77408 39.0972 9.817C39.5625 9.89716 40.0388 9.89924 40.3227 9.82339L41.2647 9.81853C41.6224 9.76991 41.919 9.73587 42.1641 9.72101ZM54.7122 10.6829C54.1539 10.7608 53.7816 10.762 53.513 10.6872H52.5717C52.239 10.642 51.9852 10.6121 51.7938 10.5941V29.0581H55.4374V10.5899C55.2284 10.6058 54.9891 10.6366 54.7122 10.6829ZM58.3211 10.577C58.3564 10.8389 58.374 11.1011 58.374 11.3565C58.374 11.6937 58.3575 11.9907 58.3269 12.2455H58.9354C60.6599 12.0273 62.1076 11.9159 63.2176 11.9159C63.3952 11.9159 63.5387 12.0589 63.5387 12.2347V29.0579H67.0728V12.2347C67.0728 12.0589 67.2168 11.9159 67.394 11.9159C68.2015 11.9159 69.3576 11.9907 70.8322 12.136C71.2046 12.1902 71.6009 12.2236 72.0139 12.2391C71.9717 11.9839 71.9717 11.6921 72.0156 11.3648C71.9692 11.1034 71.9718 10.8387 72.0232 10.5769L58.3211 10.577ZM74.9242 10.577V29.0581H84.9081C84.8592 28.7257 84.8338 28.4202 84.8338 28.1689C84.8338 27.8822 84.8559 27.6124 84.8955 27.3657C84.217 27.4693 83.459 27.5521 82.6474 27.6081C81.7031 27.6837 80.4024 27.7209 78.7782 27.7209C78.6024 27.7209 78.4586 27.5764 78.4586 27.3997V20.2557C78.4586 20.0806 78.6024 19.9364 78.7782 19.9364H81.4494C82.3399 19.9881 83.0557 20.0404 83.7719 20.0924L84.3008 20.1295C84.2855 20.0579 84.2681 19.9781 84.249 19.8948L84.2384 18.6078C84.2384 18.5721 84.2442 18.537 84.2562 18.5056C84.2631 18.4807 84.2706 18.4551 84.2788 18.4314C83.3378 18.5475 82.4764 18.5972 81.4495 18.5972H78.7784C78.6025 18.5972 78.4587 18.4535 78.4587 18.2773V12.2347C78.4587 12.0589 78.6025 11.9159 78.7784 11.9159C80.7494 11.9159 82.8191 12.0438 84.9335 12.2979C84.8671 12.0064 84.8338 11.7269 84.8338 11.4663C84.8338 11.1568 84.8671 10.8579 84.9345 10.577H74.9242ZM99.9401 23.3797C99.8626 21.0952 98.1079 19.0679 94.7128 17.3701C92.1968 16.0747 90.9756 14.8143 90.9756 13.5251C90.9756 11.4431 92.1939 10.3 94.5027 10.2169C96.0718 10.2169 97.2796 11.0575 98.0981 12.7205C98.1832 12.4279 98.302 12.0544 98.4578 11.584C98.6462 11.0861 98.8074 10.6683 98.9415 10.3229C97.7351 9.60349 96.2809 9.20328 94.6159 9.13257C90.4273 9.35469 88.3155 11.2835 88.1701 15.0296C88.1701 17.5532 89.7698 19.5801 92.9245 21.0473C95.563 22.2451 96.8989 23.6187 96.8989 25.1255C96.7318 27.2423 95.4697 28.3511 93.1467 28.4355C90.8464 28.3539 89.4091 27.2725 88.8625 25.2168H88.8226C88.6751 26.3344 88.441 27.4367 88.1255 28.4973C89.5245 29.0261 90.9769 29.3315 92.4449 29.4016C97.083 29.4016 99.6427 27.2055 99.9401 23.3797ZM106.045 20.7197C105.988 20.7238 105.909 20.7371 105.842 20.8036C105.784 20.8628 105.748 20.9418 105.748 21.0235V29.0581H102.08V10.5741H108.69C112.473 10.5741 114.349 12.021 114.419 14.992C114.446 16.6098 114.001 17.8968 113.099 18.8166C111.855 20.0834 109.679 20.726 106.631 20.726C106.443 20.726 106.255 20.7229 106.045 20.7197ZM106.012 19.788C106.152 19.8087 106.306 19.82 106.459 19.82C106.91 19.82 107.43 19.7323 108.004 19.5616C109.668 19.0846 110.593 17.7303 110.749 15.5171C110.593 13.0202 109.611 11.6314 107.81 11.3899H106.056C105.887 11.3899 105.749 11.5279 105.749 11.6962V19.4866C105.748 19.6381 105.859 19.7672 106.012 19.788ZM129.095 10.5741V29.0579H139.096C139.047 28.7222 139.022 28.4127 139.022 28.1547C139.022 27.8624 139.043 27.587 139.087 27.3362C138.399 27.4431 137.637 27.5267 136.822 27.5834C135.871 27.6568 134.609 27.6925 132.962 27.6925C132.792 27.6925 132.655 27.5553 132.655 27.389V20.2541C132.655 20.0857 132.792 19.9485 132.962 19.9485H135.923C137.038 20.0161 138.049 20.0792 138.978 20.1424C138.961 20.0663 138.943 19.9815 138.92 19.8876L138.91 18.6085C138.91 18.5735 138.914 18.5402 138.925 18.511C138.936 18.4782 138.946 18.4465 138.957 18.4169C138.031 18.5267 137.012 18.5845 135.923 18.5845H132.961C132.791 18.5845 132.654 18.4465 132.654 18.2787V12.2438C132.654 12.0752 132.791 11.9388 132.961 11.9388C134.936 11.9388 137.008 12.0684 139.124 12.3234C139.054 12.0253 139.02 11.7414 139.02 11.4773C139.02 11.1595 139.054 10.8579 139.127 10.5742L129.095 10.5741ZM147.754 29.0579H141.665V10.5741L149.497 10.5714C154.778 10.9321 157.487 13.7754 157.774 19.2493C157.417 25.402 154.045 28.7018 147.754 29.0579ZM153.665 19.2663C153.665 14.1859 151.383 11.608 146.886 11.608H145.527C145.361 11.608 145.223 11.7462 145.223 11.9148V27.7185C145.223 27.8842 145.361 28.0229 145.527 28.0229H146.727C149.026 28.0229 150.78 27.2726 151.941 25.7948C153.083 24.3375 153.665 22.1411 153.665 19.2663ZM116.467 10.5741V29.0579H126.466C126.417 28.7222 126.389 28.4127 126.389 28.1547C126.389 27.8624 126.412 27.587 126.456 27.3362C125.766 27.4431 125.006 27.5267 124.193 27.5834C123.241 27.6568 121.977 27.6925 120.329 27.6925C120.163 27.6925 120.024 27.5553 120.024 27.389V20.2541C120.024 20.0857 120.163 19.9485 120.329 19.9485H123.294C124.408 20.0161 125.418 20.0792 126.348 20.1424C126.331 20.0663 126.312 19.9815 126.289 19.8876L126.28 18.6085C126.28 18.5735 126.285 18.5402 126.296 18.511C126.306 18.4782 126.316 18.4465 126.324 18.4169C125.402 18.5267 124.383 18.5845 123.294 18.5845H120.328C120.163 18.5845 120.023 18.4465 120.023 18.2787V12.2438C120.023 12.0752 120.163 11.9388 120.328 11.9388C122.303 11.9388 124.376 12.0684 126.492 12.3234C126.425 12.0253 126.389 11.7414 126.389 11.4773C126.389 11.1595 126.426 10.8579 126.494 10.5742L116.467 10.5741Z" fill="#093071"/>
<path d="M31.887 19.4624L22.9975 10.5728C22.9605 10.5353 22.9104 10.5149 22.8586 10.5149C22.8546 10.5149 22.8509 10.5149 22.8474 10.5149C22.7913 10.5181 22.739 10.5453 22.704 10.5896L18.9154 15.397C18.8529 15.4755 18.8601 15.5871 18.9307 15.6579L23.013 19.7395C23.1591 19.8868 23.2397 20.0813 23.2397 20.2903C23.2387 20.4958 23.1577 20.6883 23.0131 20.8321L21.8339 22.012C21.7676 22.0786 21.7573 22.1828 21.8086 22.26C22.1032 22.6995 22.5836 23.4252 22.6293 23.5048C22.7771 23.8008 22.8261 24.5557 22.3908 24.887L13.1039 32.0203C13.0558 32.0571 13.0275 32.1146 13.0275 32.1756C13.0275 32.9675 13.0264 39.3232 13.0271 39.3878C13.0271 39.5249 13.0271 39.6067 13.1357 39.6621C13.1631 39.676 13.1929 39.6824 13.2242 39.6824C13.3053 39.6824 13.3378 39.651 13.416 39.5731L13.5708 39.4162C13.7068 39.2819 31.8861 21.1109 31.8861 21.1109C32.3368 20.6548 32.3354 19.9161 31.887 19.4624Z" fill="#5E8CDA"/>
<path d="M20.0741 0.440683L20.071 0.436654C20.0687 0.434431 20.0669 0.431514 20.0655 0.429708L20.0603 0.423179C20.0251 0.38081 19.9732 0.355389 19.918 0.353027C19.9146 0.353027 19.9121 0.353027 19.9091 0.353027C19.857 0.353027 19.8064 0.372892 19.7696 0.410538L1.25074 18.9316C1.03042 19.1489 0.909424 19.4423 0.909424 19.7558C0.909424 20.0686 1.03125 20.3604 1.25213 20.5773L10.1385 29.465C10.1753 29.5026 10.2256 29.5228 10.2774 29.5228C10.2813 29.5228 10.2852 29.5228 10.2891 29.5228C10.3451 29.5196 10.3972 29.4926 10.4315 29.4475L14.223 24.64C14.285 24.562 14.2777 24.4511 14.2076 24.3793L10.1211 20.2976C9.97639 20.1539 9.89804 19.9615 9.89734 19.7558C9.89665 19.548 9.97639 19.3542 10.1211 19.2099L11.3037 18.0256C11.3708 17.9578 11.3805 17.852 11.3252 17.774L10.519 16.6144C10.1932 16.1524 10.2944 15.4961 10.7442 15.1511L20.0341 8.02362C20.0827 7.98639 20.1115 7.9293 20.1115 7.86734L20.1133 0.559177C20.1134 0.51653 20.0999 0.474856 20.0741 0.440683Z" fill="#093071"/>
<path d="M21.7105 23.3864L11.4237 16.7046L15.9673 23.2364C16.0646 23.3864 16.055 23.6419 15.947 23.7858L7.80843 34.1146C7.66493 34.3019 7.54463 34.5047 7.6466 34.7139C7.70091 34.8232 7.83413 34.9113 7.96305 34.9202C8.12377 34.9194 8.24699 34.8496 8.41605 34.7204L21.4953 24.6798C21.8954 24.3745 21.8845 23.6346 21.7105 23.3864Z" fill="#F5CD21"/>
<path d="M25.4869 5.32506C25.4247 5.19851 25.2886 5.11377 25.1465 5.11377C25.0191 5.11377 24.9002 5.16864 24.7174 5.30825L11.6326 15.3566C11.2179 15.6738 11.124 16.2786 11.4236 16.7044L21.7104 23.3862C21.5611 23.1675 17.2093 16.859 17.1653 16.7951C17.0666 16.6556 17.0751 16.3839 17.1826 16.2475L25.3211 5.91531L25.3265 5.90808C25.459 5.73875 25.5913 5.53968 25.4869 5.32506Z" fill="#FDDD75"/>
</svg>
