<svg width="123" height="28" viewBox="0 0 123 28" fill="none" xmlns="http://www.w3.org/2000/svg">
<path d="M10.4403 7.50514H18.0852L16.9035 12.0413C16.7368 12.6357 16.3803 13.1592 15.8884 13.5323C15.3961 13.9121 14.7893 14.1134 14.1675 14.1032H10.6385C9.86184 14.09 9.10382 14.3418 8.48938 14.817C7.86147 15.3042 7.40576 15.9795 7.18879 16.7441C7.03288 17.3077 7.01384 17.9004 7.13328 18.4729C7.25256 18.9912 7.47655 19.4797 7.7915 19.9083C8.11357 20.3335 8.53219 20.676 9.01278 20.9075C9.51804 21.1573 10.0749 21.285 10.6385 21.2803H12.7797C13.1728 21.2726 13.5452 21.4558 13.779 21.7719C14.0288 22.078 14.1092 22.4887 13.9931 22.8663L12.6449 27.8784H10.2658C8.70707 27.8938 7.16841 27.5262 5.78511 26.8078C4.46231 26.138 3.30336 25.1849 2.39089 24.0163C1.49 22.848 0.861353 21.4933 0.551036 20.051C0.218538 18.5228 0.25934 16.9368 0.669992 15.4276L0.804809 14.8804C1.09026 13.815 1.55125 12.8046 2.16884 11.8907C2.77623 11.0044 3.52034 10.2201 4.37349 9.56705C5.22633 8.91264 6.17988 8.40104 7.19672 8.05234C8.23893 7.68674 9.33579 7.50169 10.4403 7.50514ZM14.3024 27.9101L20.948 2.93723C21.1149 2.33226 21.4774 1.79961 21.979 1.42252C22.4709 1.03524 23.0819 0.830639 23.7078 0.843597H30.7738C32.3208 0.834022 33.8472 1.1986 35.2228 1.90627C37.9314 3.28252 39.8769 5.8047 40.5203 8.77401C40.8549 10.3002 40.8086 11.8854 40.3855 13.3895L40.2507 13.897C39.9661 14.9639 39.508 15.9766 38.8946 16.8947C38.3021 17.8013 37.5654 18.6049 36.7137 19.2739C34.9726 20.6151 32.8368 21.3428 30.639 21.3437H24.5167L25.7063 16.7044C25.871 16.1111 26.2245 15.5877 26.7135 15.2135C27.2084 14.8319 27.8174 14.628 28.4423 14.6346H30.4645C32.0882 14.631 33.5009 13.5224 33.8905 11.9462C34.0444 11.4063 34.0608 10.8365 33.9381 10.2887C33.8223 9.76919 33.598 9.28005 33.2798 8.85331C32.9472 8.43727 32.5277 8.09896 32.0506 7.86201C31.5598 7.6097 31.0164 7.47658 30.4645 7.47342H26.65L21.7411 25.8402C21.5707 26.4329 21.2149 26.9553 20.726 27.3312C20.2457 27.7115 19.6495 27.9158 19.0368 27.9101H14.3024ZM56.4842 14.5791L56.5873 14.2063C56.6378 14.0481 56.605 13.8751 56.5001 13.7464C56.4019 13.6123 56.2459 13.5329 56.0798 13.5323H45.0882C43.7709 13.5378 42.6311 12.6168 42.3602 11.3276C42.2613 10.8944 42.2613 10.4444 42.3602 10.0112L43.0422 7.4417H57.9434C58.8246 7.42901 59.6948 7.63905 60.4732 8.05234C61.2181 8.43569 61.8703 8.97695 62.3844 9.63842C62.8983 10.3019 63.2586 11.0711 63.4392 11.8907C63.6296 12.755 63.6105 13.6522 63.3837 14.5077L60.7111 24.4604C60.1779 26.4844 58.3394 27.8887 56.2463 27.8704L45.2548 27.807C43.4256 27.8208 41.6961 26.9751 40.5837 25.523C40.0575 24.8167 39.6896 24.0052 39.5052 23.1439C39.299 22.2434 39.3209 21.3058 39.5686 20.4158L39.7035 19.9083C39.8654 19.2805 40.1336 18.685 40.4965 18.1477C40.8589 17.6208 41.3003 17.1526 41.805 16.7599C42.3088 16.3907 42.8683 16.1042 43.4625 15.9114C44.0822 15.6971 44.7339 15.5898 45.3896 15.5942H54.6206L53.9465 18.1319C53.7771 18.725 53.4211 19.2478 52.9314 19.6228C52.4491 19.9986 51.8536 20.1999 51.2422 20.1938H47.1184C46.7614 20.172 46.4445 20.4207 46.3809 20.7727C46.3071 21.0006 46.3583 21.2504 46.5157 21.4309C46.6605 21.6157 46.8838 21.7215 47.1184 21.7164H53.7799C54.0109 21.7198 54.2365 21.6474 54.4223 21.5102C54.6012 21.3811 54.7233 21.1879 54.7633 20.971L54.8268 20.7013L56.4842 14.5791ZM76.1754 7.50514C77.7445 7.48738 79.294 7.855 80.6878 8.57575C82.0166 9.25368 83.1786 10.2179 84.09 11.399C84.9994 12.5858 85.6285 13.9631 85.9298 15.4276C86.2597 16.9604 86.2079 18.5509 85.7791 20.059L84.09 26.4033C83.9871 26.84 83.7274 27.2238 83.3604 27.4818C83.0073 27.751 82.5751 27.896 82.1312 27.8942H78.4752C77.6386 27.9103 77.0246 27.1129 77.254 26.3081L79.2841 18.6315C79.4407 18.0923 79.4598 17.5225 79.3396 16.974C79.2227 16.4535 78.9955 15.964 78.6735 15.5386C77.9972 14.6534 76.9485 14.1319 75.8344 14.127H72.0437L68.7684 26.4192C68.6621 26.8544 68.4033 27.2371 68.0388 27.4977C67.6732 27.772 67.2269 27.917 66.77 27.9101H63.1458C62.7663 27.9064 62.4108 27.7242 62.1862 27.4184C61.9295 27.1126 61.8459 26.6974 61.9641 26.3161L66.9444 7.50514H76.1754ZM96.0966 13.9526C95.8333 14.1559 95.6349 14.4314 95.5256 14.7456L94.003 20.4952C93.9097 20.7981 93.9721 21.1275 94.1695 21.3754C94.3533 21.63 94.6485 21.7806 94.9626 21.7799H108.976L107.889 25.8006C107.722 26.3947 107.365 26.9181 106.874 27.2915C106.394 27.673 105.798 27.8775 105.185 27.8704H92.4486C91.5669 27.8817 90.6958 27.6775 89.9109 27.2757C89.164 26.8954 88.5111 26.3536 87.9997 25.6896C87.4915 25.0167 87.132 24.2436 86.9449 23.4215C86.7562 22.5634 86.7862 21.6717 87.0322 20.8282L89.0941 13.1516C89.3162 12.332 89.6726 11.5548 90.1488 10.8518C91.0698 9.47204 92.4182 8.43276 93.9871 7.89373C94.7836 7.60878 95.6234 7.46389 96.4693 7.46549H105.502C106.385 7.45652 107.257 7.66631 108.04 8.07613C108.785 8.45969 109.437 9.00098 109.951 9.66221C110.467 10.3246 110.82 11.0987 110.982 11.9224C111.163 12.7853 111.141 13.6784 110.919 14.5315L110.308 16.8313C110.061 17.8134 109.481 18.6795 108.666 19.2818C107.867 19.8987 106.884 20.2284 105.875 20.2176H95.6604L96.3345 17.7116C96.4828 17.1171 96.8298 16.591 97.3179 16.2207C97.8102 15.8408 98.417 15.6395 99.0388 15.6497H103.171C103.528 15.6685 103.846 15.422 103.916 15.0708L104.051 14.5632C104.172 14.0728 103.81 13.5953 103.305 13.5798H97.0165C96.6756 13.5921 96.3499 13.7241 96.0966 13.9526ZM108.976 27.9101L115.78 2.36624C115.887 1.92675 116.141 1.53743 116.502 1.26391C116.867 0.988399 117.313 0.840711 117.77 0.843597H121.395C121.797 0.833527 122.18 1.01622 122.426 1.33528C122.673 1.64301 122.747 2.05484 122.624 2.42968L117.548 21.2803C117.308 22.2452 116.9 23.1606 116.343 23.9845C115.809 24.78 115.147 25.482 114.384 26.0623C113.621 26.6462 112.77 27.104 111.862 27.4184C110.935 27.7438 109.959 27.91 108.976 27.9101Z" fill="#F26C32"/>
</svg>
