<svg width="128" height="43" viewBox="0 0 128 43" fill="none" xmlns="http://www.w3.org/2000/svg">
<path d="M17.5631 40.1625H22.4303V42.6041H14.7622V32.5322H17.5631V40.1625ZM25.3185 37.5968V37.5624C25.3185 34.6719 27.6522 32.3198 30.7597 32.3198C33.8671 32.3198 36.1641 34.6363 36.1641 37.5268V37.5613C36.1641 40.4517 33.8304 42.8038 30.7229 42.8038C27.6155 42.8038 25.3185 40.4873 25.3185 37.5968ZM33.3264 37.5968V37.5624C33.3264 36.108 32.2852 34.851 30.7413 34.851C29.2145 34.851 28.1929 36.0908 28.1929 37.544V37.5785C28.1929 39.0329 29.2341 40.2899 30.7608 40.2899C32.3048 40.2899 33.3287 39.0501 33.3287 37.5968M39.6033 38.188V32.5322H42.4387V38.1341C42.4387 39.5885 43.1733 40.2692 44.2753 40.2692C45.3773 40.2692 46.112 39.6034 46.112 38.2029V32.5299H48.9474V38.1134C48.9474 41.362 47.1107 42.782 44.226 42.782C41.3711 42.782 39.5769 41.3471 39.5769 38.1857M53.2142 32.5322H57.0919C60.6826 32.5322 62.7834 34.5985 62.7834 37.505V37.5394C62.7834 40.4483 60.6643 42.5903 57.038 42.5903H53.2154V32.5184L53.2142 32.5322ZM57.1459 40.1269C58.8161 40.1269 59.9285 39.2108 59.9285 37.5785V37.544C59.9285 35.9278 58.815 34.9956 57.1459 34.9956H56.0152V40.1131H57.1459V40.1269ZM66.8642 32.5322H74.9261V34.9738H69.6479V36.698H74.4233V39.0145H69.6479V42.6052H66.8665L66.8642 32.5322ZM81.5864 40.1625H86.4697V42.6041H78.8015V32.5322H81.5841L81.5864 40.1625ZM93.759 32.4714H96.452L100.743 42.6156H97.7584L97.0237 40.8202H93.1437L92.4251 42.6156H89.4979L93.7705 32.4714H93.759ZM96.219 38.6472L95.1055 35.7923L93.9748 38.6472H96.219ZM104.346 32.5437H109.104C110.648 32.5437 111.708 32.9386 112.39 33.6388C112.982 34.2128 113.287 34.9853 113.287 35.992V36.0265C113.287 37.5704 112.461 38.5944 111.221 39.1259L113.627 42.6454H110.396L108.367 39.5919H107.136V42.6454H104.346V32.5437ZM108.978 37.373C109.931 37.373 110.468 36.9058 110.468 36.1883V36.1539C110.468 35.3641 109.894 34.9692 108.96 34.9692H107.129V37.3753H108.966L108.978 37.373ZM120.073 40.2348H125.477V42.6052H117.309V32.5345H125.406V34.905H120.073V36.4317H124.902V38.6403H120.073V40.2348ZM8.65519 38.7792C8.2603 39.6585 7.43379 40.2876 6.35704 40.2876C4.8303 40.2876 3.78913 39.0249 3.78913 37.5762V37.5417C3.78913 36.0873 4.81308 34.8487 6.33752 34.8487C7.48545 34.8487 8.36591 35.5375 8.72521 36.5189H11.6696C11.2024 34.1129 9.08451 32.3359 6.35474 32.3359C3.24846 32.3359 0.913574 34.6891 0.913574 37.5785V37.6129C0.918166 40.5034 3.21631 42.8199 6.3226 42.8199C8.98005 42.8199 11.0635 41.0957 11.6008 38.7976L8.65634 38.7792H8.65519Z" fill="#404041"/>
<path d="M113.071 11.4814L81.5601 11.6973V27.6948H122.1V16.4634L114.409 12.0462L113.071 11.4814Z" fill="white"/>
<path d="M108.069 26.2117C108.445 24.9192 108.302 23.7345 107.674 22.8541C107.1 22.0459 106.13 21.5913 104.962 21.5259L82.86 21.2389C82.7166 21.2389 82.5903 21.1666 82.5191 21.0599C82.4479 20.9531 82.4296 20.8073 82.4652 20.665C82.5054 20.5564 82.5759 20.4615 82.6682 20.3916C82.7605 20.3216 82.8709 20.2795 82.9863 20.2701L105.286 19.9831C107.926 19.8683 110.798 17.7217 111.804 15.0998L113.067 11.7777C113.123 11.6414 113.135 11.491 113.102 11.3472C111.667 4.84769 105.867 2.72398e-09 98.9368 2.72398e-09C95.9019 -5.87631e-05 92.9433 0.950724 90.4767 2.71875C88.0101 4.48678 86.1593 6.9832 85.1846 9.85724C83.9276 8.92398 82.3297 8.42233 80.6067 8.59452C79.1119 8.7492 77.716 9.41365 76.6535 10.4762C75.5909 11.5388 74.9264 12.9347 74.7718 14.4294C74.6973 15.193 74.7517 15.9636 74.9325 16.7092C72.517 16.7774 70.2235 17.7856 68.54 19.5192C66.8566 21.2528 65.9162 23.5749 65.919 25.9913C65.922 26.4416 65.9519 26.8912 66.0085 27.3379C66.0429 27.5537 66.2243 27.7144 66.439 27.7144H107.231C107.464 27.7144 107.69 27.5537 107.752 27.3195L108.057 26.2244L108.069 26.2117Z" fill="#F38020"/>
<path d="M115.107 12.0094L114.496 12.0278C114.353 12.0278 114.226 12.1357 114.172 12.2804L113.312 15.2787C112.935 16.5713 113.078 17.756 113.706 18.6364C114.28 19.4446 115.25 19.8991 116.418 19.9646L121.122 20.2516C121.266 20.2516 121.392 20.3239 121.463 20.4306C121.498 20.4894 121.521 20.5546 121.531 20.6225C121.54 20.6904 121.535 20.7595 121.517 20.8255C121.477 20.9341 121.406 21.029 121.314 21.0989C121.222 21.1689 121.111 21.211 120.996 21.2204L116.094 21.5074C113.437 21.6222 110.582 23.7688 109.576 26.3907L109.217 27.3067C109.145 27.4858 109.271 27.666 109.469 27.666H126.309C126.507 27.666 126.686 27.5512 126.74 27.3423C127.036 26.2781 127.187 25.1788 127.189 24.0741C127.18 20.8738 125.904 17.8073 123.639 15.5459C121.374 13.2846 118.306 12.0125 115.106 12.0083" fill="#FAAE40"/>
</svg>
