<svg width="26" height="26" viewBox="0 0 26 26" fill="none" xmlns="http://www.w3.org/2000/svg">
<path d="M13 12.0684C14.5802 12.0684 16.0957 11.4406 17.213 10.3233C18.3304 9.20591 18.9581 7.69043 18.9581 6.11024C18.9581 4.53004 18.3304 3.01456 17.213 1.8972C16.0957 0.77983 14.5802 0.1521 13 0.1521C11.4198 0.1521 9.90433 0.77983 8.78696 1.8972C7.66959 3.01456 7.04186 4.53004 7.04186 6.11024C7.04186 7.69043 7.66959 9.20591 8.78696 10.3233C9.90433 11.4406 11.4198 12.0684 13 12.0684ZM13 14.6861C5.07827 14.6861 0 19.0576 0 21.1861V25.1606H26V21.1861C26 18.6121 21.1924 14.6861 13 14.6861Z" fill="#BCBCBC"/>
</svg>
