<svg width="800" height="800" viewBox="0 0 800 800" fill="none" xmlns="http://www.w3.org/2000/svg">
<g clip-path="url(#clip0_3389_1677)">
<path d="M225 50C225 36.2 236.2 25 250 25H550C563.8 25 575 36.2 575 50V162.5H550V62.5C550 55.5875 544.412 50 537.5 50H262.5C255.588 50 250 55.5875 250 62.5V162.5H225V50Z" fill="#394240"/>
<path d="M750 162.5H600V50C600 22.3625 577.637 0 550 0H250C222.363 0 200 22.3625 200 50V162.5H50C22.3625 162.5 0 184.863 0 212.5V750C0 777.637 22.3625 800 50 800H750C777.637 800 800 777.637 800 750V212.5C800 184.863 777.637 162.5 750 162.5ZM225 50C225 36.2 236.2 25 250 25H550C563.8 25 575 36.2 575 50V162.5H550V62.5C550 55.5875 544.412 50 537.5 50H262.5C255.588 50 250 55.5875 250 62.5V162.5H225V50ZM525 75V162.5H275V75H525ZM775 750C775 763.8 763.8 775 750 775H50C36.2 775 25 763.8 25 750V525H150V587.5C150 594.412 155.588 600 162.5 600H237.5C244.412 600 250 594.412 250 587.5V525H550V587.5C550 594.412 555.588 600 562.5 600H637.5C644.412 600 650 594.412 650 587.5V525H775V750ZM175 575V525V500V450H225V500V525V575H175ZM575 575V525V500V450H625V500V525V575H575ZM775 500H650V437.5C650 430.588 644.412 425 637.5 425H562.5C555.588 425 550 430.588 550 437.5V500H250V437.5C250 430.588 244.412 425 237.5 425H162.5C155.588 425 150 430.588 150 437.5V500H25V212.5C25 198.7 36.2 187.5 50 187.5H750C763.8 187.5 775 198.7 775 212.5V500Z" fill="#394240"/>
<path d="M625 450H575V575H625V450Z" fill="white"/>
<path d="M225 450H175V575H225V450Z" fill="white"/>
<path d="M750 775C763.8 775 775 763.8 775 750V525H650V587.5C650 594.412 644.412 600 637.5 600H562.5C555.588 600 550 594.412 550 587.5V525H250V587.5C250 594.412 244.412 600 237.5 600H162.5C155.588 600 150 594.412 150 587.5V525H25V750C25 763.8 36.2 775 50 775H750Z" fill="#946DEA"/>
<path d="M750 187.5H50C36.2 187.5 25 198.7 25 212.5V500H150V437.5C150 430.588 155.588 425 162.5 425H237.5C244.412 425 250 430.588 250 437.5V500H550V437.5C550 430.588 555.588 425 562.5 425H637.5C644.412 425 650 430.588 650 437.5V500H775V212.5C775 198.7 763.8 187.5 750 187.5Z" fill="#946DEA"/>
<path opacity="0.2" d="M750 775C763.8 775 775 763.8 775 750V525H650V587.5C650 594.412 644.412 600 637.5 600H562.5C555.588 600 550 594.412 550 587.5V525H250V587.5C250 594.412 244.412 600 237.5 600H162.5C155.588 600 150 594.412 150 587.5V525H25V750C25 763.8 36.2 775 50 775H750Z" fill="black"/>
</g>
<defs>
<clipPath id="clip0_3389_1677">
<rect width="800" height="800" fill="white"/>
</clipPath>
</defs>
</svg>
