<svg width="40" height="40" viewBox="0 0 40 40" fill="none" xmlns="http://www.w3.org/2000/svg">
<rect x="7.67957" y="5.8335" width="27.5" height="33.3333" rx="5" fill="#31A8FF"/>
<path d="M33.3332 0H6.66668C2.99999 0 0 2.99999 0 6.66668V33.3333C0 37 2.99999 40 6.66668 40H33.3333C37 40 40 37 40 33.3333V6.66668C39.9999 2.99999 36.9999 0 33.3332 0ZM19.1647 20.3541C17.7763 21.7424 15.5943 22.3944 13.1292 22.3944C12.4775 22.3944 11.8825 22.3658 11.429 22.2808V29.4781H7.97235V10.635C9.21908 10.4084 10.9476 10.2383 13.2992 10.2383C15.8496 10.2383 17.7197 10.7767 18.9382 11.7968C20.0717 12.732 20.8083 14.2337 20.8083 16.0188C20.8082 17.8324 20.2415 19.334 19.1647 20.3541ZM26.4172 29.7617C24.7454 29.7617 23.2437 29.3649 22.2236 28.7981L22.9036 26.2763C23.6969 26.758 25.1989 27.2681 26.4456 27.2681C27.9755 27.2681 28.6558 26.6447 28.6558 25.7379C28.6558 24.803 28.0892 24.3211 26.3889 23.7261C23.6969 22.791 22.5638 21.3176 22.592 19.7024C22.592 17.2656 24.6038 15.3672 27.8057 15.3672C29.3359 15.3672 30.6676 15.764 31.4608 16.1888L30.7808 18.654C30.1858 18.3141 29.0806 17.8606 27.8623 17.8606C26.6154 17.8606 25.9354 18.4557 25.9354 19.3056C25.9354 20.1842 26.5872 20.6094 28.3441 21.2327C30.8375 22.1393 31.9993 23.4144 32.0276 25.4547C32.0276 27.9482 30.0726 29.7617 26.4172 29.7617ZM17.3229 16.1604C17.3229 18.399 15.7359 19.6741 13.1292 19.6741C12.4209 19.6741 11.8541 19.6458 11.429 19.5325V13.0719C11.7975 12.987 12.4775 12.902 13.4411 12.902C15.8496 12.902 17.3229 14.0354 17.3229 16.1604Z" fill="#001E36"/>
</svg>
