<svg width="356" height="112" viewBox="0 0 356 112" fill="none" xmlns="http://www.w3.org/2000/svg">
<g filter="url(#filter0_b_247_9)">
<rect width="356" height="112" rx="9.37805" fill="white" fill-opacity="0.5"/>
</g>
<path d="M99.5274 58.6342C99.8765 66.7268 97.6156 74.7152 93.0846 81.3978C88.5536 88.0803 81.9975 93.0957 74.4026 95.6895C66.8077 98.2833 58.5845 98.3153 50.97 95.7807C43.3555 93.246 36.7615 88.2817 32.1797 81.6346" stroke="url(#paint0_linear_247_9)" stroke-width="5" stroke-linecap="round"/>
<path d="M25.352 60.5854C25.2967 57.9363 25.5188 55.2887 26.0146 52.6859C27.3844 45.5306 30.825 38.9368 35.9083 33.7251C40.9916 28.5134 47.493 24.914 54.6034 23.3749C61.7138 21.8358 69.1191 22.425 75.8977 25.0691C82.6762 27.7133 88.5287 32.2956 92.7266 38.2457" stroke="url(#paint1_linear_247_9)" stroke-width="5" stroke-linecap="round"/>
<path d="M76.125 37.0529L93.8881 39.122L95.6563 22.5366" stroke="url(#paint2_linear_247_9)" stroke-width="5" stroke-linecap="round"/>
<path d="M47.8047 82.1666L30.9453 80.0975L29.25 96.6829" stroke="url(#paint3_linear_247_9)" stroke-width="5" stroke-linecap="round"/>
<path d="M74.0651 49.8477C73.1664 47.7884 71.6645 46.0396 69.7513 44.8246C67.8381 43.6096 65.6004 42.9836 63.3241 43.0265C53.633 43.0265 53.2938 49.8477 53.2938 49.8477C53.2938 49.8477 51.8402 58.2432 63.6795 59.1495C75.971 60.0717 74.0651 68.4353 74.0651 68.4353C74.0651 68.4353 72.8052 75.7177 63.6795 76.1788C54.5537 76.6399 51.7109 67.1951 51.7109 67.1951" stroke="url(#paint4_linear_247_9)" stroke-width="2"/>
<path d="M63.4297 36.1951V83.0244" stroke="url(#paint5_linear_247_9)" stroke-width="2"/>
<path d="M173.28 46.82H180.24V48.96H173.28V46.82ZM173.48 52.82H181.38V55H170.88V41H181.1V43.18H173.48V52.82ZM188.841 55.14C187.721 55.14 186.721 54.9067 185.841 54.44C184.974 53.96 184.294 53.3067 183.801 52.48C183.307 51.6533 183.061 50.7133 183.061 49.66C183.061 48.5933 183.307 47.6533 183.801 46.84C184.294 46.0133 184.974 45.3667 185.841 44.9C186.721 44.4333 187.721 44.2 188.841 44.2C189.881 44.2 190.794 44.4133 191.581 44.84C192.381 45.2533 192.987 45.8667 193.401 46.68L191.481 47.8C191.161 47.2933 190.767 46.92 190.301 46.68C189.847 46.44 189.354 46.32 188.821 46.32C188.207 46.32 187.654 46.4533 187.161 46.72C186.667 46.9867 186.281 47.3733 186.001 47.88C185.721 48.3733 185.581 48.9667 185.581 49.66C185.581 50.3533 185.721 50.9533 186.001 51.46C186.281 51.9533 186.667 52.3333 187.161 52.6C187.654 52.8667 188.207 53 188.821 53C189.354 53 189.847 52.88 190.301 52.64C190.767 52.4 191.161 52.0267 191.481 51.52L193.401 52.64C192.987 53.44 192.381 54.06 191.581 54.5C190.794 54.9267 189.881 55.14 188.841 55.14ZM200.206 55.14C199.112 55.14 198.139 54.9067 197.286 54.44C196.432 53.96 195.759 53.3067 195.266 52.48C194.772 51.6533 194.526 50.7133 194.526 49.66C194.526 48.5933 194.772 47.6533 195.266 46.84C195.759 46.0133 196.432 45.3667 197.286 44.9C198.139 44.4333 199.112 44.2 200.206 44.2C201.312 44.2 202.292 44.4333 203.146 44.9C204.012 45.3667 204.686 46.0067 205.166 46.82C205.659 47.6333 205.906 48.58 205.906 49.66C205.906 50.7133 205.659 51.6533 205.166 52.48C204.686 53.3067 204.012 53.96 203.146 54.44C202.292 54.9067 201.312 55.14 200.206 55.14ZM200.206 53C200.819 53 201.366 52.8667 201.846 52.6C202.326 52.3333 202.699 51.9467 202.966 51.44C203.246 50.9333 203.386 50.34 203.386 49.66C203.386 48.9667 203.246 48.3733 202.966 47.88C202.699 47.3733 202.326 46.9867 201.846 46.72C201.366 46.4533 200.826 46.32 200.226 46.32C199.612 46.32 199.066 46.4533 198.586 46.72C198.119 46.9867 197.746 47.3733 197.466 47.88C197.186 48.3733 197.046 48.9667 197.046 49.66C197.046 50.34 197.186 50.9333 197.466 51.44C197.746 51.9467 198.119 52.3333 198.586 52.6C199.066 52.8667 199.606 53 200.206 53ZM214.356 44.2C215.21 44.2 215.97 44.3667 216.636 44.7C217.316 45.0333 217.85 45.5467 218.236 46.24C218.623 46.92 218.816 47.8 218.816 48.88V55H216.316V49.2C216.316 48.2533 216.09 47.5467 215.636 47.08C215.196 46.6133 214.576 46.38 213.776 46.38C213.19 46.38 212.67 46.5 212.216 46.74C211.763 46.98 211.41 47.34 211.156 47.82C210.916 48.2867 210.796 48.88 210.796 49.6V55H208.296V44.32H210.676V47.2L210.256 46.32C210.63 45.64 211.17 45.12 211.876 44.76C212.596 44.3867 213.423 44.2 214.356 44.2ZM226.807 55.14C225.714 55.14 224.741 54.9067 223.887 54.44C223.034 53.96 222.361 53.3067 221.867 52.48C221.374 51.6533 221.127 50.7133 221.127 49.66C221.127 48.5933 221.374 47.6533 221.867 46.84C222.361 46.0133 223.034 45.3667 223.887 44.9C224.741 44.4333 225.714 44.2 226.807 44.2C227.914 44.2 228.894 44.4333 229.747 44.9C230.614 45.3667 231.287 46.0067 231.767 46.82C232.261 47.6333 232.507 48.58 232.507 49.66C232.507 50.7133 232.261 51.6533 231.767 52.48C231.287 53.3067 230.614 53.96 229.747 54.44C228.894 54.9067 227.914 55.14 226.807 55.14ZM226.807 53C227.421 53 227.967 52.8667 228.447 52.6C228.927 52.3333 229.301 51.9467 229.567 51.44C229.847 50.9333 229.987 50.34 229.987 49.66C229.987 48.9667 229.847 48.3733 229.567 47.88C229.301 47.3733 228.927 46.9867 228.447 46.72C227.967 46.4533 227.427 46.32 226.827 46.32C226.214 46.32 225.667 46.4533 225.187 46.72C224.721 46.9867 224.347 47.3733 224.067 47.88C223.787 48.3733 223.647 48.9667 223.647 49.66C223.647 50.34 223.787 50.9333 224.067 51.44C224.347 51.9467 224.721 52.3333 225.187 52.6C225.667 52.8667 226.207 53 226.807 53ZM248.378 44.2C249.231 44.2 249.984 44.3667 250.638 44.7C251.304 45.0333 251.824 45.5467 252.198 46.24C252.571 46.92 252.758 47.8 252.758 48.88V55H250.258V49.2C250.258 48.2533 250.051 47.5467 249.638 47.08C249.224 46.6133 248.631 46.38 247.858 46.38C247.311 46.38 246.824 46.5 246.398 46.74C245.984 46.98 245.658 47.3333 245.418 47.8C245.191 48.2667 245.078 48.86 245.078 49.58V55H242.578V49.2C242.578 48.2533 242.371 47.5467 241.958 47.08C241.544 46.6133 240.951 46.38 240.178 46.38C239.631 46.38 239.144 46.5 238.718 46.74C238.304 46.98 237.978 47.3333 237.738 47.8C237.511 48.2667 237.398 48.86 237.398 49.58V55H234.898V44.32H237.278V47.16L236.858 46.32C237.218 45.6267 237.738 45.1 238.418 44.74C239.111 44.38 239.898 44.2 240.778 44.2C241.778 44.2 242.644 44.4467 243.378 44.94C244.124 45.4333 244.618 46.18 244.858 47.18L243.878 46.84C244.224 46.04 244.798 45.4 245.598 44.92C246.398 44.44 247.324 44.2 248.378 44.2ZM255.953 55V44.32H258.453V55H255.953ZM257.213 42.56C256.746 42.56 256.359 42.4133 256.053 42.12C255.759 41.8267 255.613 41.4733 255.613 41.06C255.613 40.6333 255.759 40.28 256.053 40C256.359 39.7067 256.746 39.56 257.213 39.56C257.679 39.56 258.059 39.7 258.353 39.98C258.659 40.2467 258.813 40.5867 258.813 41C258.813 41.44 258.666 41.8133 258.373 42.12C258.079 42.4133 257.693 42.56 257.213 42.56ZM268.314 55V52.84L268.174 52.38V48.6C268.174 47.8667 267.954 47.3 267.514 46.9C267.074 46.4867 266.407 46.28 265.514 46.28C264.914 46.28 264.32 46.3733 263.734 46.56C263.16 46.7467 262.674 47.0067 262.274 47.34L261.294 45.52C261.867 45.08 262.547 44.7533 263.334 44.54C264.134 44.3133 264.96 44.2 265.814 44.2C267.36 44.2 268.554 44.5733 269.394 45.32C270.247 46.0533 270.674 47.1933 270.674 48.74V55H268.314ZM264.954 55.14C264.154 55.14 263.454 55.0067 262.854 54.74C262.254 54.46 261.787 54.08 261.454 53.6C261.134 53.1067 260.974 52.5533 260.974 51.94C260.974 51.34 261.114 50.8 261.394 50.32C261.687 49.84 262.16 49.46 262.814 49.18C263.467 48.9 264.334 48.76 265.414 48.76H268.514V50.42H265.594C264.74 50.42 264.167 50.56 263.874 50.84C263.58 51.1067 263.434 51.44 263.434 51.84C263.434 52.2933 263.614 52.6533 263.974 52.92C264.334 53.1867 264.834 53.32 265.474 53.32C266.087 53.32 266.634 53.18 267.114 52.9C267.607 52.62 267.96 52.2067 268.174 51.66L268.594 53.16C268.354 53.7867 267.92 54.2733 267.294 54.62C266.68 54.9667 265.9 55.14 264.954 55.14ZM173.94 75.14C173.047 75.14 172.187 75.0267 171.36 74.8C170.547 74.56 169.9 74.2733 169.42 73.94L170.38 72.04C170.86 72.3467 171.433 72.6 172.1 72.8C172.767 73 173.433 73.1 174.1 73.1C174.887 73.1 175.453 72.9933 175.8 72.78C176.16 72.5667 176.34 72.28 176.34 71.92C176.34 71.6267 176.22 71.4067 175.98 71.26C175.74 71.1 175.427 70.98 175.04 70.9C174.653 70.82 174.22 70.7467 173.74 70.68C173.273 70.6133 172.8 70.5267 172.32 70.42C171.853 70.3 171.427 70.1333 171.04 69.92C170.653 69.6933 170.34 69.3933 170.1 69.02C169.86 68.6467 169.74 68.1533 169.74 67.54C169.74 66.86 169.933 66.2733 170.32 65.78C170.707 65.2733 171.247 64.8867 171.94 64.62C172.647 64.34 173.48 64.2 174.44 64.2C175.16 64.2 175.887 64.28 176.62 64.44C177.353 64.6 177.96 64.8267 178.44 65.12L177.48 67.02C176.973 66.7133 176.46 66.5067 175.94 66.4C175.433 66.28 174.927 66.22 174.42 66.22C173.66 66.22 173.093 66.3333 172.72 66.56C172.36 66.7867 172.18 67.0733 172.18 67.42C172.18 67.74 172.3 67.98 172.54 68.14C172.78 68.3 173.093 68.4267 173.48 68.52C173.867 68.6133 174.293 68.6933 174.76 68.76C175.24 68.8133 175.713 68.9 176.18 69.02C176.647 69.14 177.073 69.3067 177.46 69.52C177.86 69.72 178.18 70.0067 178.42 70.38C178.66 70.7533 178.78 71.24 178.78 71.84C178.78 72.5067 178.58 73.0867 178.18 73.58C177.793 74.0733 177.24 74.46 176.52 74.74C175.8 75.0067 174.94 75.14 173.94 75.14ZM185.453 75.14C184.546 75.14 183.746 74.9733 183.053 74.64C182.36 74.2933 181.82 73.7733 181.433 73.08C181.046 72.3733 180.853 71.4867 180.853 70.42V64.32H183.353V70.08C183.353 71.04 183.566 71.76 183.993 72.24C184.433 72.7067 185.053 72.94 185.853 72.94C186.44 72.94 186.946 72.82 187.373 72.58C187.813 72.34 188.153 71.98 188.393 71.5C188.646 71.02 188.773 70.4267 188.773 69.72V64.32H191.273V75H188.893V72.12L189.313 73C188.953 73.6933 188.426 74.2267 187.733 74.6C187.04 74.96 186.28 75.14 185.453 75.14ZM197.846 75.14C196.953 75.14 196.093 75.0267 195.266 74.8C194.453 74.56 193.806 74.2733 193.326 73.94L194.286 72.04C194.766 72.3467 195.34 72.6 196.006 72.8C196.673 73 197.34 73.1 198.006 73.1C198.793 73.1 199.36 72.9933 199.706 72.78C200.066 72.5667 200.246 72.28 200.246 71.92C200.246 71.6267 200.126 71.4067 199.886 71.26C199.646 71.1 199.333 70.98 198.946 70.9C198.56 70.82 198.126 70.7467 197.646 70.68C197.18 70.6133 196.706 70.5267 196.226 70.42C195.76 70.3 195.333 70.1333 194.946 69.92C194.56 69.6933 194.246 69.3933 194.006 69.02C193.766 68.6467 193.646 68.1533 193.646 67.54C193.646 66.86 193.84 66.2733 194.226 65.78C194.613 65.2733 195.153 64.8867 195.846 64.62C196.553 64.34 197.386 64.2 198.346 64.2C199.066 64.2 199.793 64.28 200.526 64.44C201.26 64.6 201.866 64.8267 202.346 65.12L201.386 67.02C200.88 66.7133 200.366 66.5067 199.846 66.4C199.34 66.28 198.833 66.22 198.326 66.22C197.566 66.22 197 66.3333 196.626 66.56C196.266 66.7867 196.086 67.0733 196.086 67.42C196.086 67.74 196.206 67.98 196.446 68.14C196.686 68.3 197 68.4267 197.386 68.52C197.773 68.6133 198.2 68.6933 198.666 68.76C199.146 68.8133 199.62 68.9 200.086 69.02C200.553 69.14 200.98 69.3067 201.366 69.52C201.766 69.72 202.086 70.0067 202.326 70.38C202.566 70.7533 202.686 71.24 202.686 71.84C202.686 72.5067 202.486 73.0867 202.086 73.58C201.7 74.0733 201.146 74.46 200.426 74.74C199.706 75.0067 198.846 75.14 197.846 75.14ZM208.859 75.14C207.686 75.14 206.779 74.84 206.139 74.24C205.499 73.6267 205.179 72.7267 205.179 71.54V61.96H207.679V71.48C207.679 71.9867 207.806 72.38 208.059 72.66C208.326 72.94 208.693 73.08 209.159 73.08C209.719 73.08 210.186 72.9333 210.559 72.64L211.259 74.42C210.966 74.66 210.606 74.84 210.179 74.96C209.753 75.08 209.313 75.14 208.859 75.14ZM203.419 66.4V64.4H210.539V66.4H203.419ZM217.984 75.14C216.798 75.14 215.758 74.9067 214.864 74.44C213.984 73.96 213.298 73.3067 212.804 72.48C212.324 71.6533 212.084 70.7133 212.084 69.66C212.084 68.5933 212.318 67.6533 212.784 66.84C213.264 66.0133 213.918 65.3667 214.744 64.9C215.584 64.4333 216.538 64.2 217.604 64.2C218.644 64.2 219.571 64.4267 220.384 64.88C221.198 65.3333 221.838 65.9733 222.304 66.8C222.771 67.6267 223.004 68.6 223.004 69.72C223.004 69.8267 222.998 69.9467 222.984 70.08C222.984 70.2133 222.978 70.34 222.964 70.46H214.064V68.8H221.644L220.664 69.32C220.678 68.7067 220.551 68.1667 220.284 67.7C220.018 67.2333 219.651 66.8667 219.184 66.6C218.731 66.3333 218.204 66.2 217.604 66.2C216.991 66.2 216.451 66.3333 215.984 66.6C215.531 66.8667 215.171 67.24 214.904 67.72C214.651 68.1867 214.524 68.74 214.524 69.38V69.78C214.524 70.42 214.671 70.9867 214.964 71.48C215.258 71.9733 215.671 72.3533 216.204 72.62C216.738 72.8867 217.351 73.02 218.044 73.02C218.644 73.02 219.184 72.9267 219.664 72.74C220.144 72.5533 220.571 72.26 220.944 71.86L222.284 73.4C221.804 73.96 221.198 74.3933 220.464 74.7C219.744 74.9933 218.918 75.14 217.984 75.14ZM231.466 64.2C232.319 64.2 233.079 64.3667 233.746 64.7C234.426 65.0333 234.959 65.5467 235.346 66.24C235.732 66.92 235.926 67.8 235.926 68.88V75H233.426V69.2C233.426 68.2533 233.199 67.5467 232.746 67.08C232.306 66.6133 231.686 66.38 230.886 66.38C230.299 66.38 229.779 66.5 229.326 66.74C228.872 66.98 228.519 67.34 228.266 67.82C228.026 68.2867 227.906 68.88 227.906 69.6V75H225.406V64.32H227.786V67.2L227.366 66.32C227.739 65.64 228.279 65.12 228.986 64.76C229.706 64.3867 230.532 64.2 231.466 64.2ZM243.117 75.14C241.944 75.14 241.037 74.84 240.397 74.24C239.757 73.6267 239.437 72.7267 239.437 71.54V61.96H241.937V71.48C241.937 71.9867 242.064 72.38 242.317 72.66C242.584 72.94 242.95 73.08 243.417 73.08C243.977 73.08 244.444 72.9333 244.817 72.64L245.517 74.42C245.224 74.66 244.864 74.84 244.437 74.96C244.01 75.08 243.57 75.14 243.117 75.14ZM237.677 66.4V64.4H244.797V66.4H237.677ZM254.154 75V72.84L254.014 72.38V68.6C254.014 67.8667 253.794 67.3 253.354 66.9C252.914 66.4867 252.247 66.28 251.354 66.28C250.754 66.28 250.16 66.3733 249.574 66.56C249 66.7467 248.514 67.0067 248.114 67.34L247.134 65.52C247.707 65.08 248.387 64.7533 249.174 64.54C249.974 64.3133 250.8 64.2 251.654 64.2C253.2 64.2 254.394 64.5733 255.234 65.32C256.087 66.0533 256.514 67.1933 256.514 68.74V75H254.154ZM250.794 75.14C249.994 75.14 249.294 75.0067 248.694 74.74C248.094 74.46 247.627 74.08 247.294 73.6C246.974 73.1067 246.814 72.5533 246.814 71.94C246.814 71.34 246.954 70.8 247.234 70.32C247.527 69.84 248 69.46 248.654 69.18C249.307 68.9 250.174 68.76 251.254 68.76H254.354V70.42H251.434C250.58 70.42 250.007 70.56 249.714 70.84C249.42 71.1067 249.274 71.44 249.274 71.84C249.274 72.2933 249.454 72.6533 249.814 72.92C250.174 73.1867 250.674 73.32 251.314 73.32C251.927 73.32 252.474 73.18 252.954 72.9C253.447 72.62 253.8 72.2067 254.014 71.66L254.434 73.16C254.194 73.7867 253.76 74.2733 253.134 74.62C252.52 74.9667 251.74 75.14 250.794 75.14ZM250.194 62.86L252.894 60.12H255.834L252.354 62.86H250.194ZM262.367 75L257.787 64.32H260.387L264.327 73.74H263.047L267.127 64.32H269.527L264.947 75H262.367ZM275.816 75.14C274.63 75.14 273.59 74.9067 272.696 74.44C271.816 73.96 271.13 73.3067 270.636 72.48C270.156 71.6533 269.916 70.7133 269.916 69.66C269.916 68.5933 270.15 67.6533 270.616 66.84C271.096 66.0133 271.75 65.3667 272.576 64.9C273.416 64.4333 274.37 64.2 275.436 64.2C276.476 64.2 277.403 64.4267 278.216 64.88C279.03 65.3333 279.67 65.9733 280.136 66.8C280.603 67.6267 280.836 68.6 280.836 69.72C280.836 69.8267 280.83 69.9467 280.816 70.08C280.816 70.2133 280.81 70.34 280.796 70.46H271.896V68.8H279.476L278.496 69.32C278.51 68.7067 278.383 68.1667 278.116 67.7C277.85 67.2333 277.483 66.8667 277.016 66.6C276.563 66.3333 276.036 66.2 275.436 66.2C274.823 66.2 274.283 66.3333 273.816 66.6C273.363 66.8667 273.003 67.24 272.736 67.72C272.483 68.1867 272.356 68.74 272.356 69.38V69.78C272.356 70.42 272.503 70.9867 272.796 71.48C273.09 71.9733 273.503 72.3533 274.036 72.62C274.57 72.8867 275.183 73.02 275.876 73.02C276.476 73.02 277.016 72.9267 277.496 72.74C277.976 72.5533 278.403 72.26 278.776 71.86L280.116 73.4C279.636 73.96 279.03 74.3933 278.296 74.7C277.576 74.9933 276.75 75.14 275.816 75.14ZM283.238 75V60.16H285.738V75H283.238Z" fill="#26292E"/>
<path d="M141.14 9.84698V104.096" stroke="#FE8323" stroke-width="0.937805"/>
<defs>
<filter id="filter0_b_247_9" x="-18.7561" y="-18.7561" width="393.512" height="149.512" filterUnits="userSpaceOnUse" color-interpolation-filters="sRGB">
<feFlood flood-opacity="0" result="BackgroundImageFix"/>
<feGaussianBlur in="BackgroundImageFix" stdDeviation="9.37805"/>
<feComposite in2="SourceAlpha" operator="in" result="effect1_backgroundBlur_247_9"/>
<feBlend mode="normal" in="SourceGraphic" in2="effect1_backgroundBlur_247_9" result="shape"/>
</filter>
<linearGradient id="paint0_linear_247_9" x1="65.8711" y1="58.6342" x2="65.8711" y2="97.6585" gradientUnits="userSpaceOnUse">
<stop stop-color="#FE8323"/>
<stop offset="0.5" stop-color="#F4A50D"/>
<stop offset="1" stop-color="#984E15"/>
</linearGradient>
<linearGradient id="paint1_linear_247_9" x1="59.0352" y1="22.5366" x2="59.0352" y2="60.5854" gradientUnits="userSpaceOnUse">
<stop stop-color="#FE8323"/>
<stop offset="0.5" stop-color="#F4A50D"/>
<stop offset="1" stop-color="#984E15"/>
</linearGradient>
<linearGradient id="paint2_linear_247_9" x1="85.8906" y1="22.5366" x2="85.8906" y2="39.122" gradientUnits="userSpaceOnUse">
<stop stop-color="#FE8323"/>
<stop offset="0.5" stop-color="#F4A50D"/>
<stop offset="1" stop-color="#984E15"/>
</linearGradient>
<linearGradient id="paint3_linear_247_9" x1="38.5273" y1="80.0975" x2="38.5273" y2="96.6829" gradientUnits="userSpaceOnUse">
<stop stop-color="#FE8323"/>
<stop offset="0.5" stop-color="#F4A50D"/>
<stop offset="1" stop-color="#984E15"/>
</linearGradient>
<linearGradient id="paint4_linear_247_9" x1="62.9414" y1="43.0244" x2="62.9414" y2="76.1951" gradientUnits="userSpaceOnUse">
<stop stop-color="#FE8323"/>
<stop offset="0.5" stop-color="#F4A50D"/>
<stop offset="1" stop-color="#984E15"/>
</linearGradient>
<linearGradient id="paint5_linear_247_9" x1="63.9297" y1="36.1951" x2="63.9297" y2="83.0244" gradientUnits="userSpaceOnUse">
<stop stop-color="#FE8323"/>
<stop offset="0.5" stop-color="#F4A50D"/>
<stop offset="1" stop-color="#984E15"/>
</linearGradient>
</defs>
</svg>
