<svg width="290" height="98" viewBox="0 0 290 98" fill="none" xmlns="http://www.w3.org/2000/svg">
<path d="M79.5274 49.6342C79.8765 57.7268 77.6156 65.7152 73.0846 72.3978C68.5536 79.0803 61.9975 84.0957 54.4026 86.6895C46.8077 89.2833 38.5845 89.3153 30.97 86.7807C23.3555 84.246 16.7615 79.2817 12.1797 72.6346" stroke="url(#paint0_linear_247_9)" stroke-width="5" stroke-linecap="round"/>
<path d="M5.35204 51.5854C5.29669 48.9363 5.51875 46.2887 6.01458 43.6859C7.38435 36.5306 10.825 29.9368 15.9083 24.7251C20.9916 19.5134 27.493 15.914 34.6034 14.3749C41.7138 12.8358 49.1191 13.425 55.8977 16.0691C62.6762 18.7133 68.5287 23.2956 72.7266 29.2457" stroke="url(#paint1_linear_247_9)" stroke-width="5" stroke-linecap="round"/>
<path d="M56.125 28.0529L73.8881 30.122L75.6563 13.5366" stroke="url(#paint2_linear_247_9)" stroke-width="5" stroke-linecap="round"/>
<path d="M27.8047 73.1666L10.9453 71.0975L9.25 87.6829" stroke="url(#paint3_linear_247_9)" stroke-width="5" stroke-linecap="round"/>
<path d="M54.0651 40.8477C53.1664 38.7884 51.6645 37.0396 49.7513 35.8246C47.8381 34.6096 45.6004 33.9836 43.3241 34.0265C33.633 34.0265 33.2938 40.8477 33.2938 40.8477C33.2938 40.8477 31.8402 49.2432 43.6795 50.1495C55.971 51.0717 54.0651 59.4353 54.0651 59.4353C54.0651 59.4353 52.8052 66.7177 43.6795 67.1788C34.5537 67.6399 31.7109 58.1951 31.7109 58.1951" stroke="url(#paint4_linear_247_9)" stroke-width="2"/>
<path d="M43.4297 27.1951V74.0244" stroke="url(#paint5_linear_247_9)" stroke-width="2"/>
<path d="M153.28 37.82H160.24V39.96H153.28V37.82ZM153.48 43.82H161.38V46H150.88V32H161.1V34.18H153.48V43.82ZM168.841 46.14C167.721 46.14 166.721 45.9067 165.841 45.44C164.974 44.96 164.294 44.3067 163.801 43.48C163.307 42.6533 163.061 41.7133 163.061 40.66C163.061 39.5933 163.307 38.6533 163.801 37.84C164.294 37.0133 164.974 36.3667 165.841 35.9C166.721 35.4333 167.721 35.2 168.841 35.2C169.881 35.2 170.794 35.4133 171.581 35.84C172.381 36.2533 172.987 36.8667 173.401 37.68L171.481 38.8C171.161 38.2933 170.767 37.92 170.301 37.68C169.847 37.44 169.354 37.32 168.821 37.32C168.207 37.32 167.654 37.4533 167.161 37.72C166.667 37.9867 166.281 38.3733 166.001 38.88C165.721 39.3733 165.581 39.9667 165.581 40.66C165.581 41.3533 165.721 41.9533 166.001 42.46C166.281 42.9533 166.667 43.3333 167.161 43.6C167.654 43.8667 168.207 44 168.821 44C169.354 44 169.847 43.88 170.301 43.64C170.767 43.4 171.161 43.0267 171.481 42.52L173.401 43.64C172.987 44.44 172.381 45.06 171.581 45.5C170.794 45.9267 169.881 46.14 168.841 46.14ZM180.206 46.14C179.112 46.14 178.139 45.9067 177.286 45.44C176.432 44.96 175.759 44.3067 175.266 43.48C174.772 42.6533 174.526 41.7133 174.526 40.66C174.526 39.5933 174.772 38.6533 175.266 37.84C175.759 37.0133 176.432 36.3667 177.286 35.9C178.139 35.4333 179.112 35.2 180.206 35.2C181.312 35.2 182.292 35.4333 183.146 35.9C184.012 36.3667 184.686 37.0067 185.166 37.82C185.659 38.6333 185.906 39.58 185.906 40.66C185.906 41.7133 185.659 42.6533 185.166 43.48C184.686 44.3067 184.012 44.96 183.146 45.44C182.292 45.9067 181.312 46.14 180.206 46.14ZM180.206 44C180.819 44 181.366 43.8667 181.846 43.6C182.326 43.3333 182.699 42.9467 182.966 42.44C183.246 41.9333 183.386 41.34 183.386 40.66C183.386 39.9667 183.246 39.3733 182.966 38.88C182.699 38.3733 182.326 37.9867 181.846 37.72C181.366 37.4533 180.826 37.32 180.226 37.32C179.612 37.32 179.066 37.4533 178.586 37.72C178.119 37.9867 177.746 38.3733 177.466 38.88C177.186 39.3733 177.046 39.9667 177.046 40.66C177.046 41.34 177.186 41.9333 177.466 42.44C177.746 42.9467 178.119 43.3333 178.586 43.6C179.066 43.8667 179.606 44 180.206 44ZM194.356 35.2C195.21 35.2 195.97 35.3667 196.636 35.7C197.316 36.0333 197.85 36.5467 198.236 37.24C198.623 37.92 198.816 38.8 198.816 39.88V46H196.316V40.2C196.316 39.2533 196.09 38.5467 195.636 38.08C195.196 37.6133 194.576 37.38 193.776 37.38C193.19 37.38 192.67 37.5 192.216 37.74C191.763 37.98 191.41 38.34 191.156 38.82C190.916 39.2867 190.796 39.88 190.796 40.6V46H188.296V35.32H190.676V38.2L190.256 37.32C190.63 36.64 191.17 36.12 191.876 35.76C192.596 35.3867 193.423 35.2 194.356 35.2ZM206.807 46.14C205.714 46.14 204.741 45.9067 203.887 45.44C203.034 44.96 202.361 44.3067 201.867 43.48C201.374 42.6533 201.127 41.7133 201.127 40.66C201.127 39.5933 201.374 38.6533 201.867 37.84C202.361 37.0133 203.034 36.3667 203.887 35.9C204.741 35.4333 205.714 35.2 206.807 35.2C207.914 35.2 208.894 35.4333 209.747 35.9C210.614 36.3667 211.287 37.0067 211.767 37.82C212.261 38.6333 212.507 39.58 212.507 40.66C212.507 41.7133 212.261 42.6533 211.767 43.48C211.287 44.3067 210.614 44.96 209.747 45.44C208.894 45.9067 207.914 46.14 206.807 46.14ZM206.807 44C207.421 44 207.967 43.8667 208.447 43.6C208.927 43.3333 209.301 42.9467 209.567 42.44C209.847 41.9333 209.987 41.34 209.987 40.66C209.987 39.9667 209.847 39.3733 209.567 38.88C209.301 38.3733 208.927 37.9867 208.447 37.72C207.967 37.4533 207.427 37.32 206.827 37.32C206.214 37.32 205.667 37.4533 205.187 37.72C204.721 37.9867 204.347 38.3733 204.067 38.88C203.787 39.3733 203.647 39.9667 203.647 40.66C203.647 41.34 203.787 41.9333 204.067 42.44C204.347 42.9467 204.721 43.3333 205.187 43.6C205.667 43.8667 206.207 44 206.807 44ZM228.378 35.2C229.231 35.2 229.984 35.3667 230.638 35.7C231.304 36.0333 231.824 36.5467 232.198 37.24C232.571 37.92 232.758 38.8 232.758 39.88V46H230.258V40.2C230.258 39.2533 230.051 38.5467 229.638 38.08C229.224 37.6133 228.631 37.38 227.858 37.38C227.311 37.38 226.824 37.5 226.398 37.74C225.984 37.98 225.658 38.3333 225.418 38.8C225.191 39.2667 225.078 39.86 225.078 40.58V46H222.578V40.2C222.578 39.2533 222.371 38.5467 221.958 38.08C221.544 37.6133 220.951 37.38 220.178 37.38C219.631 37.38 219.144 37.5 218.718 37.74C218.304 37.98 217.978 38.3333 217.738 38.8C217.511 39.2667 217.398 39.86 217.398 40.58V46H214.898V35.32H217.278V38.16L216.858 37.32C217.218 36.6267 217.738 36.1 218.418 35.74C219.111 35.38 219.898 35.2 220.778 35.2C221.778 35.2 222.644 35.4467 223.378 35.94C224.124 36.4333 224.618 37.18 224.858 38.18L223.878 37.84C224.224 37.04 224.798 36.4 225.598 35.92C226.398 35.44 227.324 35.2 228.378 35.2ZM235.953 46V35.32H238.453V46H235.953ZM237.213 33.56C236.746 33.56 236.359 33.4133 236.053 33.12C235.759 32.8267 235.613 32.4733 235.613 32.06C235.613 31.6333 235.759 31.28 236.053 31C236.359 30.7067 236.746 30.56 237.213 30.56C237.679 30.56 238.059 30.7 238.353 30.98C238.659 31.2467 238.813 31.5867 238.813 32C238.813 32.44 238.666 32.8133 238.373 33.12C238.079 33.4133 237.693 33.56 237.213 33.56ZM248.314 46V43.84L248.174 43.38V39.6C248.174 38.8667 247.954 38.3 247.514 37.9C247.074 37.4867 246.407 37.28 245.514 37.28C244.914 37.28 244.32 37.3733 243.734 37.56C243.16 37.7467 242.674 38.0067 242.274 38.34L241.294 36.52C241.867 36.08 242.547 35.7533 243.334 35.54C244.134 35.3133 244.96 35.2 245.814 35.2C247.36 35.2 248.554 35.5733 249.394 36.32C250.247 37.0533 250.674 38.1933 250.674 39.74V46H248.314ZM244.954 46.14C244.154 46.14 243.454 46.0067 242.854 45.74C242.254 45.46 241.787 45.08 241.454 44.6C241.134 44.1067 240.974 43.5533 240.974 42.94C240.974 42.34 241.114 41.8 241.394 41.32C241.687 40.84 242.16 40.46 242.814 40.18C243.467 39.9 244.334 39.76 245.414 39.76H248.514V41.42H245.594C244.74 41.42 244.167 41.56 243.874 41.84C243.58 42.1067 243.434 42.44 243.434 42.84C243.434 43.2933 243.614 43.6533 243.974 43.92C244.334 44.1867 244.834 44.32 245.474 44.32C246.087 44.32 246.634 44.18 247.114 43.9C247.607 43.62 247.96 43.2067 248.174 42.66L248.594 44.16C248.354 44.7867 247.92 45.2733 247.294 45.62C246.68 45.9667 245.9 46.14 244.954 46.14ZM153.94 66.14C153.047 66.14 152.187 66.0267 151.36 65.8C150.547 65.56 149.9 65.2733 149.42 64.94L150.38 63.04C150.86 63.3467 151.433 63.6 152.1 63.8C152.767 64 153.433 64.1 154.1 64.1C154.887 64.1 155.453 63.9933 155.8 63.78C156.16 63.5667 156.34 63.28 156.34 62.92C156.34 62.6267 156.22 62.4067 155.98 62.26C155.74 62.1 155.427 61.98 155.04 61.9C154.653 61.82 154.22 61.7467 153.74 61.68C153.273 61.6133 152.8 61.5267 152.32 61.42C151.853 61.3 151.427 61.1333 151.04 60.92C150.653 60.6933 150.34 60.3933 150.1 60.02C149.86 59.6467 149.74 59.1533 149.74 58.54C149.74 57.86 149.933 57.2733 150.32 56.78C150.707 56.2733 151.247 55.8867 151.94 55.62C152.647 55.34 153.48 55.2 154.44 55.2C155.16 55.2 155.887 55.28 156.62 55.44C157.353 55.6 157.96 55.8267 158.44 56.12L157.48 58.02C156.973 57.7133 156.46 57.5067 155.94 57.4C155.433 57.28 154.927 57.22 154.42 57.22C153.66 57.22 153.093 57.3333 152.72 57.56C152.36 57.7867 152.18 58.0733 152.18 58.42C152.18 58.74 152.3 58.98 152.54 59.14C152.78 59.3 153.093 59.4267 153.48 59.52C153.867 59.6133 154.293 59.6933 154.76 59.76C155.24 59.8133 155.713 59.9 156.18 60.02C156.647 60.14 157.073 60.3067 157.46 60.52C157.86 60.72 158.18 61.0067 158.42 61.38C158.66 61.7533 158.78 62.24 158.78 62.84C158.78 63.5067 158.58 64.0867 158.18 64.58C157.793 65.0733 157.24 65.46 156.52 65.74C155.8 66.0067 154.94 66.14 153.94 66.14ZM165.453 66.14C164.546 66.14 163.746 65.9733 163.053 65.64C162.36 65.2933 161.82 64.7733 161.433 64.08C161.046 63.3733 160.853 62.4867 160.853 61.42V55.32H163.353V61.08C163.353 62.04 163.566 62.76 163.993 63.24C164.433 63.7067 165.053 63.94 165.853 63.94C166.44 63.94 166.946 63.82 167.373 63.58C167.813 63.34 168.153 62.98 168.393 62.5C168.646 62.02 168.773 61.4267 168.773 60.72V55.32H171.273V66H168.893V63.12L169.313 64C168.953 64.6933 168.426 65.2267 167.733 65.6C167.04 65.96 166.28 66.14 165.453 66.14ZM177.846 66.14C176.953 66.14 176.093 66.0267 175.266 65.8C174.453 65.56 173.806 65.2733 173.326 64.94L174.286 63.04C174.766 63.3467 175.34 63.6 176.006 63.8C176.673 64 177.34 64.1 178.006 64.1C178.793 64.1 179.36 63.9933 179.706 63.78C180.066 63.5667 180.246 63.28 180.246 62.92C180.246 62.6267 180.126 62.4067 179.886 62.26C179.646 62.1 179.333 61.98 178.946 61.9C178.56 61.82 178.126 61.7467 177.646 61.68C177.18 61.6133 176.706 61.5267 176.226 61.42C175.76 61.3 175.333 61.1333 174.946 60.92C174.56 60.6933 174.246 60.3933 174.006 60.02C173.766 59.6467 173.646 59.1533 173.646 58.54C173.646 57.86 173.84 57.2733 174.226 56.78C174.613 56.2733 175.153 55.8867 175.846 55.62C176.553 55.34 177.386 55.2 178.346 55.2C179.066 55.2 179.793 55.28 180.526 55.44C181.26 55.6 181.866 55.8267 182.346 56.12L181.386 58.02C180.88 57.7133 180.366 57.5067 179.846 57.4C179.34 57.28 178.833 57.22 178.326 57.22C177.566 57.22 177 57.3333 176.626 57.56C176.266 57.7867 176.086 58.0733 176.086 58.42C176.086 58.74 176.206 58.98 176.446 59.14C176.686 59.3 177 59.4267 177.386 59.52C177.773 59.6133 178.2 59.6933 178.666 59.76C179.146 59.8133 179.62 59.9 180.086 60.02C180.553 60.14 180.98 60.3067 181.366 60.52C181.766 60.72 182.086 61.0067 182.326 61.38C182.566 61.7533 182.686 62.24 182.686 62.84C182.686 63.5067 182.486 64.0867 182.086 64.58C181.7 65.0733 181.146 65.46 180.426 65.74C179.706 66.0067 178.846 66.14 177.846 66.14ZM188.859 66.14C187.686 66.14 186.779 65.84 186.139 65.24C185.499 64.6267 185.179 63.7267 185.179 62.54V52.96H187.679V62.48C187.679 62.9867 187.806 63.38 188.059 63.66C188.326 63.94 188.693 64.08 189.159 64.08C189.719 64.08 190.186 63.9333 190.559 63.64L191.259 65.42C190.966 65.66 190.606 65.84 190.179 65.96C189.753 66.08 189.313 66.14 188.859 66.14ZM183.419 57.4V55.4H190.539V57.4H183.419ZM197.984 66.14C196.798 66.14 195.758 65.9067 194.864 65.44C193.984 64.96 193.298 64.3067 192.804 63.48C192.324 62.6533 192.084 61.7133 192.084 60.66C192.084 59.5933 192.318 58.6533 192.784 57.84C193.264 57.0133 193.918 56.3667 194.744 55.9C195.584 55.4333 196.538 55.2 197.604 55.2C198.644 55.2 199.571 55.4267 200.384 55.88C201.198 56.3333 201.838 56.9733 202.304 57.8C202.771 58.6267 203.004 59.6 203.004 60.72C203.004 60.8267 202.998 60.9467 202.984 61.08C202.984 61.2133 202.978 61.34 202.964 61.46H194.064V59.8H201.644L200.664 60.32C200.678 59.7067 200.551 59.1667 200.284 58.7C200.018 58.2333 199.651 57.8667 199.184 57.6C198.731 57.3333 198.204 57.2 197.604 57.2C196.991 57.2 196.451 57.3333 195.984 57.6C195.531 57.8667 195.171 58.24 194.904 58.72C194.651 59.1867 194.524 59.74 194.524 60.38V60.78C194.524 61.42 194.671 61.9867 194.964 62.48C195.258 62.9733 195.671 63.3533 196.204 63.62C196.738 63.8867 197.351 64.02 198.044 64.02C198.644 64.02 199.184 63.9267 199.664 63.74C200.144 63.5533 200.571 63.26 200.944 62.86L202.284 64.4C201.804 64.96 201.198 65.3933 200.464 65.7C199.744 65.9933 198.918 66.14 197.984 66.14ZM211.466 55.2C212.319 55.2 213.079 55.3667 213.746 55.7C214.426 56.0333 214.959 56.5467 215.346 57.24C215.732 57.92 215.926 58.8 215.926 59.88V66H213.426V60.2C213.426 59.2533 213.199 58.5467 212.746 58.08C212.306 57.6133 211.686 57.38 210.886 57.38C210.299 57.38 209.779 57.5 209.326 57.74C208.872 57.98 208.519 58.34 208.266 58.82C208.026 59.2867 207.906 59.88 207.906 60.6V66H205.406V55.32H207.786V58.2L207.366 57.32C207.739 56.64 208.279 56.12 208.986 55.76C209.706 55.3867 210.532 55.2 211.466 55.2ZM223.117 66.14C221.944 66.14 221.037 65.84 220.397 65.24C219.757 64.6267 219.437 63.7267 219.437 62.54V52.96H221.937V62.48C221.937 62.9867 222.064 63.38 222.317 63.66C222.584 63.94 222.95 64.08 223.417 64.08C223.977 64.08 224.444 63.9333 224.817 63.64L225.517 65.42C225.224 65.66 224.864 65.84 224.437 65.96C224.01 66.08 223.57 66.14 223.117 66.14ZM217.677 57.4V55.4H224.797V57.4H217.677ZM234.154 66V63.84L234.014 63.38V59.6C234.014 58.8667 233.794 58.3 233.354 57.9C232.914 57.4867 232.247 57.28 231.354 57.28C230.754 57.28 230.16 57.3733 229.574 57.56C229 57.7467 228.514 58.0067 228.114 58.34L227.134 56.52C227.707 56.08 228.387 55.7533 229.174 55.54C229.974 55.3133 230.8 55.2 231.654 55.2C233.2 55.2 234.394 55.5733 235.234 56.32C236.087 57.0533 236.514 58.1933 236.514 59.74V66H234.154ZM230.794 66.14C229.994 66.14 229.294 66.0067 228.694 65.74C228.094 65.46 227.627 65.08 227.294 64.6C226.974 64.1067 226.814 63.5533 226.814 62.94C226.814 62.34 226.954 61.8 227.234 61.32C227.527 60.84 228 60.46 228.654 60.18C229.307 59.9 230.174 59.76 231.254 59.76H234.354V61.42H231.434C230.58 61.42 230.007 61.56 229.714 61.84C229.42 62.1067 229.274 62.44 229.274 62.84C229.274 63.2933 229.454 63.6533 229.814 63.92C230.174 64.1867 230.674 64.32 231.314 64.32C231.927 64.32 232.474 64.18 232.954 63.9C233.447 63.62 233.8 63.2067 234.014 62.66L234.434 64.16C234.194 64.7867 233.76 65.2733 233.134 65.62C232.52 65.9667 231.74 66.14 230.794 66.14ZM230.194 53.86L232.894 51.12H235.834L232.354 53.86H230.194ZM242.367 66L237.787 55.32H240.387L244.327 64.74H243.047L247.127 55.32H249.527L244.947 66H242.367ZM255.816 66.14C254.63 66.14 253.59 65.9067 252.696 65.44C251.816 64.96 251.13 64.3067 250.636 63.48C250.156 62.6533 249.916 61.7133 249.916 60.66C249.916 59.5933 250.15 58.6533 250.616 57.84C251.096 57.0133 251.75 56.3667 252.576 55.9C253.416 55.4333 254.37 55.2 255.436 55.2C256.476 55.2 257.403 55.4267 258.216 55.88C259.03 56.3333 259.67 56.9733 260.136 57.8C260.603 58.6267 260.836 59.6 260.836 60.72C260.836 60.8267 260.83 60.9467 260.816 61.08C260.816 61.2133 260.81 61.34 260.796 61.46H251.896V59.8H259.476L258.496 60.32C258.51 59.7067 258.383 59.1667 258.116 58.7C257.85 58.2333 257.483 57.8667 257.016 57.6C256.563 57.3333 256.036 57.2 255.436 57.2C254.823 57.2 254.283 57.3333 253.816 57.6C253.363 57.8667 253.003 58.24 252.736 58.72C252.483 59.1867 252.356 59.74 252.356 60.38V60.78C252.356 61.42 252.503 61.9867 252.796 62.48C253.09 62.9733 253.503 63.3533 254.036 63.62C254.57 63.8867 255.183 64.02 255.876 64.02C256.476 64.02 257.016 63.9267 257.496 63.74C257.976 63.5533 258.403 63.26 258.776 62.86L260.116 64.4C259.636 64.96 259.03 65.3933 258.296 65.7C257.576 65.9933 256.75 66.14 255.816 66.14ZM263.238 66V51.16H265.738V66H263.238Z" fill="#26292E"/>
<path d="M121.14 0.846985V95.0964" stroke="#FE8323" stroke-width="0.937805"/>
<defs>
<linearGradient id="paint0_linear_247_9" x1="45.8711" y1="49.6342" x2="45.8711" y2="88.6585" gradientUnits="userSpaceOnUse">
<stop stop-color="#FE8323"/>
<stop offset="0.5" stop-color="#F4A50D"/>
<stop offset="1" stop-color="#984E15"/>
</linearGradient>
<linearGradient id="paint1_linear_247_9" x1="39.0352" y1="13.5366" x2="39.0352" y2="51.5854" gradientUnits="userSpaceOnUse">
<stop stop-color="#FE8323"/>
<stop offset="0.5" stop-color="#F4A50D"/>
<stop offset="1" stop-color="#984E15"/>
</linearGradient>
<linearGradient id="paint2_linear_247_9" x1="65.8906" y1="13.5366" x2="65.8906" y2="30.122" gradientUnits="userSpaceOnUse">
<stop stop-color="#FE8323"/>
<stop offset="0.5" stop-color="#F4A50D"/>
<stop offset="1" stop-color="#984E15"/>
</linearGradient>
<linearGradient id="paint3_linear_247_9" x1="18.5273" y1="71.0975" x2="18.5273" y2="87.6829" gradientUnits="userSpaceOnUse">
<stop stop-color="#FE8323"/>
<stop offset="0.5" stop-color="#F4A50D"/>
<stop offset="1" stop-color="#984E15"/>
</linearGradient>
<linearGradient id="paint4_linear_247_9" x1="42.9414" y1="34.0244" x2="42.9414" y2="67.1951" gradientUnits="userSpaceOnUse">
<stop stop-color="#FE8323"/>
<stop offset="0.5" stop-color="#F4A50D"/>
<stop offset="1" stop-color="#984E15"/>
</linearGradient>
<linearGradient id="paint5_linear_247_9" x1="43.9297" y1="27.1951" x2="43.9297" y2="74.0244" gradientUnits="userSpaceOnUse">
<stop stop-color="#FE8323"/>
<stop offset="0.5" stop-color="#F4A50D"/>
<stop offset="1" stop-color="#984E15"/>
</linearGradient>
</defs>
</svg>
