<svg width="356" height="112" viewBox="0 0 356 112" fill="none" xmlns="http://www.w3.org/2000/svg">
<g filter="url(#filter0_b_247_22)">
<rect x="-0.000244141" y="-0.000366211" width="356" height="112" rx="9.37805" fill="white" fill-opacity="0.5"/>
</g>
<path d="M40.9636 48.5899L40.9639 48.5896L55.3198 34.2868L55.32 34.2867L66.6033 23.0469L77.8868 34.2868L92.2383 48.5829L100.664 56.9765L98.3335 59.2985L89.8916 50.8912L89.8912 50.8908L75.5424 36.5951L75.5423 36.5949L68.3676 29.4481L66.6033 27.6907L64.839 29.4481L57.6643 36.5949L57.6643 36.595L43.3059 50.8979L34.873 59.2983L32.5424 56.9767L40.9636 48.5899Z" stroke="url(#paint0_linear_247_22)" stroke-width="5"/>
<path d="M69.3575 65.3157H66.8575V67.8157V82.7256H44.0909V64.2929L66.6058 41.863L89.1157 64.286V82.7256H81.9676V67.8157V65.3157H79.4676H69.3575Z" stroke="url(#paint1_linear_247_22)" stroke-width="5"/>
<path d="M175.02 54.9996L168.9 40.9996H171.72L177.18 53.6596H175.56L181.08 40.9996H183.68L177.58 54.9996H175.02ZM190.696 54.9996V52.8396L190.556 52.3796V48.5996C190.556 47.8663 190.336 47.2996 189.896 46.8996C189.456 46.4863 188.79 46.2796 187.896 46.2796C187.296 46.2796 186.703 46.373 186.116 46.5596C185.543 46.7463 185.056 47.0063 184.656 47.3396L183.676 45.5196C184.25 45.0796 184.93 44.753 185.716 44.5396C186.516 44.313 187.343 44.1996 188.196 44.1996C189.743 44.1996 190.936 44.573 191.776 45.3196C192.63 46.053 193.056 47.193 193.056 48.7396V54.9996H190.696ZM187.336 55.1396C186.536 55.1396 185.836 55.0063 185.236 54.7396C184.636 54.4596 184.17 54.0796 183.836 53.5996C183.516 53.1063 183.356 52.553 183.356 51.9396C183.356 51.3396 183.496 50.7996 183.776 50.3196C184.07 49.8396 184.543 49.4596 185.196 49.1796C185.85 48.8996 186.716 48.7596 187.796 48.7596H190.896V50.4196H187.976C187.123 50.4196 186.55 50.5596 186.256 50.8396C185.963 51.1063 185.816 51.4396 185.816 51.8396C185.816 52.293 185.996 52.653 186.356 52.9196C186.716 53.1863 187.216 53.3196 187.856 53.3196C188.47 53.3196 189.016 53.1796 189.496 52.8996C189.99 52.6196 190.343 52.2063 190.556 51.6596L190.976 53.1596C190.736 53.7863 190.303 54.273 189.676 54.6196C189.063 54.9663 188.283 55.1396 187.336 55.1396ZM196.265 54.9996V40.1596H198.765V54.9996H196.265ZM206.846 55.1396C205.753 55.1396 204.779 54.9063 203.926 54.4396C203.073 53.9596 202.399 53.3063 201.906 52.4796C201.413 51.653 201.166 50.713 201.166 49.6596C201.166 48.593 201.413 47.653 201.906 46.8396C202.399 46.013 203.073 45.3663 203.926 44.8996C204.779 44.433 205.753 44.1996 206.846 44.1996C207.953 44.1996 208.933 44.433 209.786 44.8996C210.653 45.3663 211.326 46.0063 211.806 46.8196C212.299 47.633 212.546 48.5796 212.546 49.6596C212.546 50.713 212.299 51.653 211.806 52.4796C211.326 53.3063 210.653 53.9596 209.786 54.4396C208.933 54.9063 207.953 55.1396 206.846 55.1396ZM206.846 52.9996C207.459 52.9996 208.006 52.8663 208.486 52.5996C208.966 52.333 209.339 51.9463 209.606 51.4396C209.886 50.933 210.026 50.3396 210.026 49.6596C210.026 48.9663 209.886 48.373 209.606 47.8796C209.339 47.373 208.966 46.9863 208.486 46.7196C208.006 46.453 207.466 46.3196 206.866 46.3196C206.253 46.3196 205.706 46.453 205.226 46.7196C204.759 46.9863 204.386 47.373 204.106 47.8796C203.826 48.373 203.686 48.9663 203.686 49.6596C203.686 50.3396 203.826 50.933 204.106 51.4396C204.386 51.9463 204.759 52.333 205.226 52.5996C205.706 52.8663 206.246 52.9996 206.846 52.9996ZM214.937 54.9996V44.3196H217.317V47.2596L217.037 46.3996C217.357 45.6796 217.857 45.133 218.537 44.7596C219.23 44.3863 220.09 44.1996 221.117 44.1996V46.5796C221.01 46.553 220.91 46.5396 220.817 46.5396C220.723 46.5263 220.63 46.5196 220.537 46.5196C219.59 46.5196 218.837 46.7996 218.277 47.3596C217.717 47.9063 217.437 48.7263 217.437 49.8196V54.9996H214.937ZM223.237 54.9996V44.3196H225.737V54.9996H223.237ZM224.497 42.5596C224.031 42.5596 223.644 42.413 223.337 42.1196C223.044 41.8263 222.897 41.473 222.897 41.0596C222.897 40.633 223.044 40.2796 223.337 39.9996C223.644 39.7063 224.031 39.5596 224.497 39.5596C224.964 39.5596 225.344 39.6996 225.637 39.9796C225.944 40.2463 226.097 40.5863 226.097 40.9996C226.097 41.4396 225.951 41.813 225.657 42.1196C225.364 42.413 224.977 42.5596 224.497 42.5596ZM228.139 54.9996V53.4196L234.719 45.4596L235.179 46.3196H228.259V44.3196H237.179V45.8996L230.599 53.8596L230.099 52.9996H237.359V54.9996H228.139ZM246.243 54.9996V52.8396L246.103 52.3796V48.5996C246.103 47.8663 245.883 47.2996 245.443 46.8996C245.003 46.4863 244.337 46.2796 243.443 46.2796C242.843 46.2796 242.25 46.373 241.663 46.5596C241.09 46.7463 240.603 47.0063 240.203 47.3396L239.223 45.5196C239.797 45.0796 240.477 44.753 241.263 44.5396C242.063 44.313 242.89 44.1996 243.743 44.1996C245.29 44.1996 246.483 44.573 247.323 45.3196C248.177 46.053 248.603 47.193 248.603 48.7396V54.9996H246.243ZM242.883 55.1396C242.083 55.1396 241.383 55.0063 240.783 54.7396C240.183 54.4596 239.717 54.0796 239.383 53.5996C239.063 53.1063 238.903 52.553 238.903 51.9396C238.903 51.3396 239.043 50.7996 239.323 50.3196C239.617 49.8396 240.09 49.4596 240.743 49.1796C241.397 48.8996 242.263 48.7596 243.343 48.7596H246.443V50.4196H243.523C242.67 50.4196 242.097 50.5596 241.803 50.8396C241.51 51.1063 241.363 51.4396 241.363 51.8396C241.363 52.293 241.543 52.653 241.903 52.9196C242.263 53.1863 242.763 53.3196 243.403 53.3196C244.017 53.3196 244.563 53.1796 245.043 52.8996C245.537 52.6196 245.89 52.2063 246.103 51.6596L246.523 53.1596C246.283 53.7863 245.85 54.273 245.223 54.6196C244.61 54.9663 243.83 55.1396 242.883 55.1396ZM256.731 55.1396C255.611 55.1396 254.611 54.9063 253.731 54.4396C252.864 53.9596 252.184 53.3063 251.691 52.4796C251.198 51.653 250.951 50.713 250.951 49.6596C250.951 48.593 251.198 47.653 251.691 46.8396C252.184 46.013 252.864 45.3663 253.731 44.8996C254.611 44.433 255.611 44.1996 256.731 44.1996C257.771 44.1996 258.684 44.413 259.471 44.8396C260.271 45.253 260.878 45.8663 261.291 46.6796L259.371 47.7996C259.051 47.293 258.658 46.9196 258.191 46.6796C257.738 46.4396 257.244 46.3196 256.711 46.3196C256.098 46.3196 255.544 46.453 255.051 46.7196C254.558 46.9863 254.171 47.373 253.891 47.8796C253.611 48.373 253.471 48.9663 253.471 49.6596C253.471 50.353 253.611 50.953 253.891 51.4596C254.171 51.953 254.558 52.333 255.051 52.5996C255.544 52.8663 256.098 52.9996 256.711 52.9996C257.244 52.9996 257.738 52.8796 258.191 52.6396C258.658 52.3996 259.051 52.0263 259.371 51.5196L261.291 52.6396C260.878 53.4396 260.271 54.0596 259.471 54.4996C258.684 54.9263 257.771 55.1396 256.731 55.1396ZM255.691 59.5596C255.331 59.5596 254.998 59.5196 254.691 59.4396C254.384 59.373 254.104 59.273 253.851 59.1396L254.311 57.9596C254.524 58.0663 254.738 58.1463 254.951 58.1996C255.178 58.253 255.418 58.2796 255.671 58.2796C256.058 58.2796 256.331 58.213 256.491 58.0796C256.651 57.9463 256.731 57.773 256.731 57.5596C256.731 57.3596 256.644 57.1996 256.471 57.0796C256.311 56.9596 256.044 56.8996 255.671 56.8996H255.051L255.591 54.8596H256.951L256.671 55.9796C257.258 56.0463 257.691 56.233 257.971 56.5396C258.264 56.8596 258.411 57.233 258.411 57.6596C258.411 58.2463 258.164 58.7063 257.671 59.0396C257.178 59.3863 256.518 59.5596 255.691 59.5596ZM270.032 54.9996V52.8396L269.892 52.3796V48.5996C269.892 47.8663 269.672 47.2996 269.232 46.8996C268.792 46.4863 268.126 46.2796 267.232 46.2796C266.632 46.2796 266.039 46.373 265.452 46.5596C264.879 46.7463 264.392 47.0063 263.992 47.3396L263.012 45.5196C263.586 45.0796 264.266 44.753 265.052 44.5396C265.852 44.313 266.679 44.1996 267.532 44.1996C269.079 44.1996 270.272 44.573 271.112 45.3196C271.966 46.053 272.392 47.193 272.392 48.7396V54.9996H270.032ZM266.672 55.1396C265.872 55.1396 265.172 55.0063 264.572 54.7396C263.972 54.4596 263.506 54.0796 263.172 53.5996C262.852 53.1063 262.692 52.553 262.692 51.9396C262.692 51.3396 262.832 50.7996 263.112 50.3196C263.406 49.8396 263.879 49.4596 264.532 49.1796C265.186 48.8996 266.052 48.7596 267.132 48.7596H270.232V50.4196H267.312C266.459 50.4196 265.886 50.5596 265.592 50.8396C265.299 51.1063 265.152 51.4396 265.152 51.8396C265.152 52.293 265.332 52.653 265.692 52.9196C266.052 53.1863 266.552 53.3196 267.192 53.3196C267.806 53.3196 268.352 53.1796 268.832 52.8996C269.326 52.6196 269.679 52.2063 269.892 51.6596L270.312 53.1596C270.072 53.7863 269.639 54.273 269.012 54.6196C268.399 54.9663 267.619 55.1396 266.672 55.1396ZM269.192 42.8596C268.872 42.8596 268.579 42.7996 268.312 42.6796C268.059 42.5463 267.826 42.393 267.612 42.2196C267.412 42.033 267.219 41.873 267.032 41.7396C266.846 41.6063 266.659 41.5396 266.472 41.5396C266.192 41.5396 265.966 41.6463 265.792 41.8596C265.619 42.073 265.519 42.3663 265.492 42.7396H264.152C264.179 41.913 264.379 41.2596 264.752 40.7796C265.139 40.2996 265.659 40.0596 266.312 40.0596C266.632 40.0596 266.926 40.1263 267.192 40.2596C267.459 40.393 267.692 40.5463 267.892 40.7196C268.106 40.893 268.306 41.0463 268.492 41.1796C268.679 41.313 268.859 41.3796 269.032 41.3796C269.312 41.3796 269.539 41.2796 269.712 41.0796C269.899 40.8796 269.999 40.5996 270.012 40.2396H271.352C271.339 41.013 271.139 41.6463 270.752 42.1396C270.366 42.6196 269.846 42.8596 269.192 42.8596ZM280.42 55.1396C279.327 55.1396 278.354 54.9063 277.5 54.4396C276.647 53.9596 275.974 53.3063 275.48 52.4796C274.987 51.653 274.74 50.713 274.74 49.6596C274.74 48.593 274.987 47.653 275.48 46.8396C275.974 46.013 276.647 45.3663 277.5 44.8996C278.354 44.433 279.327 44.1996 280.42 44.1996C281.527 44.1996 282.507 44.433 283.36 44.8996C284.227 45.3663 284.9 46.0063 285.38 46.8196C285.874 47.633 286.12 48.5796 286.12 49.6596C286.12 50.713 285.874 51.653 285.38 52.4796C284.9 53.3063 284.227 53.9596 283.36 54.4396C282.507 54.9063 281.527 55.1396 280.42 55.1396ZM280.42 52.9996C281.034 52.9996 281.58 52.8663 282.06 52.5996C282.54 52.333 282.914 51.9463 283.18 51.4396C283.46 50.933 283.6 50.3396 283.6 49.6596C283.6 48.9663 283.46 48.373 283.18 47.8796C282.914 47.373 282.54 46.9863 282.06 46.7196C281.58 46.453 281.04 46.3196 280.44 46.3196C279.827 46.3196 279.28 46.453 278.8 46.7196C278.334 46.9863 277.96 47.373 277.68 47.8796C277.4 48.373 277.26 48.9663 277.26 49.6596C277.26 50.3396 277.4 50.933 277.68 51.4396C277.96 51.9463 278.334 52.333 278.8 52.5996C279.28 52.8663 279.82 52.9996 280.42 52.9996ZM175.16 75.1396C174.133 75.1396 173.206 74.913 172.38 74.4596C171.566 73.993 170.926 73.353 170.46 72.5396C169.993 71.7263 169.76 70.7663 169.76 69.6596C169.76 68.553 169.993 67.593 170.46 66.7796C170.926 65.9663 171.566 65.333 172.38 64.8796C173.206 64.4263 174.133 64.1996 175.16 64.1996C176.053 64.1996 176.853 64.3996 177.56 64.7996C178.266 65.1863 178.826 65.7796 179.24 66.5796C179.653 67.3796 179.86 68.4063 179.86 69.6596C179.86 70.8996 179.66 71.9263 179.26 72.7396C178.86 73.5396 178.306 74.1396 177.6 74.5396C176.893 74.9396 176.08 75.1396 175.16 75.1396ZM175.46 72.9996C176.06 72.9996 176.593 72.8663 177.06 72.5996C177.54 72.333 177.92 71.9463 178.2 71.4396C178.493 70.933 178.64 70.3396 178.64 69.6596C178.64 68.9663 178.493 68.373 178.2 67.8796C177.92 67.373 177.54 66.9863 177.06 66.7196C176.593 66.453 176.06 66.3196 175.46 66.3196C174.86 66.3196 174.32 66.453 173.84 66.7196C173.373 66.9863 172.993 67.373 172.7 67.8796C172.42 68.373 172.28 68.9663 172.28 69.6596C172.28 70.3396 172.42 70.933 172.7 71.4396C172.993 71.9463 173.373 72.333 173.84 72.5996C174.32 72.8663 174.86 72.9996 175.46 72.9996ZM178.7 74.9996V72.4796L178.8 69.6396L178.6 66.7996V60.1596H181.08V74.9996H178.7ZM189.17 75.1396C188.077 75.1396 187.104 74.9063 186.25 74.4396C185.397 73.9596 184.724 73.3063 184.23 72.4796C183.737 71.653 183.49 70.713 183.49 69.6596C183.49 68.593 183.737 67.653 184.23 66.8396C184.724 66.013 185.397 65.3663 186.25 64.8996C187.104 64.433 188.077 64.1996 189.17 64.1996C190.277 64.1996 191.257 64.433 192.11 64.8996C192.977 65.3663 193.65 66.0063 194.13 66.8196C194.624 67.633 194.87 68.5796 194.87 69.6596C194.87 70.713 194.624 71.653 194.13 72.4796C193.65 73.3063 192.977 73.9596 192.11 74.4396C191.257 74.9063 190.277 75.1396 189.17 75.1396ZM189.17 72.9996C189.784 72.9996 190.33 72.8663 190.81 72.5996C191.29 72.333 191.664 71.9463 191.93 71.4396C192.21 70.933 192.35 70.3396 192.35 69.6596C192.35 68.9663 192.21 68.373 191.93 67.8796C191.664 67.373 191.29 66.9863 190.81 66.7196C190.33 66.453 189.79 66.3196 189.19 66.3196C188.577 66.3196 188.03 66.453 187.55 66.7196C187.084 66.9863 186.71 67.373 186.43 67.8796C186.15 68.373 186.01 68.9663 186.01 69.6596C186.01 70.3396 186.15 70.933 186.43 71.4396C186.71 71.9463 187.084 72.333 187.55 72.5996C188.03 72.8663 188.57 72.9996 189.17 72.9996ZM202.788 74.9996V64.3196H205.288V74.9996H202.788ZM204.048 62.5596C203.582 62.5596 203.195 62.413 202.888 62.1196C202.595 61.8263 202.448 61.473 202.448 61.0596C202.448 60.633 202.595 60.2796 202.888 59.9996C203.195 59.7063 203.582 59.5596 204.048 59.5596C204.515 59.5596 204.895 59.6996 205.188 59.9796C205.495 60.2463 205.648 60.5863 205.648 60.9996C205.648 61.4396 205.502 61.813 205.208 62.1196C204.915 62.413 204.528 62.5596 204.048 62.5596ZM222.049 64.1996C222.903 64.1996 223.656 64.3663 224.309 64.6996C224.976 65.033 225.496 65.5463 225.869 66.2396C226.243 66.9196 226.429 67.7996 226.429 68.8796V74.9996H223.929V69.1996C223.929 68.253 223.723 67.5463 223.309 67.0796C222.896 66.613 222.303 66.3796 221.529 66.3796C220.983 66.3796 220.496 66.4996 220.069 66.7396C219.656 66.9796 219.329 67.333 219.089 67.7996C218.863 68.2663 218.749 68.8596 218.749 69.5796V74.9996H216.249V69.1996C216.249 68.253 216.043 67.5463 215.629 67.0796C215.216 66.613 214.623 66.3796 213.849 66.3796C213.303 66.3796 212.816 66.4996 212.389 66.7396C211.976 66.9796 211.649 67.333 211.409 67.7996C211.183 68.2663 211.069 68.8596 211.069 69.5796V74.9996H208.569V64.3196H210.949V67.1596L210.529 66.3196C210.889 65.6263 211.409 65.0996 212.089 64.7396C212.783 64.3796 213.569 64.1996 214.449 64.1996C215.449 64.1996 216.316 64.4463 217.049 64.9396C217.796 65.433 218.289 66.1796 218.529 67.1796L217.549 66.8396C217.896 66.0396 218.469 65.3996 219.269 64.9196C220.069 64.4396 220.996 64.1996 222.049 64.1996ZM234.444 75.1396C233.35 75.1396 232.377 74.9063 231.524 74.4396C230.67 73.9596 229.997 73.3063 229.504 72.4796C229.01 71.653 228.764 70.713 228.764 69.6596C228.764 68.593 229.01 67.653 229.504 66.8396C229.997 66.013 230.67 65.3663 231.524 64.8996C232.377 64.433 233.35 64.1996 234.444 64.1996C235.55 64.1996 236.53 64.433 237.384 64.8996C238.25 65.3663 238.924 66.0063 239.404 66.8196C239.897 67.633 240.144 68.5796 240.144 69.6596C240.144 70.713 239.897 71.653 239.404 72.4796C238.924 73.3063 238.25 73.9596 237.384 74.4396C236.53 74.9063 235.55 75.1396 234.444 75.1396ZM234.444 72.9996C235.057 72.9996 235.604 72.8663 236.084 72.5996C236.564 72.333 236.937 71.9463 237.204 71.4396C237.484 70.933 237.624 70.3396 237.624 69.6596C237.624 68.9663 237.484 68.373 237.204 67.8796C236.937 67.373 236.564 66.9863 236.084 66.7196C235.604 66.453 235.064 66.3196 234.464 66.3196C233.85 66.3196 233.304 66.453 232.824 66.7196C232.357 66.9863 231.984 67.373 231.704 67.8796C231.424 68.373 231.284 68.9663 231.284 69.6596C231.284 70.3396 231.424 70.933 231.704 71.4396C231.984 71.9463 232.357 72.333 232.824 72.5996C233.304 72.8663 233.844 72.9996 234.444 72.9996ZM232.744 62.8596L235.444 60.1196H238.384L234.904 62.8596H232.744ZM245.081 74.9996L240.501 64.3196H243.101L247.041 73.7396H245.761L249.841 64.3196H252.241L247.661 74.9996H245.081ZM258.531 75.1396C257.344 75.1396 256.304 74.9063 255.411 74.4396C254.531 73.9596 253.844 73.3063 253.351 72.4796C252.871 71.653 252.631 70.713 252.631 69.6596C252.631 68.593 252.864 67.653 253.331 66.8396C253.811 66.013 254.464 65.3663 255.291 64.8996C256.131 64.433 257.084 64.1996 258.151 64.1996C259.191 64.1996 260.118 64.4263 260.931 64.8796C261.744 65.333 262.384 65.973 262.851 66.7996C263.318 67.6263 263.551 68.5996 263.551 69.7196C263.551 69.8263 263.544 69.9463 263.531 70.0796C263.531 70.213 263.524 70.3396 263.511 70.4596H254.611V68.7996H262.191L261.211 69.3196C261.224 68.7063 261.098 68.1663 260.831 67.6996C260.564 67.233 260.198 66.8663 259.731 66.5996C259.278 66.333 258.751 66.1996 258.151 66.1996C257.538 66.1996 256.998 66.333 256.531 66.5996C256.078 66.8663 255.718 67.2396 255.451 67.7196C255.198 68.1863 255.071 68.7396 255.071 69.3796V69.7796C255.071 70.4196 255.218 70.9863 255.511 71.4796C255.804 71.973 256.218 72.353 256.751 72.6196C257.284 72.8863 257.898 73.0196 258.591 73.0196C259.191 73.0196 259.731 72.9263 260.211 72.7396C260.691 72.553 261.118 72.2596 261.491 71.8596L262.831 73.3996C262.351 73.9596 261.744 74.393 261.011 74.6996C260.291 74.993 259.464 75.1396 258.531 75.1396ZM265.952 74.9996V60.1596H268.452V74.9996H265.952Z" fill="#26292E"/>
<path d="M141.139 9.84662V104.096" stroke="#FE8323" stroke-width="0.937805"/>
<defs>
<filter id="filter0_b_247_22" x="-18.7563" y="-18.7565" width="393.512" height="149.512" filterUnits="userSpaceOnUse" color-interpolation-filters="sRGB">
<feFlood flood-opacity="0" result="BackgroundImageFix"/>
<feGaussianBlur in="BackgroundImageFix" stdDeviation="9.37805"/>
<feComposite in2="SourceAlpha" operator="in" result="effect1_backgroundBlur_247_22"/>
<feBlend mode="normal" in="SourceGraphic" in2="effect1_backgroundBlur_247_22" result="shape"/>
</filter>
<linearGradient id="paint0_linear_247_22" x1="66.6033" y1="19.5182" x2="66.6033" y2="62.827" gradientUnits="userSpaceOnUse">
<stop stop-color="#FE8323"/>
<stop offset="0.5" stop-color="#F4A50D"/>
<stop offset="1" stop-color="#984E15"/>
</linearGradient>
<linearGradient id="paint1_linear_247_22" x1="66.6033" y1="38.3342" x2="66.6033" y2="85.2256" gradientUnits="userSpaceOnUse">
<stop stop-color="#FE8323"/>
<stop offset="0.5" stop-color="#F4A50D"/>
<stop offset="1" stop-color="#984E15"/>
</linearGradient>
</defs>
</svg>
