<svg width="283" height="96" viewBox="0 0 283 96" fill="none" xmlns="http://www.w3.org/2000/svg">
<path d="M11.9636 39.5899L11.9639 39.5896L26.3198 25.2868L26.32 25.2867L37.6033 14.0469L48.8868 25.2868L63.2383 39.5829L71.6645 47.9765L69.3335 50.2985L60.8916 41.8912L60.8912 41.8908L46.5424 27.5951L46.5423 27.5949L39.3676 20.4481L37.6033 18.6907L35.839 20.4481L28.6643 27.5949L28.6643 27.595L14.3059 41.8979L5.87296 50.2983L3.54235 47.9767L11.9636 39.5899Z" stroke="url(#paint0_linear_247_22)" stroke-width="5"/>
<path d="M40.3575 56.3157H37.8575V58.8157V73.7256H15.0909V55.2929L37.6058 32.863L60.1157 55.286V73.7256H52.9676V58.8157V56.3157H50.4676H40.3575Z" stroke="url(#paint1_linear_247_22)" stroke-width="5"/>
<path d="M146.02 45.9996L139.9 31.9996H142.72L148.18 44.6596H146.56L152.08 31.9996H154.68L148.58 45.9996H146.02ZM161.696 45.9996V43.8396L161.556 43.3796V39.5996C161.556 38.8663 161.336 38.2996 160.896 37.8996C160.456 37.4863 159.79 37.2796 158.896 37.2796C158.296 37.2796 157.703 37.373 157.116 37.5596C156.543 37.7463 156.056 38.0063 155.656 38.3396L154.676 36.5196C155.25 36.0796 155.93 35.753 156.716 35.5396C157.516 35.313 158.343 35.1996 159.196 35.1996C160.743 35.1996 161.936 35.573 162.776 36.3196C163.63 37.053 164.056 38.193 164.056 39.7396V45.9996H161.696ZM158.336 46.1396C157.536 46.1396 156.836 46.0063 156.236 45.7396C155.636 45.4596 155.17 45.0796 154.836 44.5996C154.516 44.1063 154.356 43.553 154.356 42.9396C154.356 42.3396 154.496 41.7996 154.776 41.3196C155.07 40.8396 155.543 40.4596 156.196 40.1796C156.85 39.8996 157.716 39.7596 158.796 39.7596H161.896V41.4196H158.976C158.123 41.4196 157.55 41.5596 157.256 41.8396C156.963 42.1063 156.816 42.4396 156.816 42.8396C156.816 43.293 156.996 43.653 157.356 43.9196C157.716 44.1863 158.216 44.3196 158.856 44.3196C159.47 44.3196 160.016 44.1796 160.496 43.8996C160.99 43.6196 161.343 43.2063 161.556 42.6596L161.976 44.1596C161.736 44.7863 161.303 45.273 160.676 45.6196C160.063 45.9663 159.283 46.1396 158.336 46.1396ZM167.265 45.9996V31.1596H169.765V45.9996H167.265ZM177.846 46.1396C176.753 46.1396 175.779 45.9063 174.926 45.4396C174.073 44.9596 173.399 44.3063 172.906 43.4796C172.413 42.653 172.166 41.713 172.166 40.6596C172.166 39.593 172.413 38.653 172.906 37.8396C173.399 37.013 174.073 36.3663 174.926 35.8996C175.779 35.433 176.753 35.1996 177.846 35.1996C178.953 35.1996 179.933 35.433 180.786 35.8996C181.653 36.3663 182.326 37.0063 182.806 37.8196C183.299 38.633 183.546 39.5796 183.546 40.6596C183.546 41.713 183.299 42.653 182.806 43.4796C182.326 44.3063 181.653 44.9596 180.786 45.4396C179.933 45.9063 178.953 46.1396 177.846 46.1396ZM177.846 43.9996C178.459 43.9996 179.006 43.8663 179.486 43.5996C179.966 43.333 180.339 42.9463 180.606 42.4396C180.886 41.933 181.026 41.3396 181.026 40.6596C181.026 39.9663 180.886 39.373 180.606 38.8796C180.339 38.373 179.966 37.9863 179.486 37.7196C179.006 37.453 178.466 37.3196 177.866 37.3196C177.253 37.3196 176.706 37.453 176.226 37.7196C175.759 37.9863 175.386 38.373 175.106 38.8796C174.826 39.373 174.686 39.9663 174.686 40.6596C174.686 41.3396 174.826 41.933 175.106 42.4396C175.386 42.9463 175.759 43.333 176.226 43.5996C176.706 43.8663 177.246 43.9996 177.846 43.9996ZM185.937 45.9996V35.3196H188.317V38.2596L188.037 37.3996C188.357 36.6796 188.857 36.133 189.537 35.7596C190.23 35.3863 191.09 35.1996 192.117 35.1996V37.5796C192.01 37.553 191.91 37.5396 191.817 37.5396C191.723 37.5263 191.63 37.5196 191.537 37.5196C190.59 37.5196 189.837 37.7996 189.277 38.3596C188.717 38.9063 188.437 39.7263 188.437 40.8196V45.9996H185.937ZM194.237 45.9996V35.3196H196.737V45.9996H194.237ZM195.497 33.5596C195.031 33.5596 194.644 33.413 194.337 33.1196C194.044 32.8263 193.897 32.473 193.897 32.0596C193.897 31.633 194.044 31.2796 194.337 30.9996C194.644 30.7063 195.031 30.5596 195.497 30.5596C195.964 30.5596 196.344 30.6996 196.637 30.9796C196.944 31.2463 197.097 31.5863 197.097 31.9996C197.097 32.4396 196.951 32.813 196.657 33.1196C196.364 33.413 195.977 33.5596 195.497 33.5596ZM199.139 45.9996V44.4196L205.719 36.4596L206.179 37.3196H199.259V35.3196H208.179V36.8996L201.599 44.8596L201.099 43.9996H208.359V45.9996H199.139ZM217.243 45.9996V43.8396L217.103 43.3796V39.5996C217.103 38.8663 216.883 38.2996 216.443 37.8996C216.003 37.4863 215.337 37.2796 214.443 37.2796C213.843 37.2796 213.25 37.373 212.663 37.5596C212.09 37.7463 211.603 38.0063 211.203 38.3396L210.223 36.5196C210.797 36.0796 211.477 35.753 212.263 35.5396C213.063 35.313 213.89 35.1996 214.743 35.1996C216.29 35.1996 217.483 35.573 218.323 36.3196C219.177 37.053 219.603 38.193 219.603 39.7396V45.9996H217.243ZM213.883 46.1396C213.083 46.1396 212.383 46.0063 211.783 45.7396C211.183 45.4596 210.717 45.0796 210.383 44.5996C210.063 44.1063 209.903 43.553 209.903 42.9396C209.903 42.3396 210.043 41.7996 210.323 41.3196C210.617 40.8396 211.09 40.4596 211.743 40.1796C212.397 39.8996 213.263 39.7596 214.343 39.7596H217.443V41.4196H214.523C213.67 41.4196 213.097 41.5596 212.803 41.8396C212.51 42.1063 212.363 42.4396 212.363 42.8396C212.363 43.293 212.543 43.653 212.903 43.9196C213.263 44.1863 213.763 44.3196 214.403 44.3196C215.017 44.3196 215.563 44.1796 216.043 43.8996C216.537 43.6196 216.89 43.2063 217.103 42.6596L217.523 44.1596C217.283 44.7863 216.85 45.273 216.223 45.6196C215.61 45.9663 214.83 46.1396 213.883 46.1396ZM227.731 46.1396C226.611 46.1396 225.611 45.9063 224.731 45.4396C223.864 44.9596 223.184 44.3063 222.691 43.4796C222.198 42.653 221.951 41.713 221.951 40.6596C221.951 39.593 222.198 38.653 222.691 37.8396C223.184 37.013 223.864 36.3663 224.731 35.8996C225.611 35.433 226.611 35.1996 227.731 35.1996C228.771 35.1996 229.684 35.413 230.471 35.8396C231.271 36.253 231.878 36.8663 232.291 37.6796L230.371 38.7996C230.051 38.293 229.658 37.9196 229.191 37.6796C228.738 37.4396 228.244 37.3196 227.711 37.3196C227.098 37.3196 226.544 37.453 226.051 37.7196C225.558 37.9863 225.171 38.373 224.891 38.8796C224.611 39.373 224.471 39.9663 224.471 40.6596C224.471 41.353 224.611 41.953 224.891 42.4596C225.171 42.953 225.558 43.333 226.051 43.5996C226.544 43.8663 227.098 43.9996 227.711 43.9996C228.244 43.9996 228.738 43.8796 229.191 43.6396C229.658 43.3996 230.051 43.0263 230.371 42.5196L232.291 43.6396C231.878 44.4396 231.271 45.0596 230.471 45.4996C229.684 45.9263 228.771 46.1396 227.731 46.1396ZM226.691 50.5596C226.331 50.5596 225.998 50.5196 225.691 50.4396C225.384 50.373 225.104 50.273 224.851 50.1396L225.311 48.9596C225.524 49.0663 225.738 49.1463 225.951 49.1996C226.178 49.253 226.418 49.2796 226.671 49.2796C227.058 49.2796 227.331 49.213 227.491 49.0796C227.651 48.9463 227.731 48.773 227.731 48.5596C227.731 48.3596 227.644 48.1996 227.471 48.0796C227.311 47.9596 227.044 47.8996 226.671 47.8996H226.051L226.591 45.8596H227.951L227.671 46.9796C228.258 47.0463 228.691 47.233 228.971 47.5396C229.264 47.8596 229.411 48.233 229.411 48.6596C229.411 49.2463 229.164 49.7063 228.671 50.0396C228.178 50.3863 227.518 50.5596 226.691 50.5596ZM241.032 45.9996V43.8396L240.892 43.3796V39.5996C240.892 38.8663 240.672 38.2996 240.232 37.8996C239.792 37.4863 239.126 37.2796 238.232 37.2796C237.632 37.2796 237.039 37.373 236.452 37.5596C235.879 37.7463 235.392 38.0063 234.992 38.3396L234.012 36.5196C234.586 36.0796 235.266 35.753 236.052 35.5396C236.852 35.313 237.679 35.1996 238.532 35.1996C240.079 35.1996 241.272 35.573 242.112 36.3196C242.966 37.053 243.392 38.193 243.392 39.7396V45.9996H241.032ZM237.672 46.1396C236.872 46.1396 236.172 46.0063 235.572 45.7396C234.972 45.4596 234.506 45.0796 234.172 44.5996C233.852 44.1063 233.692 43.553 233.692 42.9396C233.692 42.3396 233.832 41.7996 234.112 41.3196C234.406 40.8396 234.879 40.4596 235.532 40.1796C236.186 39.8996 237.052 39.7596 238.132 39.7596H241.232V41.4196H238.312C237.459 41.4196 236.886 41.5596 236.592 41.8396C236.299 42.1063 236.152 42.4396 236.152 42.8396C236.152 43.293 236.332 43.653 236.692 43.9196C237.052 44.1863 237.552 44.3196 238.192 44.3196C238.806 44.3196 239.352 44.1796 239.832 43.8996C240.326 43.6196 240.679 43.2063 240.892 42.6596L241.312 44.1596C241.072 44.7863 240.639 45.273 240.012 45.6196C239.399 45.9663 238.619 46.1396 237.672 46.1396ZM240.192 33.8596C239.872 33.8596 239.579 33.7996 239.312 33.6796C239.059 33.5463 238.826 33.393 238.612 33.2196C238.412 33.033 238.219 32.873 238.032 32.7396C237.846 32.6063 237.659 32.5396 237.472 32.5396C237.192 32.5396 236.966 32.6463 236.792 32.8596C236.619 33.073 236.519 33.3663 236.492 33.7396H235.152C235.179 32.913 235.379 32.2596 235.752 31.7796C236.139 31.2996 236.659 31.0596 237.312 31.0596C237.632 31.0596 237.926 31.1263 238.192 31.2596C238.459 31.393 238.692 31.5463 238.892 31.7196C239.106 31.893 239.306 32.0463 239.492 32.1796C239.679 32.313 239.859 32.3796 240.032 32.3796C240.312 32.3796 240.539 32.2796 240.712 32.0796C240.899 31.8796 240.999 31.5996 241.012 31.2396H242.352C242.339 32.013 242.139 32.6463 241.752 33.1396C241.366 33.6196 240.846 33.8596 240.192 33.8596ZM251.42 46.1396C250.327 46.1396 249.354 45.9063 248.5 45.4396C247.647 44.9596 246.974 44.3063 246.48 43.4796C245.987 42.653 245.74 41.713 245.74 40.6596C245.74 39.593 245.987 38.653 246.48 37.8396C246.974 37.013 247.647 36.3663 248.5 35.8996C249.354 35.433 250.327 35.1996 251.42 35.1996C252.527 35.1996 253.507 35.433 254.36 35.8996C255.227 36.3663 255.9 37.0063 256.38 37.8196C256.874 38.633 257.12 39.5796 257.12 40.6596C257.12 41.713 256.874 42.653 256.38 43.4796C255.9 44.3063 255.227 44.9596 254.36 45.4396C253.507 45.9063 252.527 46.1396 251.42 46.1396ZM251.42 43.9996C252.034 43.9996 252.58 43.8663 253.06 43.5996C253.54 43.333 253.914 42.9463 254.18 42.4396C254.46 41.933 254.6 41.3396 254.6 40.6596C254.6 39.9663 254.46 39.373 254.18 38.8796C253.914 38.373 253.54 37.9863 253.06 37.7196C252.58 37.453 252.04 37.3196 251.44 37.3196C250.827 37.3196 250.28 37.453 249.8 37.7196C249.334 37.9863 248.96 38.373 248.68 38.8796C248.4 39.373 248.26 39.9663 248.26 40.6596C248.26 41.3396 248.4 41.933 248.68 42.4396C248.96 42.9463 249.334 43.333 249.8 43.5996C250.28 43.8663 250.82 43.9996 251.42 43.9996ZM146.16 66.1396C145.133 66.1396 144.206 65.913 143.38 65.4596C142.566 64.993 141.926 64.353 141.46 63.5396C140.993 62.7263 140.76 61.7663 140.76 60.6596C140.76 59.553 140.993 58.593 141.46 57.7796C141.926 56.9663 142.566 56.333 143.38 55.8796C144.206 55.4263 145.133 55.1996 146.16 55.1996C147.053 55.1996 147.853 55.3996 148.56 55.7996C149.266 56.1863 149.826 56.7796 150.24 57.5796C150.653 58.3796 150.86 59.4063 150.86 60.6596C150.86 61.8996 150.66 62.9263 150.26 63.7396C149.86 64.5396 149.306 65.1396 148.6 65.5396C147.893 65.9396 147.08 66.1396 146.16 66.1396ZM146.46 63.9996C147.06 63.9996 147.593 63.8663 148.06 63.5996C148.54 63.333 148.92 62.9463 149.2 62.4396C149.493 61.933 149.64 61.3396 149.64 60.6596C149.64 59.9663 149.493 59.373 149.2 58.8796C148.92 58.373 148.54 57.9863 148.06 57.7196C147.593 57.453 147.06 57.3196 146.46 57.3196C145.86 57.3196 145.32 57.453 144.84 57.7196C144.373 57.9863 143.993 58.373 143.7 58.8796C143.42 59.373 143.28 59.9663 143.28 60.6596C143.28 61.3396 143.42 61.933 143.7 62.4396C143.993 62.9463 144.373 63.333 144.84 63.5996C145.32 63.8663 145.86 63.9996 146.46 63.9996ZM149.7 65.9996V63.4796L149.8 60.6396L149.6 57.7996V51.1596H152.08V65.9996H149.7ZM160.17 66.1396C159.077 66.1396 158.104 65.9063 157.25 65.4396C156.397 64.9596 155.724 64.3063 155.23 63.4796C154.737 62.653 154.49 61.713 154.49 60.6596C154.49 59.593 154.737 58.653 155.23 57.8396C155.724 57.013 156.397 56.3663 157.25 55.8996C158.104 55.433 159.077 55.1996 160.17 55.1996C161.277 55.1996 162.257 55.433 163.11 55.8996C163.977 56.3663 164.65 57.0063 165.13 57.8196C165.624 58.633 165.87 59.5796 165.87 60.6596C165.87 61.713 165.624 62.653 165.13 63.4796C164.65 64.3063 163.977 64.9596 163.11 65.4396C162.257 65.9063 161.277 66.1396 160.17 66.1396ZM160.17 63.9996C160.784 63.9996 161.33 63.8663 161.81 63.5996C162.29 63.333 162.664 62.9463 162.93 62.4396C163.21 61.933 163.35 61.3396 163.35 60.6596C163.35 59.9663 163.21 59.373 162.93 58.8796C162.664 58.373 162.29 57.9863 161.81 57.7196C161.33 57.453 160.79 57.3196 160.19 57.3196C159.577 57.3196 159.03 57.453 158.55 57.7196C158.084 57.9863 157.71 58.373 157.43 58.8796C157.15 59.373 157.01 59.9663 157.01 60.6596C157.01 61.3396 157.15 61.933 157.43 62.4396C157.71 62.9463 158.084 63.333 158.55 63.5996C159.03 63.8663 159.57 63.9996 160.17 63.9996ZM173.788 65.9996V55.3196H176.288V65.9996H173.788ZM175.048 53.5596C174.582 53.5596 174.195 53.413 173.888 53.1196C173.595 52.8263 173.448 52.473 173.448 52.0596C173.448 51.633 173.595 51.2796 173.888 50.9996C174.195 50.7063 174.582 50.5596 175.048 50.5596C175.515 50.5596 175.895 50.6996 176.188 50.9796C176.495 51.2463 176.648 51.5863 176.648 51.9996C176.648 52.4396 176.502 52.813 176.208 53.1196C175.915 53.413 175.528 53.5596 175.048 53.5596ZM193.049 55.1996C193.903 55.1996 194.656 55.3663 195.309 55.6996C195.976 56.033 196.496 56.5463 196.869 57.2396C197.243 57.9196 197.429 58.7996 197.429 59.8796V65.9996H194.929V60.1996C194.929 59.253 194.723 58.5463 194.309 58.0796C193.896 57.613 193.303 57.3796 192.529 57.3796C191.983 57.3796 191.496 57.4996 191.069 57.7396C190.656 57.9796 190.329 58.333 190.089 58.7996C189.863 59.2663 189.749 59.8596 189.749 60.5796V65.9996H187.249V60.1996C187.249 59.253 187.043 58.5463 186.629 58.0796C186.216 57.613 185.623 57.3796 184.849 57.3796C184.303 57.3796 183.816 57.4996 183.389 57.7396C182.976 57.9796 182.649 58.333 182.409 58.7996C182.183 59.2663 182.069 59.8596 182.069 60.5796V65.9996H179.569V55.3196H181.949V58.1596L181.529 57.3196C181.889 56.6263 182.409 56.0996 183.089 55.7396C183.783 55.3796 184.569 55.1996 185.449 55.1996C186.449 55.1996 187.316 55.4463 188.049 55.9396C188.796 56.433 189.289 57.1796 189.529 58.1796L188.549 57.8396C188.896 57.0396 189.469 56.3996 190.269 55.9196C191.069 55.4396 191.996 55.1996 193.049 55.1996ZM205.444 66.1396C204.35 66.1396 203.377 65.9063 202.524 65.4396C201.67 64.9596 200.997 64.3063 200.504 63.4796C200.01 62.653 199.764 61.713 199.764 60.6596C199.764 59.593 200.01 58.653 200.504 57.8396C200.997 57.013 201.67 56.3663 202.524 55.8996C203.377 55.433 204.35 55.1996 205.444 55.1996C206.55 55.1996 207.53 55.433 208.384 55.8996C209.25 56.3663 209.924 57.0063 210.404 57.8196C210.897 58.633 211.144 59.5796 211.144 60.6596C211.144 61.713 210.897 62.653 210.404 63.4796C209.924 64.3063 209.25 64.9596 208.384 65.4396C207.53 65.9063 206.55 66.1396 205.444 66.1396ZM205.444 63.9996C206.057 63.9996 206.604 63.8663 207.084 63.5996C207.564 63.333 207.937 62.9463 208.204 62.4396C208.484 61.933 208.624 61.3396 208.624 60.6596C208.624 59.9663 208.484 59.373 208.204 58.8796C207.937 58.373 207.564 57.9863 207.084 57.7196C206.604 57.453 206.064 57.3196 205.464 57.3196C204.85 57.3196 204.304 57.453 203.824 57.7196C203.357 57.9863 202.984 58.373 202.704 58.8796C202.424 59.373 202.284 59.9663 202.284 60.6596C202.284 61.3396 202.424 61.933 202.704 62.4396C202.984 62.9463 203.357 63.333 203.824 63.5996C204.304 63.8663 204.844 63.9996 205.444 63.9996ZM203.744 53.8596L206.444 51.1196H209.384L205.904 53.8596H203.744ZM216.081 65.9996L211.501 55.3196H214.101L218.041 64.7396H216.761L220.841 55.3196H223.241L218.661 65.9996H216.081ZM229.531 66.1396C228.344 66.1396 227.304 65.9063 226.411 65.4396C225.531 64.9596 224.844 64.3063 224.351 63.4796C223.871 62.653 223.631 61.713 223.631 60.6596C223.631 59.593 223.864 58.653 224.331 57.8396C224.811 57.013 225.464 56.3663 226.291 55.8996C227.131 55.433 228.084 55.1996 229.151 55.1996C230.191 55.1996 231.118 55.4263 231.931 55.8796C232.744 56.333 233.384 56.973 233.851 57.7996C234.318 58.6263 234.551 59.5996 234.551 60.7196C234.551 60.8263 234.544 60.9463 234.531 61.0796C234.531 61.213 234.524 61.3396 234.511 61.4596H225.611V59.7996H233.191L232.211 60.3196C232.224 59.7063 232.098 59.1663 231.831 58.6996C231.564 58.233 231.198 57.8663 230.731 57.5996C230.278 57.333 229.751 57.1996 229.151 57.1996C228.538 57.1996 227.998 57.333 227.531 57.5996C227.078 57.8663 226.718 58.2396 226.451 58.7196C226.198 59.1863 226.071 59.7396 226.071 60.3796V60.7796C226.071 61.4196 226.218 61.9863 226.511 62.4796C226.804 62.973 227.218 63.353 227.751 63.6196C228.284 63.8863 228.898 64.0196 229.591 64.0196C230.191 64.0196 230.731 63.9263 231.211 63.7396C231.691 63.553 232.118 63.2596 232.491 62.8596L233.831 64.3996C233.351 64.9596 232.744 65.393 232.011 65.6996C231.291 65.993 230.464 66.1396 229.531 66.1396ZM236.952 65.9996V51.1596H239.452V65.9996H236.952Z" fill="#26292E"/>
<path d="M112.139 0.846619V95.096" stroke="#FE8323" stroke-width="0.937805"/>
<defs>
<linearGradient id="paint0_linear_247_22" x1="37.6033" y1="10.5182" x2="37.6033" y2="53.827" gradientUnits="userSpaceOnUse">
<stop stop-color="#FE8323"/>
<stop offset="0.5" stop-color="#F4A50D"/>
<stop offset="1" stop-color="#984E15"/>
</linearGradient>
<linearGradient id="paint1_linear_247_22" x1="37.6033" y1="29.3342" x2="37.6033" y2="76.2256" gradientUnits="userSpaceOnUse">
<stop stop-color="#FE8323"/>
<stop offset="0.5" stop-color="#F4A50D"/>
<stop offset="1" stop-color="#984E15"/>
</linearGradient>
</defs>
</svg>
