<svg width="26" height="26" viewBox="0 0 26 26" fill="none" xmlns="http://www.w3.org/2000/svg">
<g clip-path="url(#clip0_242_27979)">
<path d="M4.81558 1.10178C3.02909 2.26041 2.67814 5.88208 3.35262 8.83384C3.8779 11.1325 4.99468 14.216 6.87785 17.1196C8.64941 19.8511 11.121 22.3004 13.0056 23.7175C15.4257 25.5371 18.8756 26.6937 20.6621 25.535C21.5654 24.9492 22.9075 23.3485 22.9688 23.0613C22.9688 23.0613 22.1817 21.8478 22.009 21.5815L19.3698 17.5122C19.1737 17.2098 17.9438 17.4862 17.319 17.84C16.4762 18.3176 15.7 19.5989 15.7 19.5989C15.1221 19.9328 14.638 19.6001 13.6267 19.1347C12.3837 18.5628 10.9862 16.7858 9.87395 15.1764C8.85807 13.5045 7.80552 11.5038 7.79029 10.1357C7.77775 9.02244 7.67141 8.44486 8.21198 8.05333C8.21198 8.05333 9.69845 7.86717 10.4782 7.29243C11.0561 6.86627 11.8101 5.85603 11.614 5.55357L8.97476 1.48427C8.80206 1.21797 8.01505 0.00450328 8.01505 0.00450328C7.72778 -0.0566881 5.71892 0.515921 4.81558 1.10178Z" fill="#BCBCBC"/>
</g>
<defs>
<clipPath id="clip0_242_27979">
<rect width="26" height="26" fill="white"/>
</clipPath>
</defs>
</svg>
