<svg width="215" height="44" viewBox="0 0 215 44" fill="none" xmlns="http://www.w3.org/2000/svg">
<path d="M68.4842 43.5926C62.8019 43.5926 59.0715 40.4262 58.9414 35.568H63.6261C63.7562 38.0405 65.8383 39.3417 68.6577 39.3417C71.2603 39.3417 73.2557 38.2573 73.2557 36.3054C73.2557 34.0498 70.7398 33.5727 67.877 33.0955C63.9731 32.4015 59.3752 31.534 59.3752 26.1119C59.3752 21.9044 62.9754 18.9982 68.4409 18.9982C73.8629 18.9982 77.4198 21.9911 77.5065 26.5023H72.952C72.8653 24.2901 71.1302 23.0756 68.3107 23.0756C65.6648 23.0756 64.0165 24.2467 64.0165 25.9384C64.0165 28.0205 66.4022 28.4109 69.2216 28.888C73.1689 29.5387 77.9837 30.3194 77.9837 36.0885C77.9837 40.643 74.2099 43.5926 68.4842 43.5926Z" fill="url(#paint0_linear_104_3)"/>
<path d="M36.3516 14.14H56.3481V14.8774L45.157 42.9854H40.2121L50.1019 18.4343H36.3516V14.14Z" fill="url(#paint1_linear_104_3)"/>
<path d="M28.7666 42.9854V37.4766H34.0152V42.9854H28.7666Z" fill="url(#paint2_linear_104_3)"/>
<path d="M13.303 43.5059C6.31942 43.5059 1.89502 37.7368 1.89502 28.541C1.89502 19.3452 6.27605 13.6195 13.303 13.6195C20.33 13.6195 24.6677 19.3452 24.6677 28.541C24.6677 37.7368 20.2867 43.5059 13.303 43.5059ZM13.303 39.1249C17.4672 39.1249 19.9396 35.2644 19.9396 28.5844C19.9396 21.9044 17.4672 18.0439 13.303 18.0439C9.1389 18.0439 6.62306 21.9044 6.62306 28.541C6.62306 35.221 9.09552 39.1249 13.303 39.1249Z" fill="url(#paint3_linear_104_3)"/>
<path d="M67.7987 2.24452H68.1469V6.94524H67.79L67.7377 5.92675C67.3286 6.60574 66.5974 7.04099 65.6921 7.04099C64.3167 7.04099 63.2808 5.98768 63.2808 4.59488C63.2808 3.20207 64.3167 2.15747 65.6921 2.15747C66.5974 2.15747 67.3286 2.59272 67.7377 3.27171L67.7987 2.24452ZM65.7182 6.63186C66.8759 6.63186 67.7203 5.77006 67.7203 4.59488C67.7203 3.4284 66.8759 2.56661 65.7182 2.56661C64.5778 2.56661 63.716 3.44581 63.716 4.59488C63.716 5.76135 64.5778 6.63186 65.7182 6.63186Z" fill="black"/>
<path d="M61.624 6.94516V0.581787H62.0506V6.94516H61.624Z" fill="black"/>
<path d="M60.4073 4.58617C60.4073 4.6384 60.3986 4.69934 60.3986 4.75157H56.1331C56.194 5.8484 57.0036 6.62315 58.0743 6.62315C58.8491 6.62315 59.4671 6.24013 59.8153 5.57855H60.268C59.8327 6.51869 59.058 7.04099 58.0743 7.04099C56.725 7.04099 55.7065 5.98768 55.7065 4.59488C55.7065 3.21078 56.725 2.15747 58.0743 2.15747C59.4497 2.15747 60.4073 3.21948 60.4073 4.58617ZM58.0743 2.5579C57.0297 2.5579 56.2463 3.29783 56.1331 4.35114H59.9807C59.885 3.27171 59.0928 2.5579 58.0743 2.5579Z" fill="black"/>
<path d="M54.6008 6.55345H55.1144V6.94517H54.5573C53.6345 6.94517 53.0774 6.38805 53.0774 5.44791V2.63618H52.2939V2.54043L53.4169 1.41748H53.5039V2.24446H55.0796V2.63618H53.5039V5.4392C53.5039 6.14431 53.8957 6.55345 54.6008 6.55345Z" fill="black"/>
<path d="M48.6624 2.24452H49.0106V6.94524H48.6537L48.6015 5.92675C48.1924 6.60574 47.4611 7.04099 46.5558 7.04099C45.1804 7.04099 44.1445 5.98768 44.1445 4.59488C44.1445 3.20207 45.1804 2.15747 46.5558 2.15747C47.4611 2.15747 48.1924 2.59272 48.6015 3.27171L48.6624 2.24452ZM46.5819 6.63186C47.7397 6.63186 48.5841 5.77006 48.5841 4.59488C48.5841 3.4284 47.7397 2.56661 46.5819 2.56661C45.4416 2.56661 44.5798 3.44581 44.5798 4.59488C44.5798 5.76135 45.4416 6.63186 46.5819 6.63186Z" fill="black"/>
<path d="M42.4886 0.581787H42.9152V6.95387H42.567L42.5061 5.9702C42.0882 6.62308 41.3657 7.04092 40.4865 7.04092C39.0937 7.04092 38.0752 5.98761 38.0752 4.60351C38.0752 3.202 39.0937 2.1574 40.4865 2.1574C41.3483 2.1574 42.0708 2.55783 42.4886 3.1933V0.581787ZM40.5126 6.63178C41.6617 6.63178 42.5148 5.76128 42.5148 4.5948C42.5148 3.42833 41.6617 2.56653 40.5126 2.56653C39.3722 2.56653 38.5104 3.43704 38.5104 4.60351C38.5104 5.76128 39.3722 6.63178 40.5126 6.63178Z" fill="black"/>
<path d="M32.3859 7.04099C30.9844 7.04099 29.9224 5.99639 29.9224 4.59488C29.9224 3.19337 30.9844 2.15747 32.3859 2.15747C33.7961 2.15747 34.8494 3.20207 34.8494 4.59488C34.8494 5.99639 33.7961 7.04099 32.3859 7.04099ZM32.3859 6.63186C33.5524 6.63186 34.4142 5.77006 34.4142 4.59488C34.4142 3.4284 33.5524 2.56661 32.3859 2.56661C31.2194 2.56661 30.3576 3.4284 30.3576 4.60358C30.3576 5.77006 31.2281 6.63186 32.3859 6.63186Z" fill="black"/>
<path d="M25.1159 1.43492V1.53068H24.8373V1.42622C24.8373 0.842982 25.1246 0.459961 25.5947 0.459961C25.9168 0.459961 26.117 0.607947 26.3694 0.903918C26.5783 1.14766 26.7263 1.26953 26.9527 1.26953C27.2399 1.26953 27.4227 1.00838 27.4227 0.599242V0.520896H27.71V0.607947C27.71 1.19118 27.414 1.5742 26.9527 1.5742C26.6306 1.5742 26.4217 1.41751 26.1692 1.13895C25.9429 0.886507 25.7949 0.773342 25.5947 0.773342C25.3161 0.773342 25.1159 1.03449 25.1159 1.43492ZM28.3368 2.24449H28.685V6.94521H28.3281L28.2758 5.92672C27.8667 6.60571 27.1355 7.04096 26.2301 7.04096C24.8547 7.04096 23.8188 5.98765 23.8188 4.59485C23.8188 3.20205 24.8547 2.15744 26.2301 2.15744C27.1355 2.15744 27.8667 2.59269 28.2758 3.27169L28.3368 2.24449ZM26.2563 6.63183C27.414 6.63183 28.2584 5.77003 28.2584 4.59485C28.2584 3.42838 27.414 2.56658 26.2563 2.56658C25.1159 2.56658 24.2541 3.44579 24.2541 4.59485C24.2541 5.76132 25.1159 6.63183 26.2563 6.63183Z" fill="black"/>
<path d="M21.2002 7.04099C20.1208 7.04099 19.4418 6.50128 19.3809 5.62207H19.7987C19.8596 6.27495 20.3993 6.64927 21.2089 6.64927C22.0272 6.64927 22.5756 6.27495 22.5756 5.68301C22.5756 4.95178 21.8705 4.82121 21.1393 4.69934C20.3297 4.56006 19.4679 4.40337 19.4679 3.43711C19.4679 2.67107 20.1556 2.15747 21.1741 2.15747C22.1926 2.15747 22.8455 2.67977 22.8803 3.51546H22.4711C22.4363 2.8974 21.9575 2.54049 21.1654 2.54049C20.3906 2.54049 19.8858 2.8974 19.8858 3.4284C19.8858 4.06387 20.5212 4.16833 21.2437 4.2902C22.062 4.42948 23.0022 4.58617 23.0022 5.6656C23.0022 6.50128 22.2796 7.04099 21.2002 7.04099Z" fill="black"/>
<path d="M17.6807 1.27826V0.677612H18.2204V1.27826H17.6807ZM17.7416 6.94523V2.24452H18.1681V6.94523H17.7416Z" fill="black"/>
<path d="M14.0923 2.1574C15.5025 2.1574 16.4949 3.202 16.4949 4.5948C16.4949 5.98761 15.5025 7.04092 14.0923 7.04092C13.2218 7.04092 12.4906 6.62308 12.064 5.96149L12.0031 6.94516H11.6636V0.581787H12.0901V3.21071C12.508 2.55783 13.2392 2.1574 14.0923 2.1574ZM14.0662 6.63178C15.2239 6.63178 16.0596 5.76998 16.0596 4.5948C16.0596 3.42833 15.2239 2.56653 14.0662 2.56653C12.9258 2.56653 12.064 3.43704 12.064 4.5948C12.064 5.75257 12.9258 6.63178 14.0662 6.63178Z" fill="black"/>
<path d="M9.53662 1.27826V0.677612H10.0763V1.27826H9.53662ZM9.59756 6.94523V2.24452H10.0241V6.94523H9.59756Z" fill="black"/>
<path d="M8.68282 6.94522H8.19534L6.61973 4.77767L5.03542 6.94522H4.55664L6.35858 4.4904L4.72204 2.24451H5.20952L6.61973 4.19443L8.04736 2.24451H8.51743L6.88088 4.47299L8.68282 6.94522Z" fill="black"/>
<path d="M1.06652 6.52736H4.05234V6.9452H0.622559V0.851685H3.95658V1.27823H1.06652V3.57636H3.73025V3.98549H1.06652V6.52736Z" fill="black"/>
<path d="M205.4 43.5926C199.717 43.5926 195.987 40.4262 195.857 35.568H200.542C200.672 38.0405 202.754 39.3417 205.573 39.3417C208.176 39.3417 210.171 38.2573 210.171 36.3054C210.171 34.0498 207.655 33.5727 204.792 33.0955C200.889 32.4015 196.291 31.534 196.291 26.1119C196.291 21.9044 199.891 18.9982 205.356 18.9982C210.778 18.9982 214.335 21.9911 214.422 26.5023H209.868C209.781 24.2901 208.046 23.0756 205.226 23.0756C202.58 23.0756 200.932 24.2467 200.932 25.9384C200.932 28.0205 203.318 28.4109 206.137 28.888C210.084 29.5387 214.899 30.3194 214.899 36.0885C214.899 40.643 211.125 43.5926 205.4 43.5926Z" fill="url(#paint4_linear_104_3)"/>
<path d="M182.787 19.0416C187.732 19.0416 191.072 22.8154 191.072 28.1073V42.9855H186.257V29.2785C186.257 25.5047 184.609 23.3793 181.702 23.3793C178.579 23.3793 176.194 26.1987 176.194 30.1894V42.9855H171.509V29.2785C171.509 25.5047 169.861 23.3793 166.954 23.3793C163.831 23.3793 161.446 26.1987 161.446 30.1894V42.9855H156.631V19.5621H160.014L160.838 22.5985C162.617 20.4297 165.306 19.0416 168.126 19.0416C171.292 19.0416 173.808 20.6032 175.153 23.1624C176.844 20.6466 179.707 19.0416 182.787 19.0416Z" fill="url(#paint5_linear_104_3)"/>
<path d="M147.216 27.6301C149.602 29.0615 151.033 31.5774 151.033 34.4836C151.033 39.7755 146.739 43.5493 140.579 43.5493C134.333 43.5493 130.125 39.8623 130.125 34.4836C130.125 31.6208 131.514 29.1049 133.943 27.6301C132.121 26.1987 131.036 23.9865 131.036 21.5574C131.036 16.9161 134.94 13.6195 140.579 13.6195C146.218 13.6195 150.079 16.8727 150.079 21.5574C150.079 24.0299 148.994 26.2854 147.216 27.6301ZM140.579 17.5234C137.673 17.5234 135.634 19.2585 135.634 21.6442C135.634 24.0732 137.673 25.7649 140.579 25.7649C143.442 25.7649 145.437 24.0732 145.437 21.6442C145.437 19.2585 143.442 17.5234 140.579 17.5234ZM140.579 39.4285C144.006 39.4285 146.348 37.4332 146.348 34.527C146.348 31.6208 144.006 29.6254 140.579 29.6254C137.152 29.6254 134.81 31.6208 134.81 34.527C134.81 37.4332 137.152 39.4285 140.579 39.4285Z" fill="url(#paint6_linear_104_3)"/>
<path d="M114.346 14.14H124.063V42.9854H119.465V18.3909H114.346V14.14Z" fill="url(#paint7_linear_104_3)"/>
<path d="M164.166 6.94516V0.581787H164.592V6.94516H164.166Z" fill="black"/>
<path d="M162.17 2.2444H162.518V6.94511H162.162L162.109 5.92663C161.7 6.60562 160.969 7.04087 160.064 7.04087C158.688 7.04087 157.652 5.98756 157.652 4.59476C157.652 3.20195 158.688 2.15735 160.064 2.15735C160.969 2.15735 161.7 2.5926 162.109 3.27159L162.17 2.2444ZM160.09 6.63173C161.248 6.63173 162.092 5.76994 162.092 4.59476C162.092 3.42828 161.248 2.56648 160.09 2.56648C158.949 2.56648 158.088 3.44569 158.088 4.59476C158.088 5.76123 158.949 6.63173 160.09 6.63173Z" fill="black"/>
<path d="M156.555 6.55345H157.069V6.94517H156.512C155.589 6.94517 155.032 6.38805 155.032 5.44791V2.63618H154.249V2.54043L155.371 1.41748H155.459V2.24446H157.034V2.63618H155.459V5.4392C155.459 6.14431 155.85 6.55345 156.555 6.55345Z" fill="black"/>
<path d="M151.19 7.04087C149.789 7.04087 148.727 5.99627 148.727 4.59476C148.727 3.19325 149.789 2.15735 151.19 2.15735C152.6 2.15735 153.654 3.20195 153.654 4.59476C153.654 5.99627 152.6 7.04087 151.19 7.04087ZM151.19 6.63173C152.357 6.63173 153.218 5.76994 153.218 4.59476C153.218 3.42828 152.357 2.56648 151.19 2.56648C150.024 2.56648 149.162 3.42828 149.162 4.60346C149.162 5.76994 150.032 6.63173 151.19 6.63173Z" fill="black"/>
<path d="M147.63 6.55345H148.143V6.94517H147.586C146.663 6.94517 146.106 6.38805 146.106 5.44791V2.63618H145.323V2.54043L146.446 1.41748H146.533V2.24446H148.108V2.63618H146.533V5.4392C146.533 6.14431 146.924 6.55345 147.63 6.55345Z" fill="black"/>
<path d="M139.985 7.04087C138.584 7.04087 137.522 5.99627 137.522 4.59476C137.522 3.19325 138.584 2.15735 139.985 2.15735C141.396 2.15735 142.449 3.20195 142.449 4.59476C142.449 5.99627 141.396 7.04087 139.985 7.04087ZM139.985 6.63173C141.152 6.63173 142.014 5.76994 142.014 4.59476C142.014 3.42828 141.152 2.56648 139.985 2.56648C138.819 2.56648 137.957 3.42828 137.957 4.60346C137.957 5.76994 138.828 6.63173 139.985 6.63173Z" fill="black"/>
<path d="M134.29 2.15735C135.692 2.15735 136.684 3.20195 136.684 4.59476C136.684 5.98756 135.692 7.04087 134.29 7.04087C133.429 7.04087 132.697 6.62303 132.28 5.96145V8.61648H131.853V2.2444H132.158L132.253 3.27159C132.671 2.5926 133.411 2.15735 134.29 2.15735ZM134.264 6.63173C135.413 6.63173 136.258 5.76994 136.258 4.59476C136.258 3.42828 135.413 2.56648 134.264 2.56648C133.124 2.56648 132.262 3.43699 132.262 4.59476C132.262 5.75253 133.124 6.63173 134.264 6.63173Z" fill="black"/>
<path d="M128.683 2.15735C129.65 2.15735 130.285 2.88857 130.285 3.96799V6.94511H129.867L129.859 4.08986C129.859 3.14972 129.371 2.54908 128.605 2.54908C127.752 2.54908 127.134 3.25418 127.125 4.24656V6.94511H126.707V4.08986C126.707 3.14102 126.229 2.54908 125.454 2.54908C124.601 2.54908 123.974 3.25418 123.974 4.24656V6.94511H123.547V2.2444H123.869L123.939 3.08008C124.261 2.50555 124.844 2.15735 125.541 2.15735C126.255 2.15735 126.794 2.57519 127.021 3.23677C127.317 2.56648 127.935 2.15735 128.683 2.15735Z" fill="black"/>
<path d="M122.331 4.58605C122.331 4.63828 122.322 4.69922 122.322 4.75145H118.056C118.117 5.84828 118.927 6.62303 119.998 6.62303C120.772 6.62303 121.39 6.24001 121.739 5.57842H122.191C121.756 6.51857 120.981 7.04087 119.998 7.04087C118.648 7.04087 117.63 5.98756 117.63 4.59476C117.63 3.21066 118.648 2.15735 119.998 2.15735C121.373 2.15735 122.331 3.21936 122.331 4.58605ZM119.998 2.55778C118.953 2.55778 118.17 3.29771 118.056 4.35102H121.904C121.808 3.27159 121.016 2.55778 119.998 2.55778Z" fill="black"/>
<path d="M117.641 0.851685V1.26953H115.7V6.9452H115.256V1.26953H113.314V0.851685H117.641Z" fill="black"/>
<defs>
<linearGradient id="paint0_linear_104_3" x1="26.726" y1="6.53167" x2="34.833" y2="47.6447" gradientUnits="userSpaceOnUse">
<stop offset="0.115007" stop-color="#B3DBAC"/>
<stop offset="0.875007" stop-color="#29AB4C"/>
</linearGradient>
<linearGradient id="paint1_linear_104_3" x1="26.7262" y1="6.53168" x2="34.8332" y2="47.6447" gradientUnits="userSpaceOnUse">
<stop offset="0.115007" stop-color="#B3DBAC"/>
<stop offset="0.875007" stop-color="#29AB4C"/>
</linearGradient>
<linearGradient id="paint2_linear_104_3" x1="26.7264" y1="6.53168" x2="34.8334" y2="47.6447" gradientUnits="userSpaceOnUse">
<stop offset="0.115007" stop-color="#B3DBAC"/>
<stop offset="0.875007" stop-color="#29AB4C"/>
</linearGradient>
<linearGradient id="paint3_linear_104_3" x1="26.7262" y1="6.53169" x2="34.8332" y2="47.6447" gradientUnits="userSpaceOnUse">
<stop offset="0.115007" stop-color="#B3DBAC"/>
<stop offset="0.875007" stop-color="#29AB4C"/>
</linearGradient>
<linearGradient id="paint4_linear_104_3" x1="147.799" y1="6.53167" x2="154.207" y2="48.2591" gradientUnits="userSpaceOnUse">
<stop offset="0.115007" stop-color="#B3DBAC"/>
<stop offset="0.875007" stop-color="#29AB4C"/>
</linearGradient>
<linearGradient id="paint5_linear_104_3" x1="147.798" y1="6.53175" x2="154.207" y2="48.2592" gradientUnits="userSpaceOnUse">
<stop offset="0.115007" stop-color="#B3DBAC"/>
<stop offset="0.875007" stop-color="#29AB4C"/>
</linearGradient>
<linearGradient id="paint6_linear_104_3" x1="147.798" y1="6.53169" x2="154.207" y2="48.2591" gradientUnits="userSpaceOnUse">
<stop offset="0.115007" stop-color="#B3DBAC"/>
<stop offset="0.875007" stop-color="#29AB4C"/>
</linearGradient>
<linearGradient id="paint7_linear_104_3" x1="147.798" y1="6.53168" x2="154.207" y2="48.2591" gradientUnits="userSpaceOnUse">
<stop offset="0.115007" stop-color="#B3DBAC"/>
<stop offset="0.875007" stop-color="#29AB4C"/>
</linearGradient>
</defs>
</svg>
