<svg width="342" height="96" viewBox="0 0 342 96" fill="none" xmlns="http://www.w3.org/2000/svg">
<path d="M94.7019 43.35V51.4325H80.5179V66.3296H71.8807V51.4325H57.6968V43.35H71.8807V28.8491H80.5179V43.35H94.7019Z" fill="url(#paint0_linear_104_2)"/>
<path d="M44.063 74.2536L39.3086 62.2092H14.5065L9.83134 74.2536H0.164062L22.4305 18.7856H30.9884L53.968 74.2536H44.063ZM26.8679 30.6716L17.6761 54.0474H36.139L26.8679 30.6716Z" fill="url(#paint1_linear_104_2)"/>
<path d="M213.517 50.9109C209.513 50.9109 206.697 48.0947 206.697 44.1343C206.697 40.1739 209.513 37.3577 213.517 37.3577C217.522 37.3577 220.294 40.1739 220.294 44.1343C220.294 48.0947 217.478 50.9109 213.517 50.9109ZM211.229 67.0604L228.875 37.7977H233.275L215.63 67.0604H211.229ZM213.517 47.3026C215.322 47.3026 216.686 45.9825 216.686 44.1343C216.686 42.2861 215.322 40.966 213.517 40.966C211.713 40.966 210.349 42.2861 210.349 44.1343C210.349 45.9825 211.713 47.3026 213.517 47.3026ZM231.515 67.4565C227.555 67.4565 224.694 64.6842 224.694 60.7679C224.694 56.8075 227.555 54.0352 231.515 54.0352C235.475 54.0352 238.292 56.8075 238.292 60.7679C238.292 64.6842 235.475 67.4565 231.515 67.4565ZM231.515 63.8921C233.319 63.8921 234.639 62.572 234.639 60.7679C234.639 58.9197 233.319 57.5996 231.515 57.5996C229.711 57.5996 228.391 58.9197 228.391 60.7679C228.391 62.572 229.711 63.8921 231.515 63.8921Z" fill="url(#paint2_linear_104_2)"/>
<path d="M191.561 67.5886C184.477 67.5886 179.988 61.7361 179.988 52.4072C179.988 43.0783 184.433 37.2698 191.561 37.2698C198.69 37.2698 203.09 43.0783 203.09 52.4072C203.09 61.7361 198.646 67.5886 191.561 67.5886ZM191.561 63.1442C195.786 63.1442 198.294 59.2278 198.294 52.4512C198.294 45.6746 195.786 41.7582 191.561 41.7582C187.337 41.7582 184.785 45.6746 184.785 52.4072C184.785 59.1838 187.293 63.1442 191.561 63.1442Z" fill="url(#paint3_linear_104_2)"/>
<path d="M163.973 67.5886C156.888 67.5886 152.4 61.7361 152.4 52.4072C152.4 43.0783 156.844 37.2698 163.973 37.2698C171.102 37.2698 175.502 43.0783 175.502 52.4072C175.502 61.7361 171.058 67.5886 163.973 67.5886ZM163.973 63.1442C168.197 63.1442 170.706 59.2278 170.706 52.4512C170.706 45.6746 168.197 41.7582 163.973 41.7582C159.749 41.7582 157.196 45.6746 157.196 52.4072C157.196 59.1838 159.705 63.1442 163.973 63.1442Z" fill="url(#paint4_linear_104_2)"/>
<path d="M136.348 37.7979H146.205V67.0606H141.541V42.1103H136.348V37.7979Z" fill="url(#paint5_linear_104_2)"/>
<path d="M192.716 27.5544C192.716 27.6074 192.708 27.6692 192.708 27.7222H188.38C188.442 28.8349 189.264 29.6209 190.35 29.6209C191.136 29.6209 191.763 29.2323 192.116 28.5612H192.575C192.134 29.5149 191.348 30.0448 190.35 30.0448C188.981 30.0448 187.948 28.9762 187.948 27.5633C187.948 26.1591 188.981 25.0906 190.35 25.0906C191.745 25.0906 192.716 26.168 192.716 27.5544ZM190.35 25.4968C189.29 25.4968 188.495 26.2474 188.38 27.316H192.284C192.187 26.2209 191.383 25.4968 190.35 25.4968Z" fill="black"/>
<path d="M184.935 30.0448C183.54 30.0448 182.471 28.9762 182.471 27.5721C182.471 26.1503 183.531 25.0906 184.935 25.0906C186.012 25.0906 186.86 25.7087 187.187 26.6537H186.754C186.436 25.9384 185.747 25.5056 184.935 25.5056C183.778 25.5056 182.913 26.3976 182.913 27.5721C182.913 28.7378 183.787 29.6297 184.935 29.6297C185.747 29.6297 186.419 29.197 186.754 28.464H187.196C186.86 29.4354 185.995 30.0448 184.935 30.0448Z" fill="black"/>
<path d="M179.446 25.0906C180.594 25.0906 181.309 25.9119 181.309 27.1217V29.9476H180.876V27.21C180.876 26.1238 180.311 25.488 179.348 25.488C178.43 25.488 177.662 26.2739 177.662 27.2277V29.9476H177.229V25.1789H177.547L177.635 26.1503C177.98 25.5056 178.66 25.0906 179.446 25.0906Z" fill="black"/>
<path d="M175.205 25.1789H175.559V29.9476H175.197L175.144 28.9144C174.728 29.6032 173.987 30.0448 173.068 30.0448C171.673 30.0448 170.622 28.9762 170.622 27.5633C170.622 26.1503 171.673 25.0906 173.068 25.0906C173.987 25.0906 174.728 25.5321 175.144 26.2209L175.205 25.1789ZM173.095 29.6297C174.269 29.6297 175.126 28.7554 175.126 27.5633C175.126 26.3799 174.269 25.5056 173.095 25.5056C171.938 25.5056 171.064 26.3976 171.064 27.5633C171.064 28.7466 171.938 29.6297 173.095 29.6297Z" fill="black"/>
<path d="M167.822 25.0906C168.802 25.0906 169.447 25.8324 169.447 26.9274V29.9476H169.023L169.014 27.0511C169.014 26.0973 168.519 25.488 167.742 25.488C166.877 25.488 166.25 26.2033 166.241 27.21V29.9476H165.817V27.0511C165.817 26.0885 165.331 25.488 164.545 25.488C163.68 25.488 163.044 26.2033 163.044 27.21V29.9476H162.611V25.1789H162.938L163.009 26.0267C163.335 25.4438 163.927 25.0906 164.634 25.0906C165.358 25.0906 165.905 25.5145 166.135 26.1856C166.435 25.5056 167.062 25.0906 167.822 25.0906Z" fill="black"/>
<path d="M161.27 25.1702H161.685V25.5764H161.235C160.281 25.5764 159.672 26.2829 159.672 27.2984V29.9477H159.239V25.179H159.557L159.637 26.1239C159.955 25.5234 160.511 25.1702 161.27 25.1702Z" fill="black"/>
<path d="M155.485 30.0448C154.063 30.0448 152.986 28.985 152.986 27.5633C152.986 26.1415 154.063 25.0906 155.485 25.0906C156.916 25.0906 157.984 26.1503 157.984 27.5633C157.984 28.985 156.916 30.0448 155.485 30.0448ZM155.485 29.6297C156.668 29.6297 157.543 28.7554 157.543 27.5633C157.543 26.3799 156.668 25.5056 155.485 25.5056C154.302 25.5056 153.427 26.3799 153.427 27.5721C153.427 28.7554 154.31 29.6297 155.485 29.6297Z" fill="black"/>
<path d="M152.65 25.1789V25.5586H151.034V29.9476H150.601V25.5586H149.594V25.1789H150.601V24.8168C150.601 23.7394 151.034 23.2891 152.138 23.2891H152.65V23.6511H152.208C151.325 23.6511 151.025 23.9514 151.025 24.8257V25.1789H152.65ZM147.201 26.1326C147.519 25.541 148.075 25.1789 148.835 25.1789H149.25V25.5851H148.8C147.846 25.5939 147.236 26.2916 147.236 27.2983V29.9476H146.804V25.1789H147.122L147.201 26.1326Z" fill="black"/>
<path d="M145.569 27.5544C145.569 27.6074 145.56 27.6692 145.56 27.7222H141.233C141.295 28.8349 142.116 29.6209 143.202 29.6209C143.988 29.6209 144.615 29.2323 144.969 28.5612H145.428C144.986 29.5149 144.2 30.0448 143.202 30.0448C141.834 30.0448 140.8 28.9762 140.8 27.5633C140.8 26.1591 141.834 25.0906 143.202 25.0906C144.598 25.0906 145.569 26.168 145.569 27.5544ZM143.202 25.4968C142.143 25.4968 141.348 26.2474 141.233 27.316H145.136C145.039 26.2209 144.236 25.4968 143.202 25.4968Z" fill="black"/>
<path d="M138.154 23.7659C139.275 23.7659 140.132 24.5783 140.132 25.6645C140.132 26.7507 139.284 27.5632 138.154 27.5632H136.476V29.9476H136.025V23.7659H138.154ZM138.136 27.1305C139.019 27.1305 139.673 26.5035 139.673 25.6645C139.673 24.8256 139.019 24.1986 138.136 24.1986H136.476V27.1305H138.136Z" fill="black"/>
<path fill-rule="evenodd" clip-rule="evenodd" d="M111.671 95.0963V0.846924H112.609V95.0963H111.671Z" fill="#EDEDED"/>
<path d="M317.232 50.9109C313.227 50.9109 310.411 48.0947 310.411 44.1343C310.411 40.1739 313.227 37.3577 317.232 37.3577C321.236 37.3577 324.008 40.1739 324.008 44.1343C324.008 48.0947 321.192 50.9109 317.232 50.9109ZM314.944 67.0604L332.589 37.7977H336.99L319.344 67.0604H314.944ZM317.232 47.3026C319.036 47.3026 320.4 45.9825 320.4 44.1343C320.4 42.2861 319.036 40.966 317.232 40.966C315.428 40.966 314.063 42.2861 314.063 44.1343C314.063 45.9825 315.428 47.3026 317.232 47.3026ZM335.229 67.4565C331.269 67.4565 328.409 64.6842 328.409 60.7679C328.409 56.8075 331.269 54.0352 335.229 54.0352C339.19 54.0352 342.006 56.8075 342.006 60.7679C342.006 64.6842 339.19 67.4565 335.229 67.4565ZM335.229 63.8921C337.034 63.8921 338.354 62.572 338.354 60.7679C338.354 58.9197 337.034 57.5996 335.229 57.5996C333.425 57.5996 332.105 58.9197 332.105 60.7679C332.105 62.572 333.425 63.8921 335.229 63.8921Z" fill="url(#paint6_linear_104_2)"/>
<path d="M296.393 37.2698C302.685 37.2698 307.086 41.4942 307.086 47.4787C307.086 50.207 306.206 53.2873 304.005 57.0276L298.153 67.0606H292.916C296.437 61.032 297.757 58.6998 299.033 56.3676C297.933 56.8076 296.745 57.0276 295.557 57.0276C289.924 57.0276 285.7 52.9352 285.7 47.4787C285.7 41.4942 290.188 37.2698 296.393 37.2698ZM296.437 53.1993C299.869 53.1993 302.421 50.823 302.421 47.4787C302.421 44.1344 299.869 41.7142 296.437 41.7142C292.96 41.7142 290.408 44.1344 290.408 47.4787C290.408 50.867 292.96 53.1993 296.437 53.1993Z" fill="url(#paint7_linear_104_2)"/>
<path d="M271.769 37.2698C278.062 37.2698 282.462 41.4942 282.462 47.4787C282.462 50.207 281.582 53.2873 279.382 57.0276L273.529 67.0606H268.293C271.813 61.032 273.133 58.6998 274.409 56.3676C273.309 56.8076 272.121 57.0276 270.933 57.0276C265.301 57.0276 261.076 52.9352 261.076 47.4787C261.076 41.4942 265.565 37.2698 271.769 37.2698ZM271.813 53.1993C275.245 53.1993 277.798 50.823 277.798 47.4787C277.798 44.1344 275.245 41.7142 271.813 41.7142C268.337 41.7142 265.785 44.1344 265.785 47.4787C265.785 50.867 268.337 53.1993 271.813 53.1993Z" fill="url(#paint8_linear_104_2)"/>
<path d="M298.545 25.1789H298.898V29.9476H298.536L298.483 28.9144C298.068 29.6032 297.326 30.0448 296.408 30.0448C295.012 30.0448 293.961 28.9762 293.961 27.5633C293.961 26.1503 295.012 25.0906 296.408 25.0906C297.326 25.0906 298.068 25.5321 298.483 26.2209L298.545 25.1789ZM296.434 29.6297C297.609 29.6297 298.465 28.7554 298.465 27.5633C298.465 26.3799 297.609 25.5056 296.434 25.5056C295.277 25.5056 294.403 26.3976 294.403 27.5633C294.403 28.7466 295.277 29.6297 296.434 29.6297Z" fill="black"/>
<path d="M293.234 25.1699H293.649V25.5761H293.199C292.245 25.5761 291.636 26.2826 291.636 27.2982V29.9475H291.203V25.1788H291.521L291.601 26.1237C291.918 25.5232 292.475 25.1699 293.234 25.1699Z" fill="black"/>
<path d="M287.583 30.0446C286.338 30.0446 285.543 29.2233 285.543 27.9516V25.1787H285.976V27.8898C285.976 28.9584 286.594 29.6295 287.583 29.6295C288.581 29.6295 289.191 28.9584 289.191 27.8898V25.1787H289.623V27.9516C289.623 29.2233 288.837 30.0446 287.583 30.0446Z" fill="black"/>
<path d="M284.026 29.5501H284.547V29.9475H283.982C283.046 29.9475 282.481 29.3823 282.481 28.4286V25.5762H281.686V25.479L282.825 24.3398H282.914V25.1788H284.512V25.5762H282.914V28.4198C282.914 29.1351 283.311 29.5501 284.026 29.5501Z" fill="black"/>
<path d="M278.632 30.0446C277.387 30.0446 276.592 29.2233 276.592 27.9516V25.1787H277.025V27.8898C277.025 28.9584 277.643 29.6295 278.632 29.6295C279.63 29.6295 280.239 28.9584 280.239 27.8898V25.1787H280.672V27.9516C280.672 29.2233 279.886 30.0446 278.632 30.0446Z" fill="black"/>
<path d="M275.339 25.1699H275.754V25.5761H275.304C274.35 25.5761 273.741 26.2826 273.741 27.2982V29.9475H273.308V25.1788H273.626L273.705 26.1237C274.023 25.5232 274.58 25.1699 275.339 25.1699Z" fill="black"/>
<path d="M271.703 29.5501H272.224V29.9475H271.658C270.722 29.9475 270.157 29.3823 270.157 28.4286V25.5762H269.362V25.479L270.502 24.3398H270.59V25.1788H272.188V25.5762H270.59V28.4198C270.59 29.1351 270.987 29.5501 271.703 29.5501Z" fill="black"/>
<path d="M266.899 30.0448C265.804 30.0448 265.115 29.4972 265.053 28.6053H265.477C265.539 29.2676 266.086 29.6474 266.908 29.6474C267.738 29.6474 268.294 29.2676 268.294 28.6671C268.294 27.9253 267.579 27.7929 266.837 27.6692C266.016 27.5279 265.142 27.369 265.142 26.3887C265.142 25.6116 265.839 25.0906 266.872 25.0906C267.906 25.0906 268.568 25.6204 268.603 26.4682H268.188C268.153 25.8412 267.667 25.4791 266.864 25.4791C266.078 25.4791 265.565 25.8412 265.565 26.3799C265.565 27.0246 266.21 27.1305 266.943 27.2542C267.773 27.3955 268.727 27.5544 268.727 28.6495C268.727 29.4972 267.994 30.0448 266.899 30.0448Z" fill="black"/>
<path d="M261.204 29.5237H264.233V29.9476H260.753V23.7659H264.136V24.1986H261.204V26.53H263.906V26.945H261.204V29.5237Z" fill="black"/>
<defs>
<linearGradient id="paint0_linear_104_2" x1="32.1341" y1="6.92957" x2="53.4967" y2="79.0346" gradientUnits="userSpaceOnUse">
<stop offset="0.115007" stop-color="#B3DBAC"/>
<stop offset="0.875007" stop-color="#29AB4C"/>
</linearGradient>
<linearGradient id="paint1_linear_104_2" x1="32.1339" y1="6.92957" x2="53.4965" y2="79.0346" gradientUnits="userSpaceOnUse">
<stop offset="0.115007" stop-color="#B3DBAC"/>
<stop offset="0.875007" stop-color="#29AB4C"/>
</linearGradient>
<linearGradient id="paint2_linear_104_2" x1="170.116" y1="29.653" x2="176.694" y2="72.1225" gradientUnits="userSpaceOnUse">
<stop offset="0.115007" stop-color="#B3DBAC"/>
<stop offset="0.875007" stop-color="#29AB4C"/>
</linearGradient>
<linearGradient id="paint3_linear_104_2" x1="170.116" y1="29.6532" x2="176.694" y2="72.1226" gradientUnits="userSpaceOnUse">
<stop offset="0.115007" stop-color="#B3DBAC"/>
<stop offset="0.875007" stop-color="#29AB4C"/>
</linearGradient>
<linearGradient id="paint4_linear_104_2" x1="170.116" y1="29.6532" x2="176.694" y2="72.1226" gradientUnits="userSpaceOnUse">
<stop offset="0.115007" stop-color="#B3DBAC"/>
<stop offset="0.875007" stop-color="#29AB4C"/>
</linearGradient>
<linearGradient id="paint5_linear_104_2" x1="170.116" y1="29.6532" x2="176.694" y2="72.1226" gradientUnits="userSpaceOnUse">
<stop offset="0.115007" stop-color="#B3DBAC"/>
<stop offset="0.875007" stop-color="#29AB4C"/>
</linearGradient>
<linearGradient id="paint6_linear_104_2" x1="287.844" y1="29.653" x2="295.959" y2="71.5701" gradientUnits="userSpaceOnUse">
<stop offset="0.115007" stop-color="#B3DBAC"/>
<stop offset="0.875007" stop-color="#29AB4C"/>
</linearGradient>
<linearGradient id="paint7_linear_104_2" x1="287.844" y1="29.6532" x2="295.959" y2="71.5702" gradientUnits="userSpaceOnUse">
<stop offset="0.115007" stop-color="#B3DBAC"/>
<stop offset="0.875007" stop-color="#29AB4C"/>
</linearGradient>
<linearGradient id="paint8_linear_104_2" x1="287.844" y1="29.6532" x2="295.959" y2="71.5702" gradientUnits="userSpaceOnUse">
<stop offset="0.115007" stop-color="#B3DBAC"/>
<stop offset="0.875007" stop-color="#29AB4C"/>
</linearGradient>
</defs>
</svg>
